<svg width="571" height="360" viewBox="0 0 571 360" fill="none" xmlns="http://www.w3.org/2000/svg">
<g clip-path="url(#clip0)">
<rect y="-0.0571289" width="569.082" height="360" rx="10" fill="white"/>
<path opacity="0.4" d="M33.47 290.063C32.85 290.063 32.3133 289.913 31.86 289.613C31.4133 289.306 31.07 288.883 30.83 288.343C30.59 287.796 30.47 287.163 30.47 286.443C30.47 285.723 30.59 285.093 30.83 284.553C31.07 284.006 31.4133 283.583 31.86 283.283C32.3133 282.976 32.85 282.823 33.47 282.823C34.09 282.823 34.6233 282.976 35.07 283.283C35.5167 283.583 35.86 284.006 36.1 284.553C36.34 285.093 36.46 285.723 36.46 286.443C36.46 287.163 36.34 287.796 36.1 288.343C35.86 288.883 35.5167 289.306 35.07 289.613C34.6233 289.913 34.09 290.063 33.47 290.063ZM33.47 289.323C33.8767 289.323 34.24 289.21 34.56 288.983C34.8867 288.75 35.14 288.42 35.32 287.993C35.5067 287.56 35.6 287.043 35.6 286.443C35.6 285.843 35.5067 285.33 35.32 284.903C35.14 284.476 34.8867 284.15 34.56 283.923C34.24 283.69 33.8767 283.573 33.47 283.573C33.0567 283.573 32.69 283.69 32.37 283.923C32.05 284.15 31.7967 284.476 31.61 284.903C31.4233 285.33 31.33 285.843 31.33 286.443C31.33 287.043 31.4233 287.56 31.61 287.993C31.7967 288.42 32.05 288.75 32.37 288.983C32.69 289.21 33.0567 289.323 33.47 289.323ZM39.8536 290.063C39.4069 290.063 39.0036 289.983 38.6436 289.823C38.2836 289.656 37.9936 289.41 37.7736 289.083C37.5603 288.756 37.4469 288.35 37.4336 287.863H38.2836C38.2903 288.263 38.4303 288.61 38.7036 288.903C38.9769 289.19 39.3603 289.333 39.8536 289.333C40.3469 289.333 40.7169 289.196 40.9636 288.923C41.2169 288.65 41.3436 288.32 41.3436 287.933C41.3436 287.606 41.2636 287.34 41.1036 287.133C40.9503 286.926 40.7403 286.773 40.4736 286.673C40.2136 286.573 39.9269 286.523 39.6136 286.523H39.0936V285.813H39.6136C40.0669 285.813 40.4203 285.71 40.6736 285.503C40.9336 285.296 41.0636 285.006 41.0636 284.633C41.0636 284.32 40.9603 284.063 40.7536 283.863C40.5536 283.656 40.2536 283.553 39.8536 283.553C39.4669 283.553 39.1569 283.67 38.9236 283.903C38.6903 284.13 38.5603 284.416 38.5336 284.763H37.6836C37.7036 284.383 37.8036 284.046 37.9836 283.753C38.1703 283.46 38.4236 283.233 38.7436 283.073C39.0636 282.906 39.4336 282.823 39.8536 282.823C40.3069 282.823 40.6836 282.903 40.9836 283.063C41.2903 283.223 41.5203 283.436 41.6736 283.703C41.8336 283.97 41.9136 284.263 41.9136 284.583C41.9136 284.936 41.8169 285.26 41.6236 285.553C41.4303 285.84 41.1403 286.033 40.7536 286.133C41.1669 286.22 41.5103 286.416 41.7836 286.723C42.0569 287.03 42.1936 287.433 42.1936 287.933C42.1936 288.32 42.1036 288.676 41.9236 289.003C41.7503 289.323 41.4903 289.58 41.1436 289.773C40.7969 289.966 40.3669 290.063 39.8536 290.063ZM46.199 289.943V282.943H47.179L49.699 287.823L52.199 282.943H53.189V289.943H52.349V284.443L50.009 288.943H49.379L47.039 284.453V289.943H46.199ZM56.2658 290.063C55.8524 290.063 55.5091 289.993 55.2358 289.853C54.9624 289.713 54.7591 289.526 54.6258 289.293C54.4924 289.06 54.4258 288.806 54.4258 288.533C54.4258 288.026 54.6191 287.636 55.0058 287.363C55.3924 287.09 55.9191 286.953 56.5858 286.953H57.9258V286.893C57.9258 286.46 57.8124 286.133 57.5858 285.913C57.3591 285.686 57.0558 285.573 56.6758 285.573C56.3491 285.573 56.0658 285.656 55.8258 285.823C55.5924 285.983 55.4458 286.22 55.3858 286.533H54.5258C54.5591 286.173 54.6791 285.87 54.8858 285.623C55.0991 285.376 55.3624 285.19 55.6758 285.063C55.9891 284.93 56.3224 284.863 56.6758 284.863C57.3691 284.863 57.8891 285.05 58.2358 285.423C58.5891 285.79 58.7658 286.28 58.7658 286.893V289.943H58.0158L57.9658 289.053C57.8258 289.333 57.6191 289.573 57.3458 289.773C57.0791 289.966 56.7191 290.063 56.2658 290.063ZM56.3958 289.353C56.7158 289.353 56.9891 289.27 57.2158 289.103C57.4491 288.936 57.6258 288.72 57.7458 288.453C57.8658 288.186 57.9258 287.906 57.9258 287.613V287.603H56.6558C56.1624 287.603 55.8124 287.69 55.6058 287.863C55.4058 288.03 55.3058 288.24 55.3058 288.493C55.3058 288.753 55.3991 288.963 55.5858 289.123C55.7791 289.276 56.0491 289.353 56.3958 289.353ZM60.0259 289.943V284.983H60.7859L60.8559 285.933C61.0093 285.606 61.2426 285.346 61.5559 285.153C61.8693 284.96 62.2559 284.863 62.7159 284.863V285.743H62.4859C62.1926 285.743 61.9226 285.796 61.6759 285.903C61.4293 286.003 61.2326 286.176 61.0859 286.423C60.9393 286.67 60.8659 287.01 60.8659 287.443V289.943H60.0259ZM66.2452 289.943V289.353C66.7186 288.98 67.1652 288.603 67.5852 288.223C68.0119 287.836 68.3886 287.456 68.7152 287.083C69.0486 286.71 69.3086 286.343 69.4952 285.983C69.6886 285.623 69.7852 285.276 69.7852 284.943C69.7852 284.696 69.7419 284.466 69.6552 284.253C69.5752 284.04 69.4419 283.87 69.2552 283.743C69.0686 283.61 68.8152 283.543 68.4952 283.543C68.1886 283.543 67.9319 283.613 67.7252 283.753C67.5186 283.886 67.3619 284.066 67.2552 284.293C67.1552 284.52 67.1052 284.763 67.1052 285.023H66.2952C66.2952 284.563 66.3919 284.17 66.5852 283.843C66.7786 283.51 67.0419 283.256 67.3752 283.083C67.7086 282.91 68.0852 282.823 68.5052 282.823C69.1252 282.823 69.6319 283 70.0252 283.353C70.4252 283.7 70.6252 284.22 70.6252 284.913C70.6252 285.326 70.5219 285.736 70.3152 286.143C70.1086 286.543 69.8452 286.933 69.5252 287.313C69.2052 287.686 68.8619 288.036 68.4952 288.363C68.1352 288.69 67.7986 288.983 67.4852 289.243H70.8652V289.943H66.2452ZM74.7102 290.063C74.0902 290.063 73.5536 289.913 73.1002 289.613C72.6536 289.306 72.3102 288.883 72.0702 288.343C71.8302 287.796 71.7102 287.163 71.7102 286.443C71.7102 285.723 71.8302 285.093 72.0702 284.553C72.3102 284.006 72.6536 283.583 73.1002 283.283C73.5536 282.976 74.0902 282.823 74.7102 282.823C75.3302 282.823 75.8636 282.976 76.3102 283.283C76.7569 283.583 77.1002 284.006 77.3402 284.553C77.5802 285.093 77.7002 285.723 77.7002 286.443C77.7002 287.163 77.5802 287.796 77.3402 288.343C77.1002 288.883 76.7569 289.306 76.3102 289.613C75.8636 289.913 75.3302 290.063 74.7102 290.063ZM74.7102 289.323C75.1169 289.323 75.4802 289.21 75.8002 288.983C76.1269 288.75 76.3802 288.42 76.5602 287.993C76.7469 287.56 76.8402 287.043 76.8402 286.443C76.8402 285.843 76.7469 285.33 76.5602 284.903C76.3802 284.476 76.1269 284.15 75.8002 283.923C75.4802 283.69 75.1169 283.573 74.7102 283.573C74.2969 283.573 73.9302 283.69 73.6102 283.923C73.2902 284.15 73.0369 284.476 72.8502 284.903C72.6636 285.33 72.5702 285.843 72.5702 286.443C72.5702 287.043 72.6636 287.56 72.8502 287.993C73.0369 288.42 73.2902 288.75 73.6102 288.983C73.9302 289.21 74.2969 289.323 74.7102 289.323ZM78.7062 289.943V289.353C79.1795 288.98 79.6262 288.603 80.0462 288.223C80.4728 287.836 80.8495 287.456 81.1762 287.083C81.5095 286.71 81.7695 286.343 81.9562 285.983C82.1495 285.623 82.2462 285.276 82.2462 284.943C82.2462 284.696 82.2028 284.466 82.1162 284.253C82.0362 284.04 81.9028 283.87 81.7162 283.743C81.5295 283.61 81.2762 283.543 80.9562 283.543C80.6495 283.543 80.3928 283.613 80.1862 283.753C79.9795 283.886 79.8228 284.066 79.7162 284.293C79.6162 284.52 79.5662 284.763 79.5662 285.023H78.7562C78.7562 284.563 78.8528 284.17 79.0462 283.843C79.2395 283.51 79.5028 283.256 79.8362 283.083C80.1695 282.91 80.5462 282.823 80.9662 282.823C81.5862 282.823 82.0928 283 82.4862 283.353C82.8862 283.7 83.0862 284.22 83.0862 284.913C83.0862 285.326 82.9828 285.736 82.7762 286.143C82.5695 286.543 82.3062 286.933 81.9862 287.313C81.6662 287.686 81.3228 288.036 80.9562 288.363C80.5962 288.69 80.2595 288.983 79.9462 289.243H83.3262V289.943H78.7062ZM85.2288 289.943V283.883L84.0988 284.133V283.553L85.5088 282.943H86.0788V289.943H85.2288Z" fill="black"/>
<path opacity="0.4" d="M33.47 242.063C32.85 242.063 32.3133 241.913 31.86 241.613C31.4133 241.306 31.07 240.883 30.83 240.343C30.59 239.796 30.47 239.163 30.47 238.443C30.47 237.723 30.59 237.093 30.83 236.553C31.07 236.006 31.4133 235.583 31.86 235.283C32.3133 234.976 32.85 234.823 33.47 234.823C34.09 234.823 34.6233 234.976 35.07 235.283C35.5167 235.583 35.86 236.006 36.1 236.553C36.34 237.093 36.46 237.723 36.46 238.443C36.46 239.163 36.34 239.796 36.1 240.343C35.86 240.883 35.5167 241.306 35.07 241.613C34.6233 241.913 34.09 242.063 33.47 242.063ZM33.47 241.323C33.8767 241.323 34.24 241.21 34.56 240.983C34.8867 240.75 35.14 240.42 35.32 239.993C35.5067 239.56 35.6 239.043 35.6 238.443C35.6 237.843 35.5067 237.33 35.32 236.903C35.14 236.476 34.8867 236.15 34.56 235.923C34.24 235.69 33.8767 235.573 33.47 235.573C33.0567 235.573 32.69 235.69 32.37 235.923C32.05 236.15 31.7967 236.476 31.61 236.903C31.4233 237.33 31.33 237.843 31.33 238.443C31.33 239.043 31.4233 239.56 31.61 239.993C31.7967 240.42 32.05 240.75 32.37 240.983C32.69 241.21 33.0567 241.323 33.47 241.323ZM37.4659 241.943V241.353C37.9393 240.98 38.3859 240.603 38.8059 240.223C39.2326 239.836 39.6093 239.456 39.9359 239.083C40.2693 238.71 40.5293 238.343 40.7159 237.983C40.9093 237.623 41.0059 237.276 41.0059 236.943C41.0059 236.696 40.9626 236.466 40.8759 236.253C40.7959 236.04 40.6626 235.87 40.4759 235.743C40.2893 235.61 40.0359 235.543 39.7159 235.543C39.4093 235.543 39.1526 235.613 38.9459 235.753C38.7393 235.886 38.5826 236.066 38.4759 236.293C38.3759 236.52 38.3259 236.763 38.3259 237.023H37.5159C37.5159 236.563 37.6126 236.17 37.8059 235.843C37.9993 235.51 38.2626 235.256 38.5959 235.083C38.9293 234.91 39.3059 234.823 39.7259 234.823C40.3459 234.823 40.8526 235 41.2459 235.353C41.6459 235.7 41.8459 236.22 41.8459 236.913C41.8459 237.326 41.7426 237.736 41.5359 238.143C41.3293 238.543 41.0659 238.933 40.7459 239.313C40.4259 239.686 40.0826 240.036 39.7159 240.363C39.3559 240.69 39.0193 240.983 38.7059 241.243H42.0859V241.943H37.4659ZM45.9451 241.943V234.943H46.9251L49.4451 239.823L51.9451 234.943H52.9351V241.943H52.0951V236.443L49.7551 240.943H49.1251L46.7851 236.453V241.943H45.9451ZM56.0119 242.063C55.5985 242.063 55.2552 241.993 54.9819 241.853C54.7085 241.713 54.5052 241.526 54.3719 241.293C54.2385 241.06 54.1719 240.806 54.1719 240.533C54.1719 240.026 54.3652 239.636 54.7519 239.363C55.1385 239.09 55.6652 238.953 56.3319 238.953H57.6719V238.893C57.6719 238.46 57.5585 238.133 57.3319 237.913C57.1052 237.686 56.8019 237.573 56.4219 237.573C56.0952 237.573 55.8119 237.656 55.5719 237.823C55.3385 237.983 55.1919 238.22 55.1319 238.533H54.2719C54.3052 238.173 54.4252 237.87 54.6319 237.623C54.8452 237.376 55.1085 237.19 55.4219 237.063C55.7352 236.93 56.0685 236.863 56.4219 236.863C57.1152 236.863 57.6352 237.05 57.9819 237.423C58.3352 237.79 58.5119 238.28 58.5119 238.893V241.943H57.7619L57.7119 241.053C57.5719 241.333 57.3652 241.573 57.0919 241.773C56.8252 241.966 56.4652 242.063 56.0119 242.063ZM56.1419 241.353C56.4619 241.353 56.7352 241.27 56.9619 241.103C57.1952 240.936 57.3719 240.72 57.4919 240.453C57.6119 240.186 57.6719 239.906 57.6719 239.613V239.603H56.4019C55.9085 239.603 55.5585 239.69 55.3519 239.863C55.1519 240.03 55.0519 240.24 55.0519 240.493C55.0519 240.753 55.1452 240.963 55.3319 241.123C55.5252 241.276 55.7952 241.353 56.1419 241.353ZM59.772 241.943V236.983H60.532L60.602 237.933C60.7554 237.606 60.9887 237.346 61.302 237.153C61.6154 236.96 62.002 236.863 62.462 236.863V237.743H62.232C61.9387 237.743 61.6687 237.796 61.422 237.903C61.1754 238.003 60.9787 238.176 60.832 238.423C60.6854 238.67 60.612 239.01 60.612 239.443V241.943H59.772ZM65.9913 241.943V241.353C66.4647 240.98 66.9113 240.603 67.3313 240.223C67.758 239.836 68.1347 239.456 68.4613 239.083C68.7947 238.71 69.0547 238.343 69.2413 237.983C69.4347 237.623 69.5313 237.276 69.5313 236.943C69.5313 236.696 69.488 236.466 69.4013 236.253C69.3213 236.04 69.188 235.87 69.0013 235.743C68.8147 235.61 68.5613 235.543 68.2413 235.543C67.9347 235.543 67.678 235.613 67.4713 235.753C67.2647 235.886 67.108 236.066 67.0013 236.293C66.9013 236.52 66.8513 236.763 66.8513 237.023H66.0413C66.0413 236.563 66.138 236.17 66.3313 235.843C66.5247 235.51 66.788 235.256 67.1213 235.083C67.4547 234.91 67.8313 234.823 68.2513 234.823C68.8713 234.823 69.378 235 69.7713 235.353C70.1713 235.7 70.3713 236.22 70.3713 236.913C70.3713 237.326 70.268 237.736 70.0613 238.143C69.8547 238.543 69.5913 238.933 69.2713 239.313C68.9513 239.686 68.608 240.036 68.2413 240.363C67.8813 240.69 67.5447 240.983 67.2313 241.243H70.6113V241.943H65.9913ZM74.4563 242.063C73.8363 242.063 73.2997 241.913 72.8463 241.613C72.3997 241.306 72.0563 240.883 71.8163 240.343C71.5763 239.796 71.4563 239.163 71.4563 238.443C71.4563 237.723 71.5763 237.093 71.8163 236.553C72.0563 236.006 72.3997 235.583 72.8463 235.283C73.2997 234.976 73.8363 234.823 74.4563 234.823C75.0763 234.823 75.6097 234.976 76.0563 235.283C76.503 235.583 76.8463 236.006 77.0863 236.553C77.3263 237.093 77.4463 237.723 77.4463 238.443C77.4463 239.163 77.3263 239.796 77.0863 240.343C76.8463 240.883 76.503 241.306 76.0563 241.613C75.6097 241.913 75.0763 242.063 74.4563 242.063ZM74.4563 241.323C74.863 241.323 75.2263 241.21 75.5463 240.983C75.873 240.75 76.1263 240.42 76.3063 239.993C76.493 239.56 76.5863 239.043 76.5863 238.443C76.5863 237.843 76.493 237.33 76.3063 236.903C76.1263 236.476 75.873 236.15 75.5463 235.923C75.2263 235.69 74.863 235.573 74.4563 235.573C74.043 235.573 73.6763 235.69 73.3563 235.923C73.0363 236.15 72.783 236.476 72.5963 236.903C72.4097 237.33 72.3163 237.843 72.3163 238.443C72.3163 239.043 72.4097 239.56 72.5963 239.993C72.783 240.42 73.0363 240.75 73.3563 240.983C73.6763 241.21 74.043 241.323 74.4563 241.323ZM78.4523 241.943V241.353C78.9256 240.98 79.3723 240.603 79.7923 240.223C80.2189 239.836 80.5956 239.456 80.9223 239.083C81.2556 238.71 81.5156 238.343 81.7023 237.983C81.8956 237.623 81.9923 237.276 81.9923 236.943C81.9923 236.696 81.9489 236.466 81.8623 236.253C81.7823 236.04 81.6489 235.87 81.4623 235.743C81.2756 235.61 81.0223 235.543 80.7023 235.543C80.3956 235.543 80.1389 235.613 79.9323 235.753C79.7256 235.886 79.5689 236.066 79.4623 236.293C79.3623 236.52 79.3123 236.763 79.3123 237.023H78.5023C78.5023 236.563 78.5989 236.17 78.7923 235.843C78.9856 235.51 79.2489 235.256 79.5823 235.083C79.9156 234.91 80.2923 234.823 80.7123 234.823C81.3323 234.823 81.8389 235 82.2323 235.353C82.6323 235.7 82.8323 236.22 82.8323 236.913C82.8323 237.326 82.7289 237.736 82.5223 238.143C82.3156 238.543 82.0523 238.933 81.7323 239.313C81.4123 239.686 81.0689 240.036 80.7023 240.363C80.3423 240.69 80.0056 240.983 79.6923 241.243H83.0723V241.943H78.4523ZM84.9749 241.943V235.883L83.8449 236.133V235.553L85.2549 234.943H85.8249V241.943H84.9749Z" fill="black"/>
<path opacity="0.4" d="M33.47 194.063C32.85 194.063 32.3133 193.913 31.86 193.613C31.4133 193.306 31.07 192.883 30.83 192.343C30.59 191.796 30.47 191.163 30.47 190.443C30.47 189.723 30.59 189.093 30.83 188.553C31.07 188.006 31.4133 187.583 31.86 187.283C32.3133 186.976 32.85 186.823 33.47 186.823C34.09 186.823 34.6233 186.976 35.07 187.283C35.5167 187.583 35.86 188.006 36.1 188.553C36.34 189.093 36.46 189.723 36.46 190.443C36.46 191.163 36.34 191.796 36.1 192.343C35.86 192.883 35.5167 193.306 35.07 193.613C34.6233 193.913 34.09 194.063 33.47 194.063ZM33.47 193.323C33.8767 193.323 34.24 193.21 34.56 192.983C34.8867 192.75 35.14 192.42 35.32 191.993C35.5067 191.56 35.6 191.043 35.6 190.443C35.6 189.843 35.5067 189.33 35.32 188.903C35.14 188.476 34.8867 188.15 34.56 187.923C34.24 187.69 33.8767 187.573 33.47 187.573C33.0567 187.573 32.69 187.69 32.37 187.923C32.05 188.15 31.7967 188.476 31.61 188.903C31.4233 189.33 31.33 189.843 31.33 190.443C31.33 191.043 31.4233 191.56 31.61 191.993C31.7967 192.42 32.05 192.75 32.37 192.983C32.69 193.21 33.0567 193.323 33.47 193.323ZM38.3636 193.943V187.883L37.2336 188.133V187.553L38.6436 186.943H39.2136V193.943H38.3636ZM43.3377 193.943V186.943H44.3177L46.8377 191.823L49.3377 186.943H50.3277V193.943H49.4877V188.443L47.1477 192.943H46.5177L44.1777 188.453V193.943H43.3377ZM53.4045 194.063C52.9911 194.063 52.6478 193.993 52.3745 193.853C52.1011 193.713 51.8978 193.526 51.7645 193.293C51.6311 193.06 51.5645 192.806 51.5645 192.533C51.5645 192.026 51.7578 191.636 52.1445 191.363C52.5311 191.09 53.0578 190.953 53.7245 190.953H55.0645V190.893C55.0645 190.46 54.9511 190.133 54.7245 189.913C54.4978 189.686 54.1945 189.573 53.8145 189.573C53.4878 189.573 53.2045 189.656 52.9645 189.823C52.7311 189.983 52.5845 190.22 52.5245 190.533H51.6645C51.6978 190.173 51.8178 189.87 52.0245 189.623C52.2378 189.376 52.5011 189.19 52.8145 189.063C53.1278 188.93 53.4611 188.863 53.8145 188.863C54.5078 188.863 55.0278 189.05 55.3745 189.423C55.7278 189.79 55.9045 190.28 55.9045 190.893V193.943H55.1545L55.1045 193.053C54.9645 193.333 54.7578 193.573 54.4845 193.773C54.2178 193.966 53.8578 194.063 53.4045 194.063ZM53.5345 193.353C53.8545 193.353 54.1278 193.27 54.3545 193.103C54.5878 192.936 54.7645 192.72 54.8845 192.453C55.0045 192.186 55.0645 191.906 55.0645 191.613V191.603H53.7945C53.3011 191.603 52.9511 191.69 52.7445 191.863C52.5445 192.03 52.4445 192.24 52.4445 192.493C52.4445 192.753 52.5378 192.963 52.7245 193.123C52.9178 193.276 53.1878 193.353 53.5345 193.353ZM57.1646 193.943V188.983H57.9246L57.9946 189.933C58.1479 189.606 58.3813 189.346 58.6946 189.153C59.0079 188.96 59.3946 188.863 59.8546 188.863V189.743H59.6246C59.3313 189.743 59.0613 189.796 58.8146 189.903C58.5679 190.003 58.3713 190.176 58.2246 190.423C58.0779 190.67 58.0046 191.01 58.0046 191.443V193.943H57.1646ZM63.3839 193.943V193.353C63.8572 192.98 64.3039 192.603 64.7239 192.223C65.1506 191.836 65.5272 191.456 65.8539 191.083C66.1872 190.71 66.4472 190.343 66.6339 189.983C66.8272 189.623 66.9239 189.276 66.9239 188.943C66.9239 188.696 66.8806 188.466 66.7939 188.253C66.7139 188.04 66.5806 187.87 66.3939 187.743C66.2072 187.61 65.9539 187.543 65.6339 187.543C65.3272 187.543 65.0706 187.613 64.8639 187.753C64.6572 187.886 64.5006 188.066 64.3939 188.293C64.2939 188.52 64.2439 188.763 64.2439 189.023H63.4339C63.4339 188.563 63.5306 188.17 63.7239 187.843C63.9172 187.51 64.1806 187.256 64.5139 187.083C64.8472 186.91 65.2239 186.823 65.6439 186.823C66.2639 186.823 66.7706 187 67.1639 187.353C67.5639 187.7 67.7639 188.22 67.7639 188.913C67.7639 189.326 67.6606 189.736 67.4539 190.143C67.2472 190.543 66.9839 190.933 66.6639 191.313C66.3439 191.686 66.0006 192.036 65.6339 192.363C65.2739 192.69 64.9372 192.983 64.6239 193.243H68.0039V193.943H63.3839ZM71.8489 194.063C71.2289 194.063 70.6922 193.913 70.2389 193.613C69.7922 193.306 69.4489 192.883 69.2089 192.343C68.9689 191.796 68.8489 191.163 68.8489 190.443C68.8489 189.723 68.9689 189.093 69.2089 188.553C69.4489 188.006 69.7922 187.583 70.2389 187.283C70.6922 186.976 71.2289 186.823 71.8489 186.823C72.4689 186.823 73.0022 186.976 73.4489 187.283C73.8956 187.583 74.2389 188.006 74.4789 188.553C74.7189 189.093 74.8389 189.723 74.8389 190.443C74.8389 191.163 74.7189 191.796 74.4789 192.343C74.2389 192.883 73.8956 193.306 73.4489 193.613C73.0022 193.913 72.4689 194.063 71.8489 194.063ZM71.8489 193.323C72.2556 193.323 72.6189 193.21 72.9389 192.983C73.2656 192.75 73.5189 192.42 73.6989 191.993C73.8856 191.56 73.9789 191.043 73.9789 190.443C73.9789 189.843 73.8856 189.33 73.6989 188.903C73.5189 188.476 73.2656 188.15 72.9389 187.923C72.6189 187.69 72.2556 187.573 71.8489 187.573C71.4356 187.573 71.0689 187.69 70.7489 187.923C70.4289 188.15 70.1756 188.476 69.9889 188.903C69.8022 189.33 69.7089 189.843 69.7089 190.443C69.7089 191.043 69.8022 191.56 69.9889 191.993C70.1756 192.42 70.4289 192.75 70.7489 192.983C71.0689 193.21 71.4356 193.323 71.8489 193.323ZM75.8448 193.943V193.353C76.3182 192.98 76.7648 192.603 77.1848 192.223C77.6115 191.836 77.9882 191.456 78.3148 191.083C78.6482 190.71 78.9082 190.343 79.0948 189.983C79.2882 189.623 79.3848 189.276 79.3848 188.943C79.3848 188.696 79.3415 188.466 79.2548 188.253C79.1748 188.04 79.0415 187.87 78.8548 187.743C78.6682 187.61 78.4148 187.543 78.0948 187.543C77.7882 187.543 77.5315 187.613 77.3248 187.753C77.1182 187.886 76.9615 188.066 76.8548 188.293C76.7548 188.52 76.7048 188.763 76.7048 189.023H75.8948C75.8948 188.563 75.9915 188.17 76.1848 187.843C76.3782 187.51 76.6415 187.256 76.9748 187.083C77.3082 186.91 77.6848 186.823 78.1048 186.823C78.7248 186.823 79.2315 187 79.6248 187.353C80.0248 187.7 80.2248 188.22 80.2248 188.913C80.2248 189.326 80.1215 189.736 79.9148 190.143C79.7082 190.543 79.4448 190.933 79.1248 191.313C78.8048 191.686 78.4615 192.036 78.0948 192.363C77.7348 192.69 77.3982 192.983 77.0848 193.243H80.4648V193.943H75.8448ZM82.3675 193.943V187.883L81.2375 188.133V187.553L82.6475 186.943H83.2175V193.943H82.3675Z" fill="black"/>
<path opacity="0.4" d="M32.48 145.943V143.283L30.2 138.943H31.15L32.9 142.483L34.65 138.943H35.59L33.32 143.283V145.943H32.48ZM37.8419 146.063C37.3685 146.063 36.9485 145.956 36.5819 145.743C36.2152 145.523 35.9252 145.22 35.7119 144.833C35.5052 144.446 35.4019 143.99 35.4019 143.463C35.4019 142.943 35.5052 142.49 35.7119 142.103C35.9185 141.71 36.2052 141.406 36.5719 141.193C36.9452 140.973 37.3752 140.863 37.8619 140.863C38.3419 140.863 38.7552 140.973 39.1019 141.193C39.4552 141.406 39.7252 141.69 39.9119 142.043C40.0985 142.396 40.1919 142.776 40.1919 143.183C40.1919 143.256 40.1885 143.33 40.1819 143.403C40.1819 143.476 40.1819 143.56 40.1819 143.653H36.2319C36.2519 144.033 36.3385 144.35 36.4919 144.603C36.6519 144.85 36.8485 145.036 37.0819 145.163C37.3219 145.29 37.5752 145.353 37.8419 145.353C38.1885 145.353 38.4785 145.273 38.7119 145.113C38.9452 144.953 39.1152 144.736 39.2219 144.463H40.0519C39.9185 144.923 39.6619 145.306 39.2819 145.613C38.9085 145.913 38.4285 146.063 37.8419 146.063ZM37.8419 141.573C37.4419 141.573 37.0852 141.696 36.7719 141.943C36.4652 142.183 36.2885 142.536 36.2419 143.003H39.3619C39.3419 142.556 39.1885 142.206 38.9019 141.953C38.6152 141.7 38.2619 141.573 37.8419 141.573ZM43.2052 146.063C42.6119 146.063 42.1186 145.913 41.7252 145.613C41.3319 145.313 41.1019 144.906 41.0352 144.393H41.8952C41.9486 144.653 42.0852 144.88 42.3052 145.073C42.5319 145.26 42.8352 145.353 43.2152 145.353C43.5686 145.353 43.8286 145.28 43.9952 145.133C44.1619 144.98 44.2452 144.8 44.2452 144.593C44.2452 144.293 44.1352 144.093 43.9152 143.993C43.7019 143.893 43.3986 143.803 43.0052 143.723C42.7386 143.67 42.4719 143.593 42.2052 143.493C41.9386 143.393 41.7152 143.253 41.5352 143.073C41.3552 142.886 41.2652 142.643 41.2652 142.343C41.2652 141.91 41.4252 141.556 41.7452 141.283C42.0719 141.003 42.5119 140.863 43.0652 140.863C43.5919 140.863 44.0219 140.996 44.3552 141.263C44.6952 141.523 44.8919 141.896 44.9452 142.383H44.1152C44.0819 142.13 43.9719 141.933 43.7852 141.793C43.6052 141.646 43.3619 141.573 43.0552 141.573C42.7552 141.573 42.5219 141.636 42.3552 141.763C42.1952 141.89 42.1152 142.056 42.1152 142.263C42.1152 142.463 42.2186 142.62 42.4252 142.733C42.6386 142.846 42.9252 142.943 43.2852 143.023C43.5919 143.09 43.8819 143.173 44.1552 143.273C44.4352 143.366 44.6619 143.51 44.8352 143.703C45.0152 143.89 45.1052 144.163 45.1052 144.523C45.1119 144.97 44.9419 145.34 44.5952 145.633C44.2552 145.92 43.7919 146.063 43.2052 146.063ZM48.0406 145.943C47.5873 145.943 47.2306 145.833 46.9706 145.613C46.7106 145.393 46.5806 144.996 46.5806 144.423V141.693H45.7206V140.983H46.5806L46.6906 139.793H47.4206V140.983H48.8806V141.693H47.4206V144.423C47.4206 144.736 47.484 144.95 47.6106 145.063C47.7373 145.17 47.9606 145.223 48.2806 145.223H48.8006V145.943H48.0406ZM52.0411 146.063C51.5678 146.063 51.1478 145.956 50.7811 145.743C50.4144 145.523 50.1244 145.22 49.9111 144.833C49.7044 144.446 49.6011 143.99 49.6011 143.463C49.6011 142.943 49.7044 142.49 49.9111 142.103C50.1178 141.71 50.4044 141.406 50.7711 141.193C51.1444 140.973 51.5744 140.863 52.0611 140.863C52.5411 140.863 52.9544 140.973 53.3011 141.193C53.6544 141.406 53.9244 141.69 54.1111 142.043C54.2978 142.396 54.3911 142.776 54.3911 143.183C54.3911 143.256 54.3878 143.33 54.3811 143.403C54.3811 143.476 54.3811 143.56 54.3811 143.653H50.4311C50.4511 144.033 50.5378 144.35 50.6911 144.603C50.8511 144.85 51.0478 145.036 51.2811 145.163C51.5211 145.29 51.7744 145.353 52.0411 145.353C52.3878 145.353 52.6778 145.273 52.9111 145.113C53.1444 144.953 53.3144 144.736 53.4211 144.463H54.2511C54.1178 144.923 53.8611 145.306 53.4811 145.613C53.1078 145.913 52.6278 146.063 52.0411 146.063ZM52.0411 141.573C51.6411 141.573 51.2844 141.696 50.9711 141.943C50.6644 142.183 50.4878 142.536 50.4411 143.003H53.5611C53.5411 142.556 53.3878 142.206 53.1011 141.953C52.8144 141.7 52.4611 141.573 52.0411 141.573ZM55.5045 145.943V140.983H56.2645L56.3345 141.933C56.4878 141.606 56.7211 141.346 57.0345 141.153C57.3478 140.96 57.7345 140.863 58.1945 140.863V141.743H57.9645C57.6711 141.743 57.4011 141.796 57.1545 141.903C56.9078 142.003 56.7111 142.176 56.5645 142.423C56.4178 142.67 56.3445 143.01 56.3445 143.443V145.943H55.5045ZM61.2017 146.063C60.7084 146.063 60.2751 145.95 59.9017 145.723C59.5351 145.496 59.2484 145.186 59.0417 144.793C58.8417 144.4 58.7417 143.953 58.7417 143.453C58.7417 142.953 58.8451 142.51 59.0517 142.123C59.2584 141.73 59.5451 141.423 59.9117 141.203C60.2784 140.976 60.7117 140.863 61.2117 140.863C61.6184 140.863 61.9784 140.946 62.2917 141.113C62.6051 141.28 62.8484 141.513 63.0217 141.813V138.743H63.8617V145.943H63.1017L63.0217 145.123C62.8617 145.363 62.6317 145.58 62.3317 145.773C62.0317 145.966 61.6551 146.063 61.2017 146.063ZM61.2917 145.333C61.6251 145.333 61.9184 145.256 62.1717 145.103C62.4317 144.943 62.6317 144.723 62.7717 144.443C62.9184 144.163 62.9917 143.836 62.9917 143.463C62.9917 143.09 62.9184 142.763 62.7717 142.483C62.6317 142.203 62.4317 141.986 62.1717 141.833C61.9184 141.673 61.6251 141.593 61.2917 141.593C60.9651 141.593 60.6717 141.673 60.4117 141.833C60.1584 141.986 59.9584 142.203 59.8117 142.483C59.6717 142.763 59.6017 143.09 59.6017 143.463C59.6017 143.836 59.6717 144.163 59.8117 144.443C59.9584 144.723 60.1584 144.943 60.4117 145.103C60.6717 145.256 60.9651 145.333 61.2917 145.333ZM66.881 146.063C66.4677 146.063 66.1243 145.993 65.851 145.853C65.5777 145.713 65.3743 145.526 65.241 145.293C65.1077 145.06 65.041 144.806 65.041 144.533C65.041 144.026 65.2343 143.636 65.621 143.363C66.0077 143.09 66.5343 142.953 67.201 142.953H68.541V142.893C68.541 142.46 68.4277 142.133 68.201 141.913C67.9743 141.686 67.671 141.573 67.291 141.573C66.9643 141.573 66.681 141.656 66.441 141.823C66.2077 141.983 66.061 142.22 66.001 142.533H65.141C65.1743 142.173 65.2943 141.87 65.501 141.623C65.7143 141.376 65.9777 141.19 66.291 141.063C66.6043 140.93 66.9377 140.863 67.291 140.863C67.9843 140.863 68.5043 141.05 68.851 141.423C69.2043 141.79 69.381 142.28 69.381 142.893V145.943H68.631L68.581 145.053C68.441 145.333 68.2343 145.573 67.961 145.773C67.6943 145.966 67.3343 146.063 66.881 146.063ZM67.011 145.353C67.331 145.353 67.6043 145.27 67.831 145.103C68.0643 144.936 68.241 144.72 68.361 144.453C68.481 144.186 68.541 143.906 68.541 143.613V143.603H67.271C66.7777 143.603 66.4277 143.69 66.221 143.863C66.021 144.03 65.921 144.24 65.921 144.493C65.921 144.753 66.0143 144.963 66.201 145.123C66.3943 145.276 66.6643 145.353 67.011 145.353ZM71.0347 148.143L72.2647 145.463H71.9747L70.0047 140.983H70.9147L72.5547 144.843L74.2947 140.983H75.1647L71.9147 148.143H71.0347Z" fill="black"/>
<path opacity="0.4" d="M32.38 97.9429V91.6329H30.29V90.9429H35.31V91.6329H33.22V97.9429H32.38ZM37.6473 98.0629C37.1806 98.0629 36.7606 97.9562 36.3873 97.7429C36.0139 97.5295 35.7173 97.2295 35.4973 96.8429C35.2839 96.4495 35.1773 95.9895 35.1773 95.4629C35.1773 94.9362 35.2873 94.4795 35.5073 94.0929C35.7273 93.6995 36.0239 93.3962 36.3973 93.1829C36.7773 92.9695 37.2006 92.8629 37.6673 92.8629C38.1339 92.8629 38.5539 92.9695 38.9273 93.1829C39.3006 93.3962 39.5939 93.6995 39.8073 94.0929C40.0273 94.4795 40.1373 94.9362 40.1373 95.4629C40.1373 95.9895 40.0273 96.4495 39.8073 96.8429C39.5873 97.2295 39.2873 97.5295 38.9073 97.7429C38.5339 97.9562 38.1139 98.0629 37.6473 98.0629ZM37.6473 97.3429C37.9339 97.3429 38.2006 97.2729 38.4473 97.1329C38.6939 96.9929 38.8939 96.7829 39.0473 96.5029C39.2006 96.2229 39.2773 95.8762 39.2773 95.4629C39.2773 95.0495 39.2006 94.7029 39.0473 94.4229C38.9006 94.1429 38.7039 93.9329 38.4573 93.7929C38.2106 93.6529 37.9473 93.5829 37.6673 93.5829C37.3806 93.5829 37.1139 93.6529 36.8673 93.7929C36.6206 93.9329 36.4206 94.1429 36.2673 94.4229C36.1139 94.7029 36.0373 95.0495 36.0373 95.4629C36.0373 95.8762 36.1139 96.2229 36.2673 96.5029C36.4206 96.7829 36.6173 96.9929 36.8573 97.1329C37.1039 97.2729 37.3673 97.3429 37.6473 97.3429ZM43.5552 98.0629C43.0619 98.0629 42.6286 97.9495 42.2552 97.7229C41.8886 97.4962 41.6019 97.1862 41.3952 96.7929C41.1952 96.3995 41.0952 95.9529 41.0952 95.4529C41.0952 94.9529 41.1986 94.5095 41.4052 94.1229C41.6119 93.7295 41.8986 93.4229 42.2652 93.2029C42.6319 92.9762 43.0652 92.8629 43.5652 92.8629C43.9719 92.8629 44.3319 92.9462 44.6452 93.1129C44.9586 93.2795 45.2019 93.5129 45.3752 93.8129V90.7429H46.2152V97.9429H45.4552L45.3752 97.1229C45.2152 97.3629 44.9852 97.5795 44.6852 97.7729C44.3852 97.9662 44.0086 98.0629 43.5552 98.0629ZM43.6452 97.3329C43.9786 97.3329 44.2719 97.2562 44.5252 97.1029C44.7852 96.9429 44.9852 96.7229 45.1252 96.4429C45.2719 96.1629 45.3452 95.8362 45.3452 95.4629C45.3452 95.0895 45.2719 94.7629 45.1252 94.4829C44.9852 94.2029 44.7852 93.9862 44.5252 93.8329C44.2719 93.6729 43.9786 93.5929 43.6452 93.5929C43.3186 93.5929 43.0252 93.6729 42.7652 93.8329C42.5119 93.9862 42.3119 94.2029 42.1652 94.4829C42.0252 94.7629 41.9552 95.0895 41.9552 95.4629C41.9552 95.8362 42.0252 96.1629 42.1652 96.4429C42.3119 96.7229 42.5119 96.9429 42.7652 97.1029C43.0252 97.2562 43.3186 97.3329 43.6452 97.3329ZM49.2345 98.0629C48.8212 98.0629 48.4779 97.9929 48.2045 97.8529C47.9312 97.7129 47.7279 97.5262 47.5945 97.2929C47.4612 97.0595 47.3945 96.8062 47.3945 96.5329C47.3945 96.0262 47.5879 95.6362 47.9745 95.3629C48.3612 95.0895 48.8879 94.9529 49.5545 94.9529H50.8945V94.8929C50.8945 94.4595 50.7812 94.1329 50.5545 93.9129C50.3279 93.6862 50.0245 93.5729 49.6445 93.5729C49.3179 93.5729 49.0345 93.6562 48.7945 93.8229C48.5612 93.9829 48.4145 94.2195 48.3545 94.5329H47.4945C47.5279 94.1729 47.6479 93.8695 47.8545 93.6229C48.0679 93.3762 48.3312 93.1895 48.6445 93.0629C48.9579 92.9295 49.2912 92.8629 49.6445 92.8629C50.3379 92.8629 50.8579 93.0495 51.2045 93.4229C51.5579 93.7895 51.7345 94.2795 51.7345 94.8929V97.9429H50.9845L50.9345 97.0529C50.7945 97.3329 50.5879 97.5729 50.3145 97.7729C50.0479 97.9662 49.6879 98.0629 49.2345 98.0629ZM49.3645 97.3529C49.6845 97.3529 49.9579 97.2695 50.1845 97.1029C50.4179 96.9362 50.5945 96.7195 50.7145 96.4529C50.8345 96.1862 50.8945 95.9062 50.8945 95.6129V95.6029H49.6245C49.1312 95.6029 48.7812 95.6895 48.5745 95.8629C48.3745 96.0295 48.2745 96.2395 48.2745 96.4929C48.2745 96.7529 48.3679 96.9629 48.5545 97.1229C48.7479 97.2762 49.0179 97.3529 49.3645 97.3529ZM53.3882 100.143L54.6182 97.4629H54.3282L52.3582 92.9829H53.2682L54.9082 96.8429L56.6482 92.9829H57.5182L54.2682 100.143H53.3882Z" fill="black"/>
<g clip-path="url(#clip1)">
<path opacity="0.4" d="M108.28 325.5V319.44L107.15 319.69V319.11L108.56 318.5H109.13V325.5H108.28ZM108.362 340.62C107.742 340.62 107.206 340.47 106.752 340.17C106.306 339.863 105.962 339.44 105.722 338.9C105.482 338.353 105.362 337.72 105.362 337C105.362 336.28 105.482 335.65 105.722 335.11C105.962 334.563 106.306 334.14 106.752 333.84C107.206 333.533 107.742 333.38 108.362 333.38C108.982 333.38 109.516 333.533 109.962 333.84C110.409 334.14 110.752 334.563 110.992 335.11C111.232 335.65 111.352 336.28 111.352 337C111.352 337.72 111.232 338.353 110.992 338.9C110.752 339.44 110.409 339.863 109.962 340.17C109.516 340.47 108.982 340.62 108.362 340.62ZM108.362 339.88C108.769 339.88 109.132 339.767 109.452 339.54C109.779 339.307 110.032 338.977 110.212 338.55C110.399 338.117 110.492 337.6 110.492 337C110.492 336.4 110.399 335.887 110.212 335.46C110.032 335.033 109.779 334.707 109.452 334.48C109.132 334.247 108.769 334.13 108.362 334.13C107.949 334.13 107.582 334.247 107.262 334.48C106.942 334.707 106.689 335.033 106.502 335.46C106.316 335.887 106.222 336.4 106.222 337C106.222 337.6 106.316 338.117 106.502 338.55C106.689 338.977 106.942 339.307 107.262 339.54C107.582 339.767 107.949 339.88 108.362 339.88Z" fill="black"/>
<path opacity="0.4" d="M146.858 325.5V324.91C147.332 324.537 147.778 324.16 148.198 323.78C148.625 323.393 149.002 323.013 149.328 322.64C149.662 322.267 149.922 321.9 150.108 321.54C150.302 321.18 150.398 320.833 150.398 320.5C150.398 320.253 150.355 320.023 150.268 319.81C150.188 319.597 150.055 319.427 149.868 319.3C149.682 319.167 149.428 319.1 149.108 319.1C148.802 319.1 148.545 319.17 148.338 319.31C148.132 319.443 147.975 319.623 147.868 319.85C147.768 320.077 147.718 320.32 147.718 320.58H146.908C146.908 320.12 147.005 319.727 147.198 319.4C147.392 319.067 147.655 318.813 147.988 318.64C148.322 318.467 148.698 318.38 149.118 318.38C149.738 318.38 150.245 318.557 150.638 318.91C151.038 319.257 151.238 319.777 151.238 320.47C151.238 320.883 151.135 321.293 150.928 321.7C150.722 322.1 150.458 322.49 150.138 322.87C149.818 323.243 149.475 323.593 149.108 323.92C148.748 324.247 148.412 324.54 148.098 324.8H151.478V325.5H146.858ZM149.044 340.62C148.424 340.62 147.887 340.47 147.434 340.17C146.987 339.863 146.644 339.44 146.404 338.9C146.164 338.353 146.044 337.72 146.044 337C146.044 336.28 146.164 335.65 146.404 335.11C146.644 334.563 146.987 334.14 147.434 333.84C147.887 333.533 148.424 333.38 149.044 333.38C149.664 333.38 150.197 333.533 150.644 333.84C151.091 334.14 151.434 334.563 151.674 335.11C151.914 335.65 152.034 336.28 152.034 337C152.034 337.72 151.914 338.353 151.674 338.9C151.434 339.44 151.091 339.863 150.644 340.17C150.197 340.47 149.664 340.62 149.044 340.62ZM149.044 339.88C149.451 339.88 149.814 339.767 150.134 339.54C150.461 339.307 150.714 338.977 150.894 338.55C151.081 338.117 151.174 337.6 151.174 337C151.174 336.4 151.081 335.887 150.894 335.46C150.714 335.033 150.461 334.707 150.134 334.48C149.814 334.247 149.451 334.13 149.044 334.13C148.631 334.13 148.264 334.247 147.944 334.48C147.624 334.707 147.371 335.033 147.184 335.46C146.997 335.887 146.904 336.4 146.904 337C146.904 337.6 146.997 338.117 147.184 338.55C147.371 338.977 147.624 339.307 147.944 339.54C148.264 339.767 148.631 339.88 149.044 339.88Z" fill="black"/>
<path opacity="0.4" d="M190.076 325.62C189.63 325.62 189.226 325.54 188.866 325.38C188.506 325.213 188.216 324.967 187.996 324.64C187.783 324.313 187.67 323.907 187.656 323.42H188.506C188.513 323.82 188.653 324.167 188.926 324.46C189.2 324.747 189.583 324.89 190.076 324.89C190.57 324.89 190.94 324.753 191.186 324.48C191.44 324.207 191.566 323.877 191.566 323.49C191.566 323.163 191.486 322.897 191.326 322.69C191.173 322.483 190.963 322.33 190.696 322.23C190.436 322.13 190.15 322.08 189.836 322.08H189.316V321.37H189.836C190.29 321.37 190.643 321.267 190.896 321.06C191.156 320.853 191.286 320.563 191.286 320.19C191.286 319.877 191.183 319.62 190.976 319.42C190.776 319.213 190.476 319.11 190.076 319.11C189.69 319.11 189.38 319.227 189.146 319.46C188.913 319.687 188.783 319.973 188.756 320.32H187.906C187.926 319.94 188.026 319.603 188.206 319.31C188.393 319.017 188.646 318.79 188.966 318.63C189.286 318.463 189.656 318.38 190.076 318.38C190.53 318.38 190.906 318.46 191.206 318.62C191.513 318.78 191.743 318.993 191.896 319.26C192.056 319.527 192.136 319.82 192.136 320.14C192.136 320.493 192.04 320.817 191.846 321.11C191.653 321.397 191.363 321.59 190.976 321.69C191.39 321.777 191.733 321.973 192.006 322.28C192.28 322.587 192.416 322.99 192.416 323.49C192.416 323.877 192.326 324.233 192.146 324.56C191.973 324.88 191.713 325.137 191.366 325.33C191.02 325.523 190.59 325.62 190.076 325.62ZM190.099 340.62C189.479 340.62 188.942 340.47 188.489 340.17C188.042 339.863 187.699 339.44 187.459 338.9C187.219 338.353 187.099 337.72 187.099 337C187.099 336.28 187.219 335.65 187.459 335.11C187.699 334.563 188.042 334.14 188.489 333.84C188.942 333.533 189.479 333.38 190.099 333.38C190.719 333.38 191.252 333.533 191.699 333.84C192.146 334.14 192.489 334.563 192.729 335.11C192.969 335.65 193.089 336.28 193.089 337C193.089 337.72 192.969 338.353 192.729 338.9C192.489 339.44 192.146 339.863 191.699 340.17C191.252 340.47 190.719 340.62 190.099 340.62ZM190.099 339.88C190.506 339.88 190.869 339.767 191.189 339.54C191.516 339.307 191.769 338.977 191.949 338.55C192.136 338.117 192.229 337.6 192.229 337C192.229 336.4 192.136 335.887 191.949 335.46C191.769 335.033 191.516 334.707 191.189 334.48C190.869 334.247 190.506 334.13 190.099 334.13C189.686 334.13 189.319 334.247 188.999 334.48C188.679 334.707 188.426 335.033 188.239 335.46C188.052 335.887 187.959 336.4 187.959 337C187.959 337.6 188.052 338.117 188.239 338.55C188.426 338.977 188.679 339.307 188.999 339.54C189.319 339.767 189.686 339.88 190.099 339.88Z" fill="black"/>
<path opacity="0.4" d="M232.033 325.5V324H228.483V323.35L231.883 318.5H232.863V323.26H233.903V324H232.863V325.5H232.033ZM229.413 323.26H232.073V319.43L229.413 323.26ZM231.154 340.62C230.534 340.62 229.997 340.47 229.544 340.17C229.097 339.863 228.754 339.44 228.514 338.9C228.274 338.353 228.154 337.72 228.154 337C228.154 336.28 228.274 335.65 228.514 335.11C228.754 334.563 229.097 334.14 229.544 333.84C229.997 333.533 230.534 333.38 231.154 333.38C231.774 333.38 232.307 333.533 232.754 333.84C233.201 334.14 233.544 334.563 233.784 335.11C234.024 335.65 234.144 336.28 234.144 337C234.144 337.72 234.024 338.353 233.784 338.9C233.544 339.44 233.201 339.863 232.754 340.17C232.307 340.47 231.774 340.62 231.154 340.62ZM231.154 339.88C231.561 339.88 231.924 339.767 232.244 339.54C232.571 339.307 232.824 338.977 233.004 338.55C233.191 338.117 233.284 337.6 233.284 337C233.284 336.4 233.191 335.887 233.004 335.46C232.824 335.033 232.571 334.707 232.244 334.48C231.924 334.247 231.561 334.13 231.154 334.13C230.741 334.13 230.374 334.247 230.054 334.48C229.734 334.707 229.481 335.033 229.294 335.46C229.107 335.887 229.014 336.4 229.014 337C229.014 337.6 229.107 338.117 229.294 338.55C229.481 338.977 229.734 339.307 230.054 339.54C230.374 339.767 230.741 339.88 231.154 339.88Z" fill="black"/>
<path opacity="0.4" d="M272.264 325.62C271.784 325.62 271.367 325.533 271.014 325.36C270.661 325.187 270.377 324.95 270.164 324.65C269.957 324.343 269.831 323.997 269.784 323.61H270.604C270.684 323.997 270.871 324.31 271.164 324.55C271.457 324.783 271.827 324.9 272.274 324.9C272.607 324.9 272.894 324.823 273.134 324.67C273.374 324.51 273.557 324.297 273.684 324.03C273.817 323.763 273.884 323.467 273.884 323.14C273.884 322.62 273.737 322.2 273.444 321.88C273.151 321.56 272.771 321.4 272.304 321.4C271.917 321.4 271.587 321.487 271.314 321.66C271.041 321.833 270.841 322.06 270.714 322.34H269.914L270.514 318.5H274.184V319.23H271.164L270.754 321.36C270.914 321.167 271.134 321.007 271.414 320.88C271.701 320.753 272.027 320.69 272.394 320.69C272.854 320.69 273.254 320.797 273.594 321.01C273.941 321.223 274.211 321.513 274.404 321.88C274.597 322.247 274.694 322.663 274.694 323.13C274.694 323.577 274.597 323.99 274.404 324.37C274.217 324.75 273.941 325.053 273.574 325.28C273.214 325.507 272.777 325.62 272.264 325.62ZM272.209 340.62C271.589 340.62 271.052 340.47 270.599 340.17C270.152 339.863 269.809 339.44 269.569 338.9C269.329 338.353 269.209 337.72 269.209 337C269.209 336.28 269.329 335.65 269.569 335.11C269.809 334.563 270.152 334.14 270.599 333.84C271.052 333.533 271.589 333.38 272.209 333.38C272.829 333.38 273.362 333.533 273.809 333.84C274.256 334.14 274.599 334.563 274.839 335.11C275.079 335.65 275.199 336.28 275.199 337C275.199 337.72 275.079 338.353 274.839 338.9C274.599 339.44 274.256 339.863 273.809 340.17C273.362 340.47 272.829 340.62 272.209 340.62ZM272.209 339.88C272.616 339.88 272.979 339.767 273.299 339.54C273.626 339.307 273.879 338.977 274.059 338.55C274.246 338.117 274.339 337.6 274.339 337C274.339 336.4 274.246 335.887 274.059 335.46C273.879 335.033 273.626 334.707 273.299 334.48C272.979 334.247 272.616 334.13 272.209 334.13C271.796 334.13 271.429 334.247 271.109 334.48C270.789 334.707 270.536 335.033 270.349 335.46C270.162 335.887 270.069 336.4 270.069 337C270.069 337.6 270.162 338.117 270.349 338.55C270.536 338.977 270.789 339.307 271.109 339.54C271.429 339.767 271.796 339.88 272.209 339.88Z" fill="black"/>
<path opacity="0.4" d="M313.371 325.62C312.865 325.62 312.438 325.527 312.091 325.34C311.745 325.147 311.465 324.89 311.251 324.57C311.045 324.25 310.891 323.893 310.791 323.5C310.698 323.1 310.651 322.693 310.651 322.28C310.651 321.507 310.758 320.83 310.971 320.25C311.185 319.663 311.491 319.207 311.891 318.88C312.298 318.547 312.788 318.38 313.361 318.38C313.801 318.38 314.178 318.467 314.491 318.64C314.805 318.813 315.051 319.047 315.231 319.34C315.418 319.627 315.535 319.947 315.581 320.3H314.801C314.728 319.92 314.565 319.627 314.311 319.42C314.058 319.213 313.738 319.11 313.351 319.11C312.825 319.11 312.381 319.36 312.021 319.86C311.668 320.353 311.478 321.127 311.451 322.18C311.611 321.867 311.865 321.597 312.211 321.37C312.565 321.137 312.988 321.02 313.481 321.02C313.881 321.02 314.255 321.113 314.601 321.3C314.955 321.487 315.241 321.75 315.461 322.09C315.681 322.423 315.791 322.817 315.791 323.27C315.791 323.663 315.695 324.04 315.501 324.4C315.308 324.76 315.028 325.053 314.661 325.28C314.301 325.507 313.871 325.62 313.371 325.62ZM313.311 324.88C313.625 324.88 313.905 324.813 314.151 324.68C314.398 324.547 314.591 324.363 314.731 324.13C314.871 323.89 314.941 323.617 314.941 323.31C314.941 322.837 314.785 322.46 314.471 322.18C314.165 321.893 313.778 321.75 313.311 321.75C312.998 321.75 312.718 321.823 312.471 321.97C312.225 322.11 312.028 322.3 311.881 322.54C311.741 322.78 311.671 323.04 311.671 323.32C311.671 323.62 311.741 323.89 311.881 324.13C312.028 324.363 312.225 324.547 312.471 324.68C312.718 324.813 312.998 324.88 313.311 324.88ZM313.264 340.62C312.644 340.62 312.107 340.47 311.654 340.17C311.207 339.863 310.864 339.44 310.624 338.9C310.384 338.353 310.264 337.72 310.264 337C310.264 336.28 310.384 335.65 310.624 335.11C310.864 334.563 311.207 334.14 311.654 333.84C312.107 333.533 312.644 333.38 313.264 333.38C313.884 333.38 314.417 333.533 314.864 333.84C315.31 334.14 315.654 334.563 315.894 335.11C316.134 335.65 316.254 336.28 316.254 337C316.254 337.72 316.134 338.353 315.894 338.9C315.654 339.44 315.31 339.863 314.864 340.17C314.417 340.47 313.884 340.62 313.264 340.62ZM313.264 339.88C313.67 339.88 314.034 339.767 314.354 339.54C314.68 339.307 314.934 338.977 315.114 338.55C315.3 338.117 315.394 337.6 315.394 337C315.394 336.4 315.3 335.887 315.114 335.46C314.934 335.033 314.68 334.707 314.354 334.48C314.034 334.247 313.67 334.13 313.264 334.13C312.85 334.13 312.484 334.247 312.164 334.48C311.844 334.707 311.59 335.033 311.404 335.46C311.217 335.887 311.124 336.4 311.124 337C311.124 337.6 311.217 338.117 311.404 338.55C311.59 338.977 311.844 339.307 312.164 339.54C312.484 339.767 312.85 339.88 313.264 339.88Z" fill="black"/>
<path opacity="0.4" d="M353.784 325.5L356.564 319.22H352.724V318.5H357.424V319.13L354.674 325.5H353.784ZM355.065 340.62C354.445 340.62 353.909 340.47 353.455 340.17C353.009 339.863 352.665 339.44 352.425 338.9C352.185 338.353 352.065 337.72 352.065 337C352.065 336.28 352.185 335.65 352.425 335.11C352.665 334.563 353.009 334.14 353.455 333.84C353.909 333.533 354.445 333.38 355.065 333.38C355.685 333.38 356.219 333.533 356.665 333.84C357.112 334.14 357.455 334.563 357.695 335.11C357.935 335.65 358.055 336.28 358.055 337C358.055 337.72 357.935 338.353 357.695 338.9C357.455 339.44 357.112 339.863 356.665 340.17C356.219 340.47 355.685 340.62 355.065 340.62ZM355.065 339.88C355.472 339.88 355.835 339.767 356.155 339.54C356.482 339.307 356.735 338.977 356.915 338.55C357.102 338.117 357.195 337.6 357.195 337C357.195 336.4 357.102 335.887 356.915 335.46C356.735 335.033 356.482 334.707 356.155 334.48C355.835 334.247 355.472 334.13 355.065 334.13C354.652 334.13 354.285 334.247 353.965 334.48C353.645 334.707 353.392 335.033 353.205 335.46C353.019 335.887 352.925 336.4 352.925 337C352.925 337.6 353.019 338.117 353.205 338.55C353.392 338.977 353.645 339.307 353.965 339.54C354.285 339.767 354.652 339.88 355.065 339.88Z" fill="black"/>
<path opacity="0.4" d="M396.115 325.62C395.655 325.62 395.242 325.537 394.875 325.37C394.509 325.197 394.219 324.96 394.005 324.66C393.799 324.353 393.695 324 393.695 323.6C393.695 323.173 393.819 322.79 394.065 322.45C394.319 322.11 394.652 321.883 395.065 321.77C394.685 321.643 394.392 321.44 394.185 321.16C393.979 320.88 393.875 320.573 393.875 320.24C393.875 319.9 393.965 319.59 394.145 319.31C394.325 319.023 394.582 318.797 394.915 318.63C395.249 318.463 395.649 318.38 396.115 318.38C396.582 318.38 396.982 318.463 397.315 318.63C397.649 318.797 397.905 319.023 398.085 319.31C398.265 319.59 398.355 319.9 398.355 320.24C398.355 320.567 398.252 320.873 398.045 321.16C397.839 321.44 397.545 321.643 397.165 321.77C397.579 321.883 397.909 322.11 398.155 322.45C398.409 322.79 398.535 323.173 398.535 323.6C398.535 324 398.429 324.353 398.215 324.66C398.009 324.96 397.722 325.197 397.355 325.37C396.989 325.537 396.575 325.62 396.115 325.62ZM396.115 321.47C396.542 321.47 396.879 321.363 397.125 321.15C397.379 320.93 397.505 320.643 397.505 320.29C397.505 319.897 397.382 319.6 397.135 319.4C396.889 319.2 396.549 319.1 396.115 319.1C395.682 319.1 395.342 319.2 395.095 319.4C394.855 319.6 394.735 319.897 394.735 320.29C394.735 320.643 394.859 320.93 395.105 321.15C395.352 321.363 395.689 321.47 396.115 321.47ZM396.115 324.88C396.642 324.88 397.035 324.76 397.295 324.52C397.562 324.273 397.695 323.95 397.695 323.55C397.695 323.097 397.552 322.753 397.265 322.52C396.979 322.287 396.595 322.17 396.115 322.17C395.635 322.17 395.252 322.287 394.965 322.52C394.679 322.753 394.535 323.097 394.535 323.55C394.535 323.95 394.665 324.273 394.925 324.52C395.192 324.76 395.589 324.88 396.115 324.88ZM396.12 340.62C395.5 340.62 394.964 340.47 394.51 340.17C394.064 339.863 393.72 339.44 393.48 338.9C393.24 338.353 393.12 337.72 393.12 337C393.12 336.28 393.24 335.65 393.48 335.11C393.72 334.563 394.064 334.14 394.51 333.84C394.964 333.533 395.5 333.38 396.12 333.38C396.74 333.38 397.274 333.533 397.72 333.84C398.167 334.14 398.51 334.563 398.75 335.11C398.99 335.65 399.11 336.28 399.11 337C399.11 337.72 398.99 338.353 398.75 338.9C398.51 339.44 398.167 339.863 397.72 340.17C397.274 340.47 396.74 340.62 396.12 340.62ZM396.12 339.88C396.527 339.88 396.89 339.767 397.21 339.54C397.537 339.307 397.79 338.977 397.97 338.55C398.157 338.117 398.25 337.6 398.25 337C398.25 336.4 398.157 335.887 397.97 335.46C397.79 335.033 397.537 334.707 397.21 334.48C396.89 334.247 396.527 334.13 396.12 334.13C395.707 334.13 395.34 334.247 395.02 334.48C394.7 334.707 394.447 335.033 394.26 335.46C394.074 335.887 393.98 336.4 393.98 337C393.98 337.6 394.074 338.117 394.26 338.55C394.447 338.977 394.7 339.307 395.02 339.54C395.34 339.767 395.707 339.88 396.12 339.88Z" fill="black"/>
<path opacity="0.4" d="M437.073 325.62C436.633 325.62 436.256 325.533 435.943 325.36C435.629 325.187 435.379 324.957 435.193 324.67C435.013 324.377 434.903 324.053 434.863 323.7H435.643C435.709 324.08 435.869 324.373 436.123 324.58C436.376 324.787 436.696 324.89 437.083 324.89C437.616 324.89 438.059 324.643 438.413 324.15C438.766 323.65 438.956 322.873 438.983 321.82C438.823 322.133 438.566 322.407 438.213 322.64C437.866 322.867 437.446 322.98 436.953 322.98C436.559 322.98 436.186 322.887 435.833 322.7C435.479 322.513 435.193 322.253 434.973 321.92C434.753 321.58 434.643 321.183 434.643 320.73C434.643 320.337 434.739 319.96 434.933 319.6C435.133 319.24 435.413 318.947 435.773 318.72C436.133 318.493 436.563 318.38 437.063 318.38C437.569 318.38 437.996 318.477 438.343 318.67C438.689 318.857 438.966 319.11 439.173 319.43C439.386 319.75 439.539 320.11 439.633 320.51C439.733 320.903 439.783 321.307 439.783 321.72C439.783 322.493 439.676 323.173 439.463 323.76C439.249 324.34 438.939 324.797 438.533 325.13C438.133 325.457 437.646 325.62 437.073 325.62ZM437.123 322.25C437.436 322.25 437.716 322.18 437.963 322.04C438.209 321.893 438.406 321.7 438.553 321.46C438.699 321.22 438.773 320.96 438.773 320.68C438.773 320.38 438.699 320.113 438.553 319.88C438.406 319.64 438.209 319.453 437.963 319.32C437.716 319.187 437.436 319.12 437.123 319.12C436.809 319.12 436.529 319.187 436.283 319.32C436.036 319.453 435.843 319.64 435.703 319.88C435.563 320.113 435.493 320.383 435.493 320.69C435.493 321.163 435.646 321.543 435.953 321.83C436.266 322.11 436.656 322.25 437.123 322.25ZM437.175 340.62C436.555 340.62 436.019 340.47 435.565 340.17C435.119 339.863 434.775 339.44 434.535 338.9C434.295 338.353 434.175 337.72 434.175 337C434.175 336.28 434.295 335.65 434.535 335.11C434.775 334.563 435.119 334.14 435.565 333.84C436.019 333.533 436.555 333.38 437.175 333.38C437.795 333.38 438.329 333.533 438.775 333.84C439.222 334.14 439.565 334.563 439.805 335.11C440.045 335.65 440.165 336.28 440.165 337C440.165 337.72 440.045 338.353 439.805 338.9C439.565 339.44 439.222 339.863 438.775 340.17C438.329 340.47 437.795 340.62 437.175 340.62ZM437.175 339.88C437.582 339.88 437.945 339.767 438.265 339.54C438.592 339.307 438.845 338.977 439.025 338.55C439.212 338.117 439.305 337.6 439.305 337C439.305 336.4 439.212 335.887 439.025 335.46C438.845 335.033 438.592 334.707 438.265 334.48C437.945 334.247 437.582 334.13 437.175 334.13C436.762 334.13 436.395 334.247 436.075 334.48C435.755 334.707 435.502 335.033 435.315 335.46C435.129 335.887 435.035 336.4 435.035 337C435.035 337.6 435.129 338.117 435.315 338.55C435.502 338.977 435.755 339.307 436.075 339.54C436.395 339.767 436.762 339.88 437.175 339.88Z" fill="black"/>
<path opacity="0.4" d="M473.188 325.5V319.44L472.058 319.69V319.11L473.468 318.5H474.038V325.5H473.188ZM478.246 325.62C477.626 325.62 477.089 325.47 476.636 325.17C476.189 324.863 475.846 324.44 475.606 323.9C475.366 323.353 475.246 322.72 475.246 322C475.246 321.28 475.366 320.65 475.606 320.11C475.846 319.563 476.189 319.14 476.636 318.84C477.089 318.533 477.626 318.38 478.246 318.38C478.866 318.38 479.399 318.533 479.846 318.84C480.293 319.14 480.636 319.563 480.876 320.11C481.116 320.65 481.236 321.28 481.236 322C481.236 322.72 481.116 323.353 480.876 323.9C480.636 324.44 480.293 324.863 479.846 325.17C479.399 325.47 478.866 325.62 478.246 325.62ZM478.246 324.88C478.653 324.88 479.016 324.767 479.336 324.54C479.663 324.307 479.916 323.977 480.096 323.55C480.283 323.117 480.376 322.6 480.376 322C480.376 321.4 480.283 320.887 480.096 320.46C479.916 320.033 479.663 319.707 479.336 319.48C479.016 319.247 478.653 319.13 478.246 319.13C477.833 319.13 477.466 319.247 477.146 319.48C476.826 319.707 476.573 320.033 476.386 320.46C476.199 320.887 476.106 321.4 476.106 322C476.106 322.6 476.199 323.117 476.386 323.55C476.573 323.977 476.826 324.307 477.146 324.54C477.466 324.767 477.833 324.88 478.246 324.88ZM476.737 340.62C476.117 340.62 475.581 340.47 475.127 340.17C474.681 339.863 474.337 339.44 474.097 338.9C473.857 338.353 473.737 337.72 473.737 337C473.737 336.28 473.857 335.65 474.097 335.11C474.337 334.563 474.681 334.14 475.127 333.84C475.581 333.533 476.117 333.38 476.737 333.38C477.357 333.38 477.891 333.533 478.337 333.84C478.784 334.14 479.127 334.563 479.367 335.11C479.607 335.65 479.727 336.28 479.727 337C479.727 337.72 479.607 338.353 479.367 338.9C479.127 339.44 478.784 339.863 478.337 340.17C477.891 340.47 477.357 340.62 476.737 340.62ZM476.737 339.88C477.144 339.88 477.507 339.767 477.827 339.54C478.154 339.307 478.407 338.977 478.587 338.55C478.774 338.117 478.867 337.6 478.867 337C478.867 336.4 478.774 335.887 478.587 335.46C478.407 335.033 478.154 334.707 477.827 334.48C477.507 334.247 477.144 334.13 476.737 334.13C476.324 334.13 475.957 334.247 475.637 334.48C475.317 334.707 475.064 335.033 474.877 335.46C474.691 335.887 474.597 336.4 474.597 337C474.597 337.6 474.691 338.117 474.877 338.55C475.064 338.977 475.317 339.307 475.637 339.54C475.957 339.767 476.324 339.88 476.737 339.88Z" fill="black"/>
<path opacity="0.4" d="M510.262 325.5V319.44L509.132 319.69V319.11L510.542 318.5H511.112V325.5H510.262ZM514.969 325.62C514.489 325.62 514.073 325.533 513.719 325.36C513.366 325.187 513.083 324.95 512.869 324.65C512.663 324.343 512.536 323.997 512.489 323.61H513.309C513.389 323.997 513.576 324.31 513.869 324.55C514.163 324.783 514.533 324.9 514.979 324.9C515.313 324.9 515.599 324.823 515.839 324.67C516.079 324.51 516.263 324.297 516.389 324.03C516.523 323.763 516.589 323.467 516.589 323.14C516.589 322.62 516.443 322.2 516.149 321.88C515.856 321.56 515.476 321.4 515.009 321.4C514.623 321.4 514.293 321.487 514.019 321.66C513.746 321.833 513.546 322.06 513.419 322.34H512.619L513.219 318.5H516.889V319.23H513.869L513.459 321.36C513.619 321.167 513.839 321.007 514.119 320.88C514.406 320.753 514.733 320.69 515.099 320.69C515.559 320.69 515.959 320.797 516.299 321.01C516.646 321.223 516.916 321.513 517.109 321.88C517.303 322.247 517.399 322.663 517.399 323.13C517.399 323.577 517.303 323.99 517.109 324.37C516.923 324.75 516.646 325.053 516.279 325.28C515.919 325.507 515.483 325.62 514.969 325.62ZM521.442 325.62C520.822 325.62 520.286 325.47 519.832 325.17C519.386 324.863 519.042 324.44 518.802 323.9C518.562 323.353 518.442 322.72 518.442 322C518.442 321.28 518.562 320.65 518.802 320.11C519.042 319.563 519.386 319.14 519.832 318.84C520.286 318.533 520.822 318.38 521.442 318.38C522.062 318.38 522.596 318.533 523.042 318.84C523.489 319.14 523.832 319.563 524.072 320.11C524.312 320.65 524.432 321.28 524.432 322C524.432 322.72 524.312 323.353 524.072 323.9C523.832 324.44 523.489 324.863 523.042 325.17C522.596 325.47 522.062 325.62 521.442 325.62ZM521.442 324.88C521.849 324.88 522.212 324.767 522.532 324.54C522.859 324.307 523.112 323.977 523.292 323.55C523.479 323.117 523.572 322.6 523.572 322C523.572 321.4 523.479 320.887 523.292 320.46C523.112 320.033 522.859 319.707 522.532 319.48C522.212 319.247 521.849 319.13 521.442 319.13C521.029 319.13 520.662 319.247 520.342 319.48C520.022 319.707 519.769 320.033 519.582 320.46C519.396 320.887 519.302 321.4 519.302 322C519.302 322.6 519.396 323.117 519.582 323.55C519.769 323.977 520.022 324.307 520.342 324.54C520.662 324.767 521.029 324.88 521.442 324.88Z" fill="black"/>
</g>
<path fill-rule="evenodd" clip-rule="evenodd" d="M104 93.9429C104 90.6292 106.686 87.9429 110 87.9429H519.885C523.198 87.9429 525.885 90.6292 525.885 93.9429C525.885 97.2566 523.198 99.9429 519.885 99.9429H110C106.686 99.9429 104 97.2566 104 93.9429Z" fill="#A1B3D1"/>
<path fill-rule="evenodd" clip-rule="evenodd" d="M104 93.9429C104 90.6292 106.686 87.9429 110 87.9429H460.912C464.225 87.9429 466.912 90.6292 466.912 93.9429C466.912 97.2566 464.225 99.9429 460.912 99.9429H110C106.686 99.9429 104 97.2566 104 93.9429Z" fill="#053582"/>
<path fill-rule="evenodd" clip-rule="evenodd" d="M104 141.943C104 138.629 106.686 135.943 110 135.943H519.885C523.198 135.943 525.885 138.629 525.885 141.943C525.885 145.257 523.198 147.943 519.885 147.943H110C106.686 147.943 104 145.257 104 141.943Z" fill="#A1B3D1"/>
<path fill-rule="evenodd" clip-rule="evenodd" d="M104 141.943C104 138.629 106.686 135.943 110 135.943H343.721C347.035 135.943 349.721 138.629 349.721 141.943C349.721 145.257 347.035 147.943 343.721 147.943H110C106.686 147.943 104 145.257 104 141.943Z" fill="#053582"/>
<path fill-rule="evenodd" clip-rule="evenodd" d="M104 189.943C104 186.629 106.686 183.943 110 183.943H519.885C523.198 183.943 525.885 186.629 525.885 189.943C525.885 193.257 523.198 195.943 519.885 195.943H110C106.686 195.943 104 193.257 104 189.943Z" fill="#A1B3D1"/>
<path fill-rule="evenodd" clip-rule="evenodd" d="M104 189.943C104 186.629 106.686 183.943 110 183.943H389.085C392.399 183.943 395.085 186.629 395.085 189.943C395.085 193.257 392.399 195.943 389.085 195.943H110C106.686 195.943 104 193.257 104 189.943Z" fill="#053582"/>
<path fill-rule="evenodd" clip-rule="evenodd" d="M104 237.943C104 234.629 106.686 231.943 110 231.943H519.885C523.198 231.943 525.885 234.629 525.885 237.943C525.885 241.257 523.198 243.943 519.885 243.943H110C106.686 243.943 104 241.257 104 237.943Z" fill="#A1B3D1"/>
<path fill-rule="evenodd" clip-rule="evenodd" d="M104 237.943C104 234.629 106.686 231.943 110 231.943H271.895C275.209 231.943 277.895 234.629 277.895 237.943C277.895 241.257 275.209 243.943 271.895 243.943H110C106.686 243.943 104 241.257 104 237.943Z" fill="#053582"/>
<path fill-rule="evenodd" clip-rule="evenodd" d="M104 285.943C104 282.629 106.686 279.943 110 279.943H519.885C523.198 279.943 525.885 282.629 525.885 285.943C525.885 289.257 523.198 291.943 519.885 291.943H110C106.686 291.943 104 289.257 104 285.943Z" fill="#A1B3D1"/>
<path fill-rule="evenodd" clip-rule="evenodd" d="M104 285.943C104 282.629 106.686 279.943 110 279.943H429.157C432.471 279.943 435.157 282.629 435.157 285.943C435.157 289.257 432.471 291.943 429.157 291.943H110C106.686 291.943 104 289.257 104 285.943Z" fill="#053582"/>
<path d="M31.562 51.9429V36.5429H36.556C38.36 36.5429 39.8413 36.8582 41 37.4889C42.1733 38.1195 43.0387 39.0142 43.596 40.1729C44.168 41.3169 44.454 42.6809 44.454 44.2649C44.454 45.8342 44.168 47.1982 43.596 48.3569C43.0387 49.5009 42.1733 50.3882 41 51.0189C39.8413 51.6349 38.36 51.9429 36.556 51.9429H31.562ZM33.894 49.9629H36.468C37.8613 49.9629 38.9613 49.7355 39.768 49.2809C40.5893 48.8262 41.176 48.1735 41.528 47.3229C41.8947 46.4722 42.078 45.4529 42.078 44.2649C42.078 43.0769 41.8947 42.0502 41.528 41.1849C41.176 40.3195 40.5893 39.6595 39.768 39.2049C38.9613 38.7355 37.8613 38.5009 36.468 38.5009H33.894V49.9629ZM52.0468 52.2069C50.9761 52.2069 50.0228 51.9722 49.1868 51.5029C48.3654 51.0189 47.7201 50.3515 47.2508 49.5009C46.7814 48.6502 46.5468 47.6602 46.5468 46.5309C46.5468 45.3869 46.7741 44.3822 47.2288 43.5169C47.6981 42.6515 48.3434 41.9769 49.1648 41.4929C50.0008 41.0089 50.9688 40.7669 52.0688 40.7669C53.1394 40.7669 54.0708 41.0089 54.8628 41.4929C55.6548 41.9622 56.2708 42.5929 56.7108 43.3849C57.1508 44.1769 57.3708 45.0495 57.3708 46.0029C57.3708 46.1495 57.3634 46.3109 57.3488 46.4869C57.3488 46.6482 57.3414 46.8315 57.3268 47.0369H48.8348C48.9081 48.0929 49.2528 48.8995 49.8688 49.4569C50.4994 49.9995 51.2254 50.2709 52.0468 50.2709C52.7068 50.2709 53.2568 50.1242 53.6968 49.8309C54.1514 49.5229 54.4888 49.1122 54.7088 48.5989H57.0408C56.7474 49.6255 56.1608 50.4835 55.2808 51.1729C54.4154 51.8622 53.3374 52.2069 52.0468 52.2069ZM52.0468 42.6809C51.2694 42.6809 50.5801 42.9155 49.9788 43.3849C49.3774 43.8395 49.0108 44.5289 48.8788 45.4529H55.0388C54.9948 44.6022 54.6941 43.9275 54.1368 43.4289C53.5794 42.9302 52.8828 42.6809 52.0468 42.6809ZM59.7904 51.9429V36.1029H62.1224V51.9429H59.7904ZM66.3956 38.9629C65.9556 38.9629 65.5889 38.8309 65.2956 38.5669C65.0169 38.2882 64.8776 37.9435 64.8776 37.5329C64.8776 37.1222 65.0169 36.7849 65.2956 36.5209C65.5889 36.2422 65.9556 36.1029 66.3956 36.1029C66.8356 36.1029 67.1949 36.2422 67.4736 36.5209C67.7669 36.7849 67.9136 37.1222 67.9136 37.5329C67.9136 37.9435 67.7669 38.2882 67.4736 38.5669C67.1949 38.8309 66.8356 38.9629 66.3956 38.9629ZM65.2296 51.9429V41.0309H67.5616V51.9429H65.2296ZM73.698 51.9429L69.606 41.0309H72.048L75.084 49.7209L78.12 41.0309H80.54L76.47 51.9429H73.698ZM87.0018 52.2069C85.9312 52.2069 84.9778 51.9722 84.1418 51.5029C83.3205 51.0189 82.6752 50.3515 82.2058 49.5009C81.7365 48.6502 81.5018 47.6602 81.5018 46.5309C81.5018 45.3869 81.7292 44.3822 82.1838 43.5169C82.6532 42.6515 83.2985 41.9769 84.1198 41.4929C84.9558 41.0089 85.9238 40.7669 87.0238 40.7669C88.0945 40.7669 89.0258 41.0089 89.8178 41.4929C90.6098 41.9622 91.2258 42.5929 91.6658 43.3849C92.1058 44.1769 92.3258 45.0495 92.3258 46.0029C92.3258 46.1495 92.3185 46.3109 92.3038 46.4869C92.3038 46.6482 92.2965 46.8315 92.2818 47.0369H83.7898C83.8632 48.0929 84.2078 48.8995 84.8238 49.4569C85.4545 49.9995 86.1805 50.2709 87.0018 50.2709C87.6618 50.2709 88.2118 50.1242 88.6518 49.8309C89.1065 49.5229 89.4438 49.1122 89.6638 48.5989H91.9958C91.7025 49.6255 91.1158 50.4835 90.2358 51.1729C89.3705 51.8622 88.2925 52.2069 87.0018 52.2069ZM87.0018 42.6809C86.2245 42.6809 85.5352 42.9155 84.9338 43.3849C84.3325 43.8395 83.9658 44.5289 83.8338 45.4529H89.9938C89.9498 44.6022 89.6492 43.9275 89.0918 43.4289C88.5345 42.9302 87.8378 42.6809 87.0018 42.6809ZM94.7455 51.9429V41.0309H96.8355L97.0335 43.0989C97.4148 42.3802 97.9428 41.8155 98.6175 41.4049C99.3068 40.9795 100.135 40.7669 101.103 40.7669V43.2089H100.465C99.8202 43.2089 99.2408 43.3189 98.7275 43.5389C98.2288 43.7442 97.8255 44.1035 97.5175 44.6169C97.2242 45.1155 97.0775 45.8122 97.0775 46.7069V51.9429H94.7455ZM107.906 52.2069C106.835 52.2069 105.882 51.9722 105.046 51.5029C104.225 51.0189 103.579 50.3515 103.11 49.5009C102.641 48.6502 102.406 47.6602 102.406 46.5309C102.406 45.3869 102.633 44.3822 103.088 43.5169C103.557 42.6515 104.203 41.9769 105.024 41.4929C105.86 41.0089 106.828 40.7669 107.928 40.7669C108.999 40.7669 109.93 41.0089 110.722 41.4929C111.514 41.9622 112.13 42.5929 112.57 43.3849C113.01 44.1769 113.23 45.0495 113.23 46.0029C113.23 46.1495 113.223 46.3109 113.208 46.4869C113.208 46.6482 113.201 46.8315 113.186 47.0369H104.694C104.767 48.0929 105.112 48.8995 105.728 49.4569C106.359 49.9995 107.085 50.2709 107.906 50.2709C108.566 50.2709 109.116 50.1242 109.556 49.8309C110.011 49.5229 110.348 49.1122 110.568 48.5989H112.9C112.607 49.6255 112.02 50.4835 111.14 51.1729C110.275 51.8622 109.197 52.2069 107.906 52.2069ZM107.906 42.6809C107.129 42.6809 106.439 42.9155 105.838 43.3849C105.237 43.8395 104.87 44.5289 104.738 45.4529H110.898C110.854 44.6022 110.553 43.9275 109.996 43.4289C109.439 42.9302 108.742 42.6809 107.906 42.6809ZM120.622 52.2069C119.566 52.2069 118.634 51.9575 117.828 51.4589C117.021 50.9602 116.39 50.2782 115.936 49.4129C115.481 48.5475 115.254 47.5649 115.254 46.4649C115.254 45.3649 115.481 44.3895 115.936 43.5389C116.39 42.6735 117.021 41.9989 117.828 41.5149C118.649 41.0162 119.588 40.7669 120.644 40.7669C121.509 40.7669 122.264 40.9355 122.91 41.2729C123.57 41.6102 124.083 42.0869 124.45 42.7029V36.1029H126.782V51.9429H124.692L124.45 50.2489C124.098 50.7622 123.614 51.2169 122.998 51.6129C122.382 52.0089 121.59 52.2069 120.622 52.2069ZM121.04 50.1829C122.037 50.1829 122.851 49.8382 123.482 49.1489C124.127 48.4595 124.45 47.5722 124.45 46.4869C124.45 45.3869 124.127 44.4995 123.482 43.8249C122.851 43.1355 122.037 42.7909 121.04 42.7909C120.042 42.7909 119.221 43.1355 118.576 43.8249C117.93 44.4995 117.608 45.3869 117.608 46.4869C117.608 47.2055 117.754 47.8435 118.048 48.4009C118.341 48.9582 118.744 49.3982 119.258 49.7209C119.786 50.0289 120.38 50.1829 121.04 50.1829ZM142.459 52.2069C140.934 52.2069 139.599 51.8695 138.455 51.1949C137.311 50.5202 136.416 49.5889 135.771 48.4009C135.126 47.1982 134.803 45.8122 134.803 44.2429C134.803 42.6735 135.126 41.2949 135.771 40.1069C136.416 38.9042 137.311 37.9655 138.455 37.2909C139.599 36.6162 140.934 36.2789 142.459 36.2789C143.984 36.2789 145.319 36.6162 146.463 37.2909C147.607 37.9655 148.494 38.9042 149.125 40.1069C149.77 41.2949 150.093 42.6735 150.093 44.2429C150.093 45.8122 149.77 47.1982 149.125 48.4009C148.494 49.5889 147.607 50.5202 146.463 51.1949C145.319 51.8695 143.984 52.2069 142.459 52.2069ZM142.459 50.1169C143.515 50.1169 144.432 49.8822 145.209 49.4129C146.001 48.9435 146.617 48.2689 147.057 47.3889C147.497 46.5089 147.717 45.4602 147.717 44.2429C147.717 43.0255 147.497 41.9769 147.057 41.0969C146.617 40.2169 146.001 39.5422 145.209 39.0729C144.432 38.6035 143.515 38.3689 142.459 38.3689C141.403 38.3689 140.479 38.6035 139.687 39.0729C138.895 39.5422 138.279 40.2169 137.839 41.0969C137.414 41.9769 137.201 43.0255 137.201 44.2429C137.201 45.4602 137.414 46.5089 137.839 47.3889C138.279 48.2689 138.895 48.9435 139.687 49.4129C140.479 49.8822 141.403 50.1169 142.459 50.1169ZM152.603 51.9429V41.0309H154.693L154.891 43.0989C155.272 42.3802 155.8 41.8155 156.475 41.4049C157.164 40.9795 157.993 40.7669 158.961 40.7669V43.2089H158.323C157.678 43.2089 157.098 43.3189 156.585 43.5389C156.086 43.7442 155.683 44.1035 155.375 44.6169C155.082 45.1155 154.935 45.8122 154.935 46.7069V51.9429H152.603ZM165.632 52.2069C164.576 52.2069 163.644 51.9575 162.838 51.4589C162.031 50.9602 161.4 50.2782 160.946 49.4129C160.491 48.5475 160.264 47.5649 160.264 46.4649C160.264 45.3649 160.491 44.3895 160.946 43.5389C161.4 42.6735 162.031 41.9989 162.838 41.5149C163.659 41.0162 164.598 40.7669 165.654 40.7669C166.519 40.7669 167.274 40.9355 167.92 41.2729C168.58 41.6102 169.093 42.0869 169.46 42.7029V36.1029H171.792V51.9429H169.702L169.46 50.2489C169.108 50.7622 168.624 51.2169 168.008 51.6129C167.392 52.0089 166.6 52.2069 165.632 52.2069ZM166.05 50.1829C167.047 50.1829 167.861 49.8382 168.492 49.1489C169.137 48.4595 169.46 47.5722 169.46 46.4869C169.46 45.3869 169.137 44.4995 168.492 43.8249C167.861 43.1355 167.047 42.7909 166.05 42.7909C165.052 42.7909 164.231 43.1355 163.586 43.8249C162.94 44.4995 162.618 45.3869 162.618 46.4869C162.618 47.2055 162.764 47.8435 163.058 48.4009C163.351 48.9582 163.754 49.3982 164.268 49.7209C164.796 50.0289 165.39 50.1829 166.05 50.1829ZM179.836 52.2069C178.765 52.2069 177.812 51.9722 176.976 51.5029C176.154 51.0189 175.509 50.3515 175.04 49.5009C174.57 48.6502 174.336 47.6602 174.336 46.5309C174.336 45.3869 174.563 44.3822 175.018 43.5169C175.487 42.6515 176.132 41.9769 176.954 41.4929C177.79 41.0089 178.758 40.7669 179.858 40.7669C180.928 40.7669 181.86 41.0089 182.652 41.4929C183.444 41.9622 184.06 42.5929 184.5 43.3849C184.94 44.1769 185.16 45.0495 185.16 46.0029C185.16 46.1495 185.152 46.3109 185.138 46.4869C185.138 46.6482 185.13 46.8315 185.116 47.0369H176.624C176.697 48.0929 177.042 48.8995 177.658 49.4569C178.288 49.9995 179.014 50.2709 179.836 50.2709C180.496 50.2709 181.046 50.1242 181.486 49.8309C181.94 49.5229 182.278 49.1122 182.498 48.5989H184.83C184.536 49.6255 183.95 50.4835 183.07 51.1729C182.204 51.8622 181.126 52.2069 179.836 52.2069ZM179.836 42.6809C179.058 42.6809 178.369 42.9155 177.768 43.3849C177.166 43.8395 176.8 44.5289 176.668 45.4529H182.828C182.784 44.6022 182.483 43.9275 181.926 43.4289C181.368 42.9302 180.672 42.6809 179.836 42.6809ZM187.579 51.9429V41.0309H189.669L189.867 43.0989C190.249 42.3802 190.777 41.8155 191.451 41.4049C192.141 40.9795 192.969 40.7669 193.937 40.7669V43.2089H193.299C192.654 43.2089 192.075 43.3189 191.561 43.5389C191.063 43.7442 190.659 44.1035 190.351 44.6169C190.058 45.1155 189.911 45.8122 189.911 46.7069V51.9429H187.579ZM200.293 52.2069C198.914 52.2069 197.778 51.8695 196.883 51.1949C195.988 50.5202 195.475 49.6255 195.343 48.5109H197.697C197.814 49.0095 198.093 49.4422 198.533 49.8089C198.973 50.1609 199.552 50.3369 200.271 50.3369C200.975 50.3369 201.488 50.1902 201.811 49.8969C202.134 49.6035 202.295 49.2662 202.295 48.8849C202.295 48.3275 202.068 47.9535 201.613 47.7629C201.173 47.5575 200.557 47.3742 199.765 47.2129C199.149 47.0809 198.533 46.9049 197.917 46.6849C197.316 46.4649 196.81 46.1569 196.399 45.7609C196.003 45.3502 195.805 44.8002 195.805 44.1109C195.805 43.1575 196.172 42.3655 196.905 41.7349C197.638 41.0895 198.665 40.7669 199.985 40.7669C201.202 40.7669 202.185 41.0602 202.933 41.6469C203.696 42.2335 204.143 43.0622 204.275 44.1329H202.031C201.958 43.6635 201.738 43.2969 201.371 43.0329C201.019 42.7689 200.542 42.6369 199.941 42.6369C199.354 42.6369 198.9 42.7615 198.577 43.0109C198.254 43.2455 198.093 43.5535 198.093 43.9349C198.093 44.3162 198.313 44.6169 198.753 44.8369C199.208 45.0569 199.802 45.2549 200.535 45.4309C201.268 45.5922 201.943 45.7829 202.559 46.0029C203.19 46.2082 203.696 46.5162 204.077 46.9269C204.458 47.3375 204.649 47.9389 204.649 48.7309C204.664 49.7282 204.275 50.5569 203.483 51.2169C202.706 51.8769 201.642 52.2069 200.293 52.2069Z" fill="black"/>
</g>
<defs>
<clipPath id="clip0">
<rect width="571" height="360" fill="white"/>
</clipPath>
<clipPath id="clip1">
<rect width="421" height="15" fill="white" transform="translate(105 315)"/>
</clipPath>
</defs>
</svg>
