<svg width="326" height="161" viewBox="0 0 326 161" fill="none" xmlns="http://www.w3.org/2000/svg">
<rect y="0.442871" width="326" height="160" rx="12" fill="#F5F5F5" fill-opacity="0.62"/>
<path d="M29.62 44.4429V32.5029H25.54V30.4429H36.28V32.5029H32.18V44.4429H29.62ZM41.0795 44.6829C40.1195 44.6829 39.2529 44.4629 38.4795 44.0229C37.7195 43.5829 37.1129 42.9762 36.6595 42.2029C36.2195 41.4162 35.9995 40.5095 35.9995 39.4829C35.9995 38.4562 36.2262 37.5562 36.6795 36.7829C37.1329 35.9962 37.7395 35.3829 38.4995 34.9429C39.2729 34.5029 40.1395 34.2829 41.0995 34.2829C42.0462 34.2829 42.8995 34.5029 43.6595 34.9429C44.4329 35.3829 45.0395 35.9962 45.4795 36.7829C45.9329 37.5562 46.1595 38.4562 46.1595 39.4829C46.1595 40.5095 45.9329 41.4162 45.4795 42.2029C45.0395 42.9762 44.4329 43.5829 43.6595 44.0229C42.8862 44.4629 42.0262 44.6829 41.0795 44.6829ZM41.0795 42.4629C41.7462 42.4629 42.3262 42.2162 42.8195 41.7229C43.3129 41.2162 43.5595 40.4695 43.5595 39.4829C43.5595 38.4962 43.3129 37.7562 42.8195 37.2629C42.3262 36.7562 41.7529 36.5029 41.0995 36.5029C40.4195 36.5029 39.8329 36.7562 39.3395 37.2629C38.8595 37.7562 38.6195 38.4962 38.6195 39.4829C38.6195 40.4695 38.8595 41.2162 39.3395 41.7229C39.8329 42.2162 40.4129 42.4629 41.0795 42.4629ZM52.4778 44.4429C51.4378 44.4429 50.6045 44.1895 49.9778 43.6829C49.3511 43.1762 49.0378 42.2762 49.0378 40.9829V36.6629H47.3378V34.5229H49.0378L49.3378 31.8629H51.5978V34.5229H54.2778V36.6629H51.5978V41.0029C51.5978 41.4829 51.6978 41.8162 51.8978 42.0029C52.1111 42.1762 52.4711 42.2629 52.9778 42.2629H54.2178V44.4429H52.4778ZM59.8958 44.6829C59.0424 44.6829 58.3424 44.5495 57.7958 44.2829C57.2491 44.0029 56.8424 43.6362 56.5758 43.1829C56.3091 42.7295 56.1758 42.2295 56.1758 41.6829C56.1758 40.7629 56.5358 40.0162 57.2558 39.4429C57.9758 38.8695 59.0558 38.5829 60.4958 38.5829H63.0158V38.3429C63.0158 37.6629 62.8224 37.1629 62.4358 36.8429C62.0491 36.5229 61.5691 36.3629 60.9958 36.3629C60.4758 36.3629 60.0224 36.4895 59.6358 36.7429C59.2491 36.9829 59.0091 37.3429 58.9158 37.8229H56.4158C56.4824 37.1029 56.7224 36.4762 57.1358 35.9429C57.5624 35.4095 58.1091 35.0029 58.7758 34.7229C59.4424 34.4295 60.1891 34.2829 61.0158 34.2829C62.4291 34.2829 63.5424 34.6362 64.3558 35.3429C65.1691 36.0495 65.5758 37.0495 65.5758 38.3429V44.4429H63.3958L63.1558 42.8429C62.8624 43.3762 62.4491 43.8162 61.9158 44.1629C61.3958 44.5095 60.7224 44.6829 59.8958 44.6829ZM60.4758 42.6829C61.2091 42.6829 61.7758 42.4429 62.1758 41.9629C62.5891 41.4829 62.8491 40.8895 62.9558 40.1829H60.7758C60.0958 40.1829 59.6091 40.3095 59.3158 40.5629C59.0224 40.8029 58.8758 41.1029 58.8758 41.4629C58.8758 41.8495 59.0224 42.1495 59.3158 42.3629C59.6091 42.5762 59.9958 42.6829 60.4758 42.6829ZM68.0188 44.4429V30.0429H70.5788V44.4429H68.0188ZM32.7 70.6829C31.2867 70.6829 30.0733 70.3829 29.06 69.7829C28.0467 69.1695 27.2667 68.3229 26.72 67.2429C26.1733 66.1495 25.9 64.8895 25.9 63.4629C25.9 62.0362 26.1733 60.7762 26.72 59.6829C27.2667 58.5895 28.0467 57.7362 29.06 57.1229C30.0733 56.5095 31.2867 56.2029 32.7 56.2029C34.38 56.2029 35.7533 56.6229 36.82 57.4629C37.9 58.2895 38.5733 59.4562 38.84 60.9629H36.02C35.8467 60.2029 35.4733 59.6095 34.9 59.1829C34.34 58.7429 33.5933 58.5229 32.66 58.5229C31.3667 58.5229 30.3533 58.9629 29.62 59.8429C28.8867 60.7229 28.52 61.9295 28.52 63.4629C28.52 64.9962 28.8867 66.2029 29.62 67.0829C30.3533 67.9495 31.3667 68.3829 32.66 68.3829C33.5933 68.3829 34.34 68.1829 34.9 67.7829C35.4733 67.3695 35.8467 66.8029 36.02 66.0829H38.84C38.5733 67.5229 37.9 68.6495 36.82 69.4629C35.7533 70.2762 34.38 70.6829 32.7 70.6829ZM45.8061 70.6829C44.8461 70.6829 43.9794 70.4629 43.2061 70.0229C42.4461 69.5829 41.8394 68.9762 41.3861 68.2029C40.9461 67.4162 40.7261 66.5095 40.7261 65.4829C40.7261 64.4562 40.9528 63.5562 41.4061 62.7829C41.8594 61.9962 42.4661 61.3829 43.2261 60.9429C43.9994 60.5029 44.8661 60.2829 45.8261 60.2829C46.7728 60.2829 47.6261 60.5029 48.3861 60.9429C49.1594 61.3829 49.7661 61.9962 50.2061 62.7829C50.6594 63.5562 50.8861 64.4562 50.8861 65.4829C50.8861 66.5095 50.6594 67.4162 50.2061 68.2029C49.7661 68.9762 49.1594 69.5829 48.3861 70.0229C47.6128 70.4629 46.7528 70.6829 45.8061 70.6829ZM45.8061 68.4629C46.4728 68.4629 47.0528 68.2162 47.5461 67.7229C48.0394 67.2162 48.2861 66.4695 48.2861 65.4829C48.2861 64.4962 48.0394 63.7562 47.5461 63.2629C47.0528 62.7562 46.4794 62.5029 45.8261 62.5029C45.1461 62.5029 44.5594 62.7562 44.0661 63.2629C43.5861 63.7562 43.3461 64.4962 43.3461 65.4829C43.3461 66.4695 43.5861 67.2162 44.0661 67.7229C44.5594 68.2162 45.1394 68.4629 45.8061 68.4629ZM53.175 70.4429V60.5229H55.435L55.655 61.8629C55.975 61.3829 56.395 61.0029 56.915 60.7229C57.4483 60.4295 58.0617 60.2829 58.755 60.2829C60.2883 60.2829 61.375 60.8762 62.015 62.0629C62.375 61.5162 62.855 61.0829 63.455 60.7629C64.0683 60.4429 64.735 60.2829 65.455 60.2829C66.7483 60.2829 67.7417 60.6695 68.435 61.4429C69.1283 62.2162 69.475 63.3495 69.475 64.8429V70.4429H66.915V65.0829C66.915 64.2295 66.7483 63.5762 66.415 63.1229C66.095 62.6695 65.595 62.4429 64.915 62.4429C64.2217 62.4429 63.6617 62.6962 63.235 63.2029C62.8217 63.7095 62.615 64.4162 62.615 65.3229V70.4429H60.055V65.0829C60.055 64.2295 59.8883 63.5762 59.555 63.1229C59.2217 62.6695 58.7083 62.4429 58.015 62.4429C57.335 62.4429 56.7817 62.6962 56.355 63.2029C55.9417 63.7095 55.735 64.4162 55.735 65.3229V70.4429H53.175ZM71.9055 74.8429V60.5229H74.1855L74.4655 61.9429C74.7855 61.5029 75.2055 61.1162 75.7255 60.7829C76.2588 60.4495 76.9455 60.2829 77.7855 60.2829C78.7188 60.2829 79.5521 60.5095 80.2855 60.9629C81.0188 61.4162 81.5988 62.0362 82.0255 62.8229C82.4521 63.6095 82.6655 64.5029 82.6655 65.5029C82.6655 66.5029 82.4521 67.3962 82.0255 68.1829C81.5988 68.9562 81.0188 69.5695 80.2855 70.0229C79.5521 70.4629 78.7188 70.6829 77.7855 70.6829C77.0388 70.6829 76.3855 70.5429 75.8255 70.2629C75.2655 69.9829 74.8121 69.5895 74.4655 69.0829V74.8429H71.9055ZM77.2455 68.4429C78.0588 68.4429 78.7321 68.1695 79.2655 67.6229C79.7988 67.0762 80.0655 66.3695 80.0655 65.5029C80.0655 64.6362 79.7988 63.9229 79.2655 63.3629C78.7321 62.8029 78.0588 62.5229 77.2455 62.5229C76.4188 62.5229 75.7388 62.8029 75.2055 63.3629C74.6855 63.9095 74.4255 64.6162 74.4255 65.4829C74.4255 66.3495 74.6855 67.0629 75.2055 67.6229C75.7388 68.1695 76.4188 68.4429 77.2455 68.4429ZM88.3723 70.6829C87.519 70.6829 86.819 70.5495 86.2723 70.2829C85.7257 70.0029 85.319 69.6362 85.0523 69.1829C84.7857 68.7295 84.6523 68.2295 84.6523 67.6829C84.6523 66.7629 85.0123 66.0162 85.7323 65.4429C86.4523 64.8695 87.5323 64.5829 88.9723 64.5829H91.4923V64.3429C91.4923 63.6629 91.299 63.1629 90.9123 62.8429C90.5257 62.5229 90.0457 62.3629 89.4723 62.3629C88.9523 62.3629 88.499 62.4895 88.1123 62.7429C87.7257 62.9829 87.4857 63.3429 87.3923 63.8229H84.8923C84.959 63.1029 85.199 62.4762 85.6123 61.9429C86.039 61.4095 86.5857 61.0029 87.2523 60.7229C87.919 60.4295 88.6657 60.2829 89.4923 60.2829C90.9057 60.2829 92.019 60.6362 92.8323 61.3429C93.6457 62.0495 94.0523 63.0495 94.0523 64.3429V70.4429H91.8723L91.6323 68.8429C91.339 69.3762 90.9257 69.8162 90.3923 70.1629C89.8723 70.5095 89.199 70.6829 88.3723 70.6829ZM88.9523 68.6829C89.6857 68.6829 90.2523 68.4429 90.6523 67.9629C91.0657 67.4829 91.3257 66.8895 91.4323 66.1829H89.2523C88.5723 66.1829 88.0857 66.3095 87.7923 66.5629C87.499 66.8029 87.3523 67.1029 87.3523 67.4629C87.3523 67.8495 87.499 68.1495 87.7923 68.3629C88.0857 68.5762 88.4723 68.6829 88.9523 68.6829ZM96.4953 70.4429V60.5229H98.7553L98.9553 62.2029C99.262 61.6162 99.702 61.1495 100.275 60.8029C100.862 60.4562 101.549 60.2829 102.335 60.2829C103.562 60.2829 104.515 60.6695 105.195 61.4429C105.875 62.2162 106.215 63.3495 106.215 64.8429V70.4429H103.655V65.0829C103.655 64.2295 103.482 63.5762 103.135 63.1229C102.789 62.6695 102.249 62.4429 101.515 62.4429C100.795 62.4429 100.202 62.6962 99.7353 63.2029C99.282 63.7095 99.0553 64.4162 99.0553 65.3229V70.4429H96.4953ZM110.043 58.9829C109.577 58.9829 109.19 58.8429 108.883 58.5629C108.59 58.2829 108.443 57.9295 108.443 57.5029C108.443 57.0762 108.59 56.7295 108.883 56.4629C109.19 56.1829 109.577 56.0429 110.043 56.0429C110.51 56.0429 110.89 56.1829 111.183 56.4629C111.49 56.7295 111.643 57.0762 111.643 57.5029C111.643 57.9295 111.49 58.2829 111.183 58.5629C110.89 58.8429 110.51 58.9829 110.043 58.9829ZM108.763 70.4429V60.5229H111.323V70.4429H108.763ZM118.815 70.6829C117.815 70.6829 116.929 70.4695 116.155 70.0429C115.382 69.6162 114.775 69.0162 114.335 68.2429C113.895 67.4695 113.675 66.5762 113.675 65.5629C113.675 64.5362 113.889 63.6229 114.315 62.8229C114.755 62.0229 115.355 61.4029 116.115 60.9629C116.889 60.5095 117.795 60.2829 118.835 60.2829C119.809 60.2829 120.669 60.4962 121.415 60.9229C122.162 61.3495 122.742 61.9362 123.155 62.6829C123.582 63.4162 123.795 64.2362 123.795 65.1429C123.795 65.2895 123.789 65.4429 123.775 65.6029C123.775 65.7629 123.769 65.9295 123.755 66.1029H116.215C116.269 66.8762 116.535 67.4829 117.015 67.9229C117.509 68.3629 118.102 68.5829 118.795 68.5829C119.315 68.5829 119.749 68.4695 120.095 68.2429C120.455 68.0029 120.722 67.6962 120.895 67.3229H123.495C123.309 67.9495 122.995 68.5229 122.555 69.0429C122.129 69.5495 121.595 69.9495 120.955 70.2429C120.329 70.5362 119.615 70.6829 118.815 70.6829ZM118.835 62.3629C118.209 62.3629 117.655 62.5429 117.175 62.9029C116.695 63.2495 116.389 63.7829 116.255 64.5029H121.195C121.155 63.8495 120.915 63.3295 120.475 62.9429C120.035 62.5562 119.489 62.3629 118.835 62.3629ZM130.048 70.6829C129.168 70.6829 128.395 70.5429 127.728 70.2629C127.062 69.9695 126.528 69.5695 126.128 69.0629C125.728 68.5562 125.488 67.9695 125.408 67.3029H127.988C128.068 67.6895 128.282 68.0229 128.628 68.3029C128.988 68.5695 129.448 68.7029 130.008 68.7029C130.568 68.7029 130.975 68.5895 131.228 68.3629C131.495 68.1362 131.628 67.8762 131.628 67.5829C131.628 67.1562 131.442 66.8695 131.068 66.7229C130.695 66.5629 130.175 66.4095 129.508 66.2629C129.082 66.1695 128.648 66.0562 128.208 65.9229C127.768 65.7895 127.362 65.6229 126.988 65.4229C126.628 65.2095 126.335 64.9429 126.108 64.6229C125.882 64.2895 125.768 63.8829 125.768 63.4029C125.768 62.5229 126.115 61.7829 126.808 61.1829C127.515 60.5829 128.502 60.2829 129.768 60.2829C130.942 60.2829 131.875 60.5562 132.568 61.1029C133.275 61.6495 133.695 62.4029 133.828 63.3629H131.408C131.262 62.6295 130.708 62.2629 129.748 62.2629C129.268 62.2629 128.895 62.3562 128.628 62.5429C128.375 62.7295 128.248 62.9629 128.248 63.2429C128.248 63.5362 128.442 63.7695 128.828 63.9429C129.215 64.1162 129.728 64.2762 130.368 64.4229C131.062 64.5829 131.695 64.7629 132.268 64.9629C132.855 65.1495 133.322 65.4362 133.668 65.8229C134.015 66.1962 134.188 66.7362 134.188 67.4429C134.202 68.0562 134.042 68.6095 133.708 69.1029C133.375 69.5962 132.895 69.9829 132.268 70.2629C131.642 70.5429 130.902 70.6829 130.048 70.6829Z" fill="black"/>
<g clip-path="url(#clip0)">
<path d="M37.122 118.899C35.1713 118.899 33.4867 118.557 32.068 117.873C30.6747 117.189 29.5727 116.252 28.762 115.061C27.9767 113.845 27.5207 112.477 27.394 110.957H32.144C32.372 112.046 32.9293 112.958 33.816 113.693C34.7027 114.402 35.8047 114.757 37.122 114.757C38.5407 114.757 39.6933 114.238 40.58 113.199C41.492 112.16 41.948 110.868 41.948 109.323C41.948 107.727 41.492 106.46 40.58 105.523C39.6933 104.586 38.566 104.117 37.198 104.117C36.058 104.117 35.07 104.396 34.234 104.953C33.398 105.51 32.8027 106.207 32.448 107.043H27.774L30.054 91.8429H44.798V96.0989H33.702L32.486 102.255C33.0433 101.647 33.8033 101.153 34.766 100.773C35.7287 100.368 36.8053 100.165 37.996 100.165C39.896 100.165 41.4793 100.596 42.746 101.457C44.0127 102.293 44.9753 103.408 45.634 104.801C46.2927 106.169 46.622 107.664 46.622 109.285C46.622 111.134 46.2167 112.781 45.406 114.225C44.6207 115.669 43.506 116.809 42.062 117.645C40.6433 118.481 38.9967 118.899 37.122 118.899ZM62.0545 118.899C59.5971 118.899 57.4945 118.329 55.7465 117.189C53.9985 116.024 52.6431 114.415 51.6805 112.363C50.7431 110.286 50.2745 107.879 50.2745 105.143C50.2745 102.432 50.7431 100.038 51.6805 97.9609C52.6431 95.8835 53.9985 94.2749 55.7465 93.1349C57.4945 91.9695 59.5971 91.3869 62.0545 91.3869C64.5118 91.3869 66.6145 91.9695 68.3625 93.1349C70.1105 94.2749 71.4531 95.8835 72.3905 97.9609C73.3531 100.038 73.8345 102.432 73.8345 105.143C73.8345 107.879 73.3531 110.286 72.3905 112.363C71.4531 114.415 70.1105 116.024 68.3625 117.189C66.6145 118.329 64.5118 118.899 62.0545 118.899ZM62.0545 114.529C64.0558 114.529 65.6898 113.693 66.9565 112.021C68.2231 110.349 68.8565 108.056 68.8565 105.143C68.8565 102.23 68.2231 99.9369 66.9565 98.2649C65.6898 96.5929 64.0558 95.7569 62.0545 95.7569C60.0278 95.7569 58.3811 96.5929 57.1145 98.2649C55.8731 99.9369 55.2525 102.23 55.2525 105.143C55.2525 108.056 55.8731 110.349 57.1145 112.021C58.3811 113.693 60.0278 114.529 62.0545 114.529ZM90.287 118.443V113.503H77.177V109.627L89.641 91.8429H95.151V109.285H98.647V113.503H95.151V118.443H90.287ZM82.383 109.285H90.591V97.2009L82.383 109.285Z" fill="#FF3A29"/>
<path d="M167 91.4429L158.79 102.768L155.552 100.584L146.152 108.228L140.01 118.744L128.814 115.144L117.763 117.935L113 120.443" stroke="#FFB200" stroke-width="2" stroke-linecap="round"/>
</g>
<path fill-rule="evenodd" clip-rule="evenodd" d="M264.286 35.6304C264.286 34.4535 264.82 33.3248 265.771 32.4926C266.722 31.6604 268.012 31.1929 269.357 31.1929H289.643C290.988 31.1929 292.278 31.6604 293.229 32.4926C294.18 33.3248 294.714 34.4535 294.714 35.6304V62.2554C295.387 62.2554 296.032 62.4891 296.507 62.9052C296.983 63.3213 297.25 63.8857 297.25 64.4741C297.25 65.0626 296.983 65.6269 296.507 66.043C296.032 66.4591 295.387 66.6929 294.714 66.6929H287.107C286.435 66.6929 285.79 66.4591 285.314 66.043C284.839 65.6269 284.571 65.0626 284.571 64.4741V60.0366C284.571 59.4482 284.304 58.8838 283.829 58.4677C283.353 58.0516 282.708 57.8179 282.036 57.8179H276.964C276.292 57.8179 275.647 58.0516 275.171 58.4677C274.696 58.8838 274.429 59.4482 274.429 60.0366V64.4741C274.429 65.0626 274.161 65.6269 273.686 66.043C273.21 66.4591 272.565 66.6929 271.893 66.6929H264.286C263.613 66.6929 262.968 66.4591 262.493 66.043C262.017 65.6269 261.75 65.0626 261.75 64.4741C261.75 63.8857 262.017 63.3213 262.493 62.9052C262.968 62.4891 263.613 62.2554 264.286 62.2554V35.6304ZM271.893 37.8491H276.964V42.2866H271.893V37.8491ZM276.964 46.7241H271.893V51.1616H276.964V46.7241ZM282.036 37.8491H287.107V42.2866H282.036V37.8491ZM287.107 46.7241H282.036V51.1616H287.107V46.7241Z" fill="#FFB200"/>
<path d="M256.856 114.443V106.871H254.348V106.043H260.372V106.871H257.864V114.443H256.856ZM263.177 114.587C262.617 114.587 262.113 114.459 261.665 114.203C261.217 113.947 260.861 113.587 260.597 113.123C260.341 112.651 260.213 112.099 260.213 111.467C260.213 110.835 260.345 110.287 260.609 109.823C260.873 109.351 261.229 108.987 261.677 108.731C262.133 108.475 262.641 108.347 263.201 108.347C263.761 108.347 264.265 108.475 264.713 108.731C265.161 108.987 265.513 109.351 265.769 109.823C266.033 110.287 266.165 110.835 266.165 111.467C266.165 112.099 266.033 112.651 265.769 113.123C265.505 113.587 265.145 113.947 264.689 114.203C264.241 114.459 263.737 114.587 263.177 114.587ZM263.177 113.723C263.521 113.723 263.841 113.639 264.137 113.471C264.433 113.303 264.673 113.051 264.857 112.715C265.041 112.379 265.133 111.963 265.133 111.467C265.133 110.971 265.041 110.555 264.857 110.219C264.681 109.883 264.445 109.631 264.149 109.463C263.853 109.295 263.537 109.211 263.201 109.211C262.857 109.211 262.537 109.295 262.241 109.463C261.945 109.631 261.705 109.883 261.521 110.219C261.337 110.555 261.245 110.971 261.245 111.467C261.245 111.963 261.337 112.379 261.521 112.715C261.705 113.051 261.941 113.303 262.229 113.471C262.525 113.639 262.841 113.723 263.177 113.723ZM270.266 114.587C269.674 114.587 269.154 114.451 268.706 114.179C268.266 113.907 267.922 113.535 267.674 113.063C267.434 112.591 267.314 112.055 267.314 111.455C267.314 110.855 267.438 110.323 267.686 109.859C267.934 109.387 268.278 109.019 268.718 108.755C269.158 108.483 269.678 108.347 270.278 108.347C270.766 108.347 271.198 108.447 271.574 108.647C271.95 108.847 272.242 109.127 272.45 109.487V105.803H273.458V114.443H272.546L272.45 113.459C272.258 113.747 271.982 114.007 271.622 114.239C271.262 114.471 270.81 114.587 270.266 114.587ZM270.374 113.711C270.774 113.711 271.126 113.619 271.43 113.435C271.742 113.243 271.982 112.979 272.15 112.643C272.326 112.307 272.414 111.915 272.414 111.467C272.414 111.019 272.326 110.627 272.15 110.291C271.982 109.955 271.742 109.695 271.43 109.511C271.126 109.319 270.774 109.223 270.374 109.223C269.982 109.223 269.63 109.319 269.318 109.511C269.014 109.695 268.774 109.955 268.598 110.291C268.43 110.627 268.346 111.019 268.346 111.467C268.346 111.915 268.43 112.307 268.598 112.643C268.774 112.979 269.014 113.243 269.318 113.435C269.63 113.619 269.982 113.711 270.374 113.711ZM277.081 114.587C276.585 114.587 276.173 114.503 275.845 114.335C275.517 114.167 275.273 113.943 275.113 113.663C274.953 113.383 274.873 113.079 274.873 112.751C274.873 112.143 275.105 111.675 275.569 111.347C276.033 111.019 276.665 110.855 277.465 110.855H279.073V110.783C279.073 110.263 278.937 109.871 278.665 109.607C278.393 109.335 278.029 109.199 277.573 109.199C277.181 109.199 276.841 109.299 276.553 109.499C276.273 109.691 276.097 109.975 276.025 110.351H274.993C275.033 109.919 275.177 109.555 275.425 109.259C275.681 108.963 275.997 108.739 276.373 108.587C276.749 108.427 277.149 108.347 277.573 108.347C278.405 108.347 279.029 108.571 279.445 109.019C279.869 109.459 280.081 110.047 280.081 110.783V114.443H279.181L279.121 113.375C278.953 113.711 278.705 113.999 278.377 114.239C278.057 114.471 277.625 114.587 277.081 114.587ZM277.237 113.735C277.621 113.735 277.949 113.635 278.221 113.435C278.501 113.235 278.713 112.975 278.857 112.655C279.001 112.335 279.073 111.999 279.073 111.647V111.635H277.549C276.957 111.635 276.537 111.739 276.289 111.947C276.049 112.147 275.929 112.399 275.929 112.703C275.929 113.015 276.041 113.267 276.265 113.459C276.497 113.643 276.821 113.735 277.237 113.735ZM282.066 117.083L283.542 113.867H283.194L280.83 108.491H281.922L283.89 113.123L285.978 108.491H287.022L283.122 117.083H282.066Z" fill="#92929D"/>
<path fill-rule="evenodd" clip-rule="evenodd" d="M303.793 107.443C304.238 107.443 304.461 107.981 304.146 108.296L299.354 113.089C299.158 113.285 298.842 113.285 298.646 113.089L293.854 108.296C293.539 107.981 293.762 107.443 294.207 107.443H303.793Z" fill="#252525"/>
<defs>
<clipPath id="clip0">
<rect width="161" height="49" fill="white" transform="translate(25 81.4429)"/>
</clipPath>
</defs>
</svg>
