<svg width="694" height="362" viewBox="0 0 694 362" fill="none" xmlns="http://www.w3.org/2000/svg">
<rect x="0.806152" y="0.442871" width="692" height="361" rx="10" fill="#F9F9F9"/>
<path fill-rule="evenodd" clip-rule="evenodd" d="M663.601 37.5457C664.047 37.5457 664.27 38.0835 663.955 38.3987L659.16 43.2073C658.965 43.4032 658.647 43.4032 658.452 43.2073L653.657 38.3987C653.343 38.0835 653.566 37.5457 654.011 37.5457H663.601Z" fill="#252525"/>
<mask id="mask0" mask-type="alpha" maskUnits="userSpaceOnUse" x="0" y="107" width="694" height="255">
<rect x="0.806152" y="107.74" width="693" height="253.703" rx="10" fill="white"/>
</mask>
<g mask="url(#mask0)">
<path fill-rule="evenodd" clip-rule="evenodd" d="M692.803 361.391C692.803 361.391 660.736 328.235 644.558 319.161C634.907 313.748 625.223 310.115 615.505 308.262C607.227 306.684 600.507 305.54 594.711 304.339C573.188 299.878 573.252 296.119 544.832 264.861C528.499 246.897 515.372 232.167 496.244 225.63C482.789 221.032 249.876 157.982 198.841 157.879C147.806 157.776 71.5441 194.143 50.5066 203.494C36.3693 209.777 0.806152 225.964 0.806152 225.964V361.443L692.803 361.391Z" fill="#4339F2"/>
<path fill-rule="evenodd" clip-rule="evenodd" d="M0.806152 361.405C0.806152 361.405 32.8737 336.806 49.0519 330.073C58.7019 326.058 68.3862 323.362 78.1047 321.988C86.3823 320.817 93.1025 319.968 98.8981 319.077C120.421 315.767 120.358 312.978 148.778 289.788C165.111 276.461 178.237 265.532 197.365 260.682C210.821 257.271 227.146 256.885 248.847 260.93C264.432 263.835 273.936 266.822 295.994 274.817C313.382 281.119 334.034 283.448 349.323 282.151C367.038 280.648 382.03 274.997 397.639 267.412C414.709 259.117 429.196 247.044 444.705 237.012C457.236 228.906 479.677 212.36 494.768 210.417C509.86 208.474 534.223 214.262 543.812 215.983C555.611 218.102 572.065 222.751 593.172 228.857C603.45 231.83 622.065 237.322 643.103 244.259C657.24 248.921 692.803 260.93 692.803 260.93V361.443L0.806152 361.405Z" fill="#34B53A"/>
<path fill-rule="evenodd" clip-rule="evenodd" d="M0.806152 362.446C0.806152 362.446 11.1338 336.118 50.2313 333.79C73.1774 332.423 86.7538 338.622 99.6564 340.992C108.738 342.66 120.133 342.503 135.065 337.373C139.646 335.799 144.096 334.281 148.496 332.855C164.459 327.682 179.768 323.722 198.308 322.723C214.681 321.841 249.698 326.873 250.145 326.967C262.979 329.646 268.489 301.846 301.045 302.619C324.239 303.17 330.993 309.467 350.47 312.854C366.456 315.633 381.255 318 399.896 319.677C420.826 321.56 423.547 321.58 449.321 321.193C466.224 320.94 482.964 319.062 498.456 316.089C517.63 312.409 534.891 342.391 548.18 336.354C556.103 332.755 562.613 328.915 567.275 325.047C577.956 316.184 586.793 307.537 597.467 302.072C604.483 298.48 612.292 296.262 621.94 296.262C632.421 296.262 637.928 297.354 646.283 300.432C664.587 307.175 687.284 333.816 689.807 343.266C692.33 352.717 693.806 362.446 693.806 362.446H0.806152Z" fill="#FF3A29"/>
</g>
<path d="M60.8562 355.51C60.3962 355.51 59.9828 355.427 59.6162 355.26C59.2495 355.087 58.9595 354.85 58.7462 354.55C58.5395 354.243 58.4362 353.89 58.4362 353.49C58.4362 353.063 58.5595 352.68 58.8062 352.34C59.0595 352 59.3928 351.773 59.8062 351.66C59.4262 351.533 59.1328 351.33 58.9262 351.05C58.7195 350.77 58.6162 350.463 58.6162 350.13C58.6162 349.79 58.7062 349.48 58.8862 349.2C59.0662 348.913 59.3228 348.687 59.6562 348.52C59.9895 348.353 60.3895 348.27 60.8562 348.27C61.3228 348.27 61.7228 348.353 62.0562 348.52C62.3895 348.687 62.6462 348.913 62.8262 349.2C63.0062 349.48 63.0962 349.79 63.0962 350.13C63.0962 350.457 62.9928 350.763 62.7862 351.05C62.5795 351.33 62.2862 351.533 61.9062 351.66C62.3195 351.773 62.6495 352 62.8962 352.34C63.1495 352.68 63.2762 353.063 63.2762 353.49C63.2762 353.89 63.1695 354.243 62.9562 354.55C62.7495 354.85 62.4628 355.087 62.0962 355.26C61.7295 355.427 61.3162 355.51 60.8562 355.51ZM60.8562 351.36C61.2828 351.36 61.6195 351.253 61.8662 351.04C62.1195 350.82 62.2462 350.533 62.2462 350.18C62.2462 349.787 62.1228 349.49 61.8762 349.29C61.6295 349.09 61.2895 348.99 60.8562 348.99C60.4228 348.99 60.0828 349.09 59.8362 349.29C59.5962 349.49 59.4762 349.787 59.4762 350.18C59.4762 350.533 59.5995 350.82 59.8462 351.04C60.0928 351.253 60.4295 351.36 60.8562 351.36ZM60.8562 354.77C61.3828 354.77 61.7762 354.65 62.0362 354.41C62.3028 354.163 62.4362 353.84 62.4362 353.44C62.4362 352.987 62.2928 352.643 62.0062 352.41C61.7195 352.177 61.3362 352.06 60.8562 352.06C60.3762 352.06 59.9928 352.177 59.7062 352.41C59.4195 352.643 59.2762 352.987 59.2762 353.44C59.2762 353.84 59.4062 354.163 59.6662 354.41C59.9328 354.65 60.3295 354.77 60.8562 354.77ZM66.2497 355.51C65.8363 355.51 65.493 355.44 65.2197 355.3C64.9463 355.16 64.743 354.973 64.6097 354.74C64.4763 354.507 64.4097 354.253 64.4097 353.98C64.4097 353.473 64.603 353.083 64.9897 352.81C65.3763 352.537 65.903 352.4 66.5697 352.4H67.9097V352.34C67.9097 351.907 67.7963 351.58 67.5697 351.36C67.343 351.133 67.0397 351.02 66.6597 351.02C66.333 351.02 66.0497 351.103 65.8097 351.27C65.5763 351.43 65.4297 351.667 65.3697 351.98H64.5097C64.543 351.62 64.663 351.317 64.8697 351.07C65.083 350.823 65.3463 350.637 65.6597 350.51C65.973 350.377 66.3063 350.31 66.6597 350.31C67.353 350.31 67.873 350.497 68.2197 350.87C68.573 351.237 68.7497 351.727 68.7497 352.34V355.39H67.9997L67.9497 354.5C67.8097 354.78 67.603 355.02 67.3297 355.22C67.063 355.413 66.703 355.51 66.2497 355.51ZM66.3797 354.8C66.6997 354.8 66.973 354.717 67.1997 354.55C67.433 354.383 67.6097 354.167 67.7297 353.9C67.8497 353.633 67.9097 353.353 67.9097 353.06V353.05H66.6397C66.1463 353.05 65.7963 353.137 65.5897 353.31C65.3897 353.477 65.2897 353.687 65.2897 353.94C65.2897 354.2 65.383 354.41 65.5697 354.57C65.763 354.723 66.033 354.8 66.3797 354.8ZM70.0098 355.39V350.43H70.7698L70.8298 351.15C70.9898 350.883 71.2032 350.677 71.4698 350.53C71.7365 350.383 72.0365 350.31 72.3698 350.31C72.7632 350.31 73.0998 350.39 73.3798 350.55C73.6665 350.71 73.8865 350.953 74.0398 351.28C74.2132 350.98 74.4498 350.743 74.7498 350.57C75.0565 350.397 75.3865 350.31 75.7398 350.31C76.3332 350.31 76.8065 350.49 77.1598 350.85C77.5132 351.203 77.6898 351.75 77.6898 352.49V355.39H76.8598V352.58C76.8598 352.067 76.7565 351.68 76.5498 351.42C76.3432 351.16 76.0465 351.03 75.6598 351.03C75.2598 351.03 74.9265 351.187 74.6598 351.5C74.3998 351.807 74.2698 352.247 74.2698 352.82V355.39H73.4298V352.58C73.4298 352.067 73.3265 351.68 73.1198 351.42C72.9132 351.16 72.6165 351.03 72.2298 351.03C71.8365 351.03 71.5065 351.187 71.2398 351.5C70.9798 351.807 70.8498 352.247 70.8498 352.82V355.39H70.0098Z" fill="white"/>
<path d="M149.236 355.39V349.33L148.106 349.58V349L149.516 348.39H150.086V355.39H149.236ZM154.294 355.51C153.674 355.51 153.137 355.36 152.684 355.06C152.237 354.753 151.894 354.33 151.654 353.79C151.414 353.243 151.294 352.61 151.294 351.89C151.294 351.17 151.414 350.54 151.654 350C151.894 349.453 152.237 349.03 152.684 348.73C153.137 348.423 153.674 348.27 154.294 348.27C154.914 348.27 155.447 348.423 155.894 348.73C156.34 349.03 156.684 349.453 156.924 350C157.164 350.54 157.284 351.17 157.284 351.89C157.284 352.61 157.164 353.243 156.924 353.79C156.684 354.33 156.34 354.753 155.894 355.06C155.447 355.36 154.914 355.51 154.294 355.51ZM154.294 354.77C154.7 354.77 155.064 354.657 155.384 354.43C155.71 354.197 155.964 353.867 156.144 353.44C156.33 353.007 156.424 352.49 156.424 351.89C156.424 351.29 156.33 350.777 156.144 350.35C155.964 349.923 155.71 349.597 155.384 349.37C155.064 349.137 154.7 349.02 154.294 349.02C153.88 349.02 153.514 349.137 153.194 349.37C152.874 349.597 152.62 349.923 152.434 350.35C152.247 350.777 152.154 351.29 152.154 351.89C152.154 352.49 152.247 353.007 152.434 353.44C152.62 353.867 152.874 354.197 153.194 354.43C153.514 354.657 153.88 354.77 154.294 354.77ZM160.097 355.51C159.684 355.51 159.341 355.44 159.067 355.3C158.794 355.16 158.591 354.973 158.457 354.74C158.324 354.507 158.257 354.253 158.257 353.98C158.257 353.473 158.451 353.083 158.837 352.81C159.224 352.537 159.751 352.4 160.417 352.4H161.757V352.34C161.757 351.907 161.644 351.58 161.417 351.36C161.191 351.133 160.887 351.02 160.507 351.02C160.181 351.02 159.897 351.103 159.657 351.27C159.424 351.43 159.277 351.667 159.217 351.98H158.357C158.391 351.62 158.511 351.317 158.717 351.07C158.931 350.823 159.194 350.637 159.507 350.51C159.821 350.377 160.154 350.31 160.507 350.31C161.201 350.31 161.721 350.497 162.067 350.87C162.421 351.237 162.597 351.727 162.597 352.34V355.39H161.847L161.797 354.5C161.657 354.78 161.451 355.02 161.177 355.22C160.911 355.413 160.551 355.51 160.097 355.51ZM160.227 354.8C160.547 354.8 160.821 354.717 161.047 354.55C161.281 354.383 161.457 354.167 161.577 353.9C161.697 353.633 161.757 353.353 161.757 353.06V353.05H160.487C159.994 353.05 159.644 353.137 159.437 353.31C159.237 353.477 159.137 353.687 159.137 353.94C159.137 354.2 159.231 354.41 159.417 354.57C159.611 354.723 159.881 354.8 160.227 354.8ZM163.857 355.39V350.43H164.617L164.677 351.15C164.837 350.883 165.051 350.677 165.317 350.53C165.584 350.383 165.884 350.31 166.217 350.31C166.611 350.31 166.947 350.39 167.227 350.55C167.514 350.71 167.734 350.953 167.887 351.28C168.061 350.98 168.297 350.743 168.597 350.57C168.904 350.397 169.234 350.31 169.587 350.31C170.181 350.31 170.654 350.49 171.007 350.85C171.361 351.203 171.537 351.75 171.537 352.49V355.39H170.707V352.58C170.707 352.067 170.604 351.68 170.397 351.42C170.191 351.16 169.894 351.03 169.507 351.03C169.107 351.03 168.774 351.187 168.507 351.5C168.247 351.807 168.117 352.247 168.117 352.82V355.39H167.277V352.58C167.277 352.067 167.174 351.68 166.967 351.42C166.761 351.16 166.464 351.03 166.077 351.03C165.684 351.03 165.354 351.187 165.087 351.5C164.827 351.807 164.697 352.247 164.697 352.82V355.39H163.857Z" fill="white"/>
<path d="M243.236 355.39V349.33L242.106 349.58V349L243.516 348.39H244.086V355.39H243.236ZM245.454 355.39V354.8C245.927 354.427 246.374 354.05 246.794 353.67C247.22 353.283 247.597 352.903 247.924 352.53C248.257 352.157 248.517 351.79 248.704 351.43C248.897 351.07 248.994 350.723 248.994 350.39C248.994 350.143 248.95 349.913 248.864 349.7C248.784 349.487 248.65 349.317 248.464 349.19C248.277 349.057 248.024 348.99 247.704 348.99C247.397 348.99 247.14 349.06 246.934 349.2C246.727 349.333 246.57 349.513 246.464 349.74C246.364 349.967 246.314 350.21 246.314 350.47H245.504C245.504 350.01 245.6 349.617 245.794 349.29C245.987 348.957 246.25 348.703 246.584 348.53C246.917 348.357 247.294 348.27 247.714 348.27C248.334 348.27 248.84 348.447 249.234 348.8C249.634 349.147 249.834 349.667 249.834 350.36C249.834 350.773 249.73 351.183 249.524 351.59C249.317 351.99 249.054 352.38 248.734 352.76C248.414 353.133 248.07 353.483 247.704 353.81C247.344 354.137 247.007 354.43 246.694 354.69H250.074V355.39H245.454ZM251.236 357.59V350.43H251.996L252.076 351.25C252.236 351.01 252.463 350.793 252.756 350.6C253.056 350.407 253.436 350.31 253.896 350.31C254.39 350.31 254.82 350.423 255.186 350.65C255.553 350.877 255.836 351.187 256.036 351.58C256.243 351.973 256.346 352.42 256.346 352.92C256.346 353.42 256.243 353.867 256.036 354.26C255.836 354.647 255.55 354.953 255.176 355.18C254.81 355.4 254.38 355.51 253.886 355.51C253.48 355.51 253.116 355.427 252.796 355.26C252.483 355.093 252.243 354.86 252.076 354.56V357.59H251.236ZM253.796 354.78C254.13 354.78 254.423 354.703 254.676 354.55C254.93 354.39 255.13 354.17 255.276 353.89C255.423 353.61 255.496 353.283 255.496 352.91C255.496 352.537 255.423 352.21 255.276 351.93C255.13 351.65 254.93 351.433 254.676 351.28C254.423 351.12 254.13 351.04 253.796 351.04C253.463 351.04 253.17 351.12 252.916 351.28C252.663 351.433 252.463 351.65 252.316 351.93C252.17 352.21 252.096 352.537 252.096 352.91C252.096 353.283 252.17 353.61 252.316 353.89C252.463 354.17 252.663 354.39 252.916 354.55C253.17 354.703 253.463 354.78 253.796 354.78ZM257.516 355.39V350.43H258.276L258.336 351.15C258.496 350.883 258.709 350.677 258.976 350.53C259.242 350.383 259.542 350.31 259.876 350.31C260.269 350.31 260.606 350.39 260.886 350.55C261.172 350.71 261.392 350.953 261.546 351.28C261.719 350.98 261.956 350.743 262.256 350.57C262.562 350.397 262.892 350.31 263.246 350.31C263.839 350.31 264.312 350.49 264.666 350.85C265.019 351.203 265.196 351.75 265.196 352.49V355.39H264.366V352.58C264.366 352.067 264.262 351.68 264.056 351.42C263.849 351.16 263.552 351.03 263.166 351.03C262.766 351.03 262.432 351.187 262.166 351.5C261.906 351.807 261.776 352.247 261.776 352.82V355.39H260.936V352.58C260.936 352.067 260.832 351.68 260.626 351.42C260.419 351.16 260.122 351.03 259.736 351.03C259.342 351.03 259.012 351.187 258.746 351.5C258.486 351.807 258.356 352.247 258.356 352.82V355.39H257.516Z" fill="white"/>
<path d="M335.436 355.39V354.8C335.909 354.427 336.356 354.05 336.776 353.67C337.203 353.283 337.579 352.903 337.906 352.53C338.239 352.157 338.499 351.79 338.686 351.43C338.879 351.07 338.976 350.723 338.976 350.39C338.976 350.143 338.933 349.913 338.846 349.7C338.766 349.487 338.633 349.317 338.446 349.19C338.259 349.057 338.006 348.99 337.686 348.99C337.379 348.99 337.123 349.06 336.916 349.2C336.709 349.333 336.553 349.513 336.446 349.74C336.346 349.967 336.296 350.21 336.296 350.47H335.486C335.486 350.01 335.583 349.617 335.776 349.29C335.969 348.957 336.233 348.703 336.566 348.53C336.899 348.357 337.276 348.27 337.696 348.27C338.316 348.27 338.823 348.447 339.216 348.8C339.616 349.147 339.816 349.667 339.816 350.36C339.816 350.773 339.713 351.183 339.506 351.59C339.299 351.99 339.036 352.38 338.716 352.76C338.396 353.133 338.053 353.483 337.686 353.81C337.326 354.137 336.989 354.43 336.676 354.69H340.056V355.39H335.436ZM341.219 357.59V350.43H341.979L342.059 351.25C342.219 351.01 342.445 350.793 342.739 350.6C343.039 350.407 343.419 350.31 343.879 350.31C344.372 350.31 344.802 350.423 345.169 350.65C345.535 350.877 345.819 351.187 346.019 351.58C346.225 351.973 346.329 352.42 346.329 352.92C346.329 353.42 346.225 353.867 346.019 354.26C345.819 354.647 345.532 354.953 345.159 355.18C344.792 355.4 344.362 355.51 343.869 355.51C343.462 355.51 343.099 355.427 342.779 355.26C342.465 355.093 342.225 354.86 342.059 354.56V357.59H341.219ZM343.779 354.78C344.112 354.78 344.405 354.703 344.659 354.55C344.912 354.39 345.112 354.17 345.259 353.89C345.405 353.61 345.479 353.283 345.479 352.91C345.479 352.537 345.405 352.21 345.259 351.93C345.112 351.65 344.912 351.433 344.659 351.28C344.405 351.12 344.112 351.04 343.779 351.04C343.445 351.04 343.152 351.12 342.899 351.28C342.645 351.433 342.445 351.65 342.299 351.93C342.152 352.21 342.079 352.537 342.079 352.91C342.079 353.283 342.152 353.61 342.299 353.89C342.445 354.17 342.645 354.39 342.899 354.55C343.152 354.703 343.445 354.78 343.779 354.78ZM347.498 355.39V350.43H348.258L348.318 351.15C348.478 350.883 348.691 350.677 348.958 350.53C349.225 350.383 349.525 350.31 349.858 350.31C350.251 350.31 350.588 350.39 350.868 350.55C351.155 350.71 351.375 350.953 351.528 351.28C351.701 350.98 351.938 350.743 352.238 350.57C352.545 350.397 352.875 350.31 353.228 350.31C353.821 350.31 354.295 350.49 354.648 350.85C355.001 351.203 355.178 351.75 355.178 352.49V355.39H354.348V352.58C354.348 352.067 354.245 351.68 354.038 351.42C353.831 351.16 353.535 351.03 353.148 351.03C352.748 351.03 352.415 351.187 352.148 351.5C351.888 351.807 351.758 352.247 351.758 352.82V355.39H350.918V352.58C350.918 352.067 350.815 351.68 350.608 351.42C350.401 351.16 350.105 351.03 349.718 351.03C349.325 351.03 348.995 351.187 348.728 351.5C348.468 351.807 348.338 352.247 348.338 352.82V355.39H347.498Z" fill="white"/>
<path d="M428.716 355.39V353.89H425.166V353.24L428.566 348.39H429.546V353.15H430.586V353.89H429.546V355.39H428.716ZM426.096 353.15H428.756V349.32L426.096 353.15ZM431.551 357.59V350.43H432.311L432.391 351.25C432.551 351.01 432.778 350.793 433.071 350.6C433.371 350.407 433.751 350.31 434.211 350.31C434.704 350.31 435.134 350.423 435.501 350.65C435.868 350.877 436.151 351.187 436.351 351.58C436.558 351.973 436.661 352.42 436.661 352.92C436.661 353.42 436.558 353.867 436.351 354.26C436.151 354.647 435.864 354.953 435.491 355.18C435.124 355.4 434.694 355.51 434.201 355.51C433.794 355.51 433.431 355.427 433.111 355.26C432.798 355.093 432.558 354.86 432.391 354.56V357.59H431.551ZM434.111 354.78C434.444 354.78 434.738 354.703 434.991 354.55C435.244 354.39 435.444 354.17 435.591 353.89C435.738 353.61 435.811 353.283 435.811 352.91C435.811 352.537 435.738 352.21 435.591 351.93C435.444 351.65 435.244 351.433 434.991 351.28C434.738 351.12 434.444 351.04 434.111 351.04C433.778 351.04 433.484 351.12 433.231 351.28C432.978 351.433 432.778 351.65 432.631 351.93C432.484 352.21 432.411 352.537 432.411 352.91C432.411 353.283 432.484 353.61 432.631 353.89C432.778 354.17 432.978 354.39 433.231 354.55C433.484 354.703 433.778 354.78 434.111 354.78ZM437.83 355.39V350.43H438.59L438.65 351.15C438.81 350.883 439.023 350.677 439.29 350.53C439.557 350.383 439.857 350.31 440.19 350.31C440.583 350.31 440.92 350.39 441.2 350.55C441.487 350.71 441.707 350.953 441.86 351.28C442.033 350.98 442.27 350.743 442.57 350.57C442.877 350.397 443.207 350.31 443.56 350.31C444.153 350.31 444.627 350.49 444.98 350.85C445.333 351.203 445.51 351.75 445.51 352.49V355.39H444.68V352.58C444.68 352.067 444.577 351.68 444.37 351.42C444.163 351.16 443.867 351.03 443.48 351.03C443.08 351.03 442.747 351.187 442.48 351.5C442.22 351.807 442.09 352.247 442.09 352.82V355.39H441.25V352.58C441.25 352.067 441.147 351.68 440.94 351.42C440.733 351.16 440.437 351.03 440.05 351.03C439.657 351.03 439.327 351.187 439.06 351.5C438.8 351.807 438.67 352.247 438.67 352.82V355.39H437.83Z" fill="white"/>
<path d="M519.066 355.51C518.559 355.51 518.133 355.417 517.786 355.23C517.439 355.037 517.159 354.78 516.946 354.46C516.739 354.14 516.586 353.783 516.486 353.39C516.393 352.99 516.346 352.583 516.346 352.17C516.346 351.397 516.453 350.72 516.666 350.14C516.879 349.553 517.186 349.097 517.586 348.77C517.993 348.437 518.483 348.27 519.056 348.27C519.496 348.27 519.873 348.357 520.186 348.53C520.499 348.703 520.746 348.937 520.926 349.23C521.113 349.517 521.229 349.837 521.276 350.19H520.496C520.423 349.81 520.259 349.517 520.006 349.31C519.753 349.103 519.433 349 519.046 349C518.519 349 518.076 349.25 517.716 349.75C517.363 350.243 517.173 351.017 517.146 352.07C517.306 351.757 517.559 351.487 517.906 351.26C518.259 351.027 518.683 350.91 519.176 350.91C519.576 350.91 519.949 351.003 520.296 351.19C520.649 351.377 520.936 351.64 521.156 351.98C521.376 352.313 521.486 352.707 521.486 353.16C521.486 353.553 521.389 353.93 521.196 354.29C521.003 354.65 520.723 354.943 520.356 355.17C519.996 355.397 519.566 355.51 519.066 355.51ZM519.006 354.77C519.319 354.77 519.599 354.703 519.846 354.57C520.093 354.437 520.286 354.253 520.426 354.02C520.566 353.78 520.636 353.507 520.636 353.2C520.636 352.727 520.479 352.35 520.166 352.07C519.859 351.783 519.473 351.64 519.006 351.64C518.693 351.64 518.413 351.713 518.166 351.86C517.919 352 517.723 352.19 517.576 352.43C517.436 352.67 517.366 352.93 517.366 353.21C517.366 353.51 517.436 353.78 517.576 354.02C517.723 354.253 517.919 354.437 518.166 354.57C518.413 354.703 518.693 354.77 519.006 354.77ZM522.795 357.59V350.43H523.555L523.635 351.25C523.795 351.01 524.022 350.793 524.315 350.6C524.615 350.407 524.995 350.31 525.455 350.31C525.948 350.31 526.378 350.423 526.745 350.65C527.112 350.877 527.395 351.187 527.595 351.58C527.802 351.973 527.905 352.42 527.905 352.92C527.905 353.42 527.802 353.867 527.595 354.26C527.395 354.647 527.108 354.953 526.735 355.18C526.368 355.4 525.938 355.51 525.445 355.51C525.038 355.51 524.675 355.427 524.355 355.26C524.042 355.093 523.802 354.86 523.635 354.56V357.59H522.795ZM525.355 354.78C525.688 354.78 525.982 354.703 526.235 354.55C526.488 354.39 526.688 354.17 526.835 353.89C526.982 353.61 527.055 353.283 527.055 352.91C527.055 352.537 526.982 352.21 526.835 351.93C526.688 351.65 526.488 351.433 526.235 351.28C525.982 351.12 525.688 351.04 525.355 351.04C525.022 351.04 524.728 351.12 524.475 351.28C524.222 351.433 524.022 351.65 523.875 351.93C523.728 352.21 523.655 352.537 523.655 352.91C523.655 353.283 523.728 353.61 523.875 353.89C524.022 354.17 524.222 354.39 524.475 354.55C524.728 354.703 525.022 354.78 525.355 354.78ZM529.074 355.39V350.43H529.834L529.894 351.15C530.054 350.883 530.268 350.677 530.534 350.53C530.801 350.383 531.101 350.31 531.434 350.31C531.828 350.31 532.164 350.39 532.444 350.55C532.731 350.71 532.951 350.953 533.104 351.28C533.278 350.98 533.514 350.743 533.814 350.57C534.121 350.397 534.451 350.31 534.804 350.31C535.398 350.31 535.871 350.49 536.224 350.85C536.578 351.203 536.754 351.75 536.754 352.49V355.39H535.924V352.58C535.924 352.067 535.821 351.68 535.614 351.42C535.408 351.16 535.111 351.03 534.724 351.03C534.324 351.03 533.991 351.187 533.724 351.5C533.464 351.807 533.334 352.247 533.334 352.82V355.39H532.494V352.58C532.494 352.067 532.391 351.68 532.184 351.42C531.978 351.16 531.681 351.03 531.294 351.03C530.901 351.03 530.571 351.187 530.304 351.5C530.044 351.807 529.914 352.247 529.914 352.82V355.39H529.074Z" fill="white"/>
<path d="M609.856 355.51C609.396 355.51 608.983 355.427 608.616 355.26C608.249 355.087 607.959 354.85 607.746 354.55C607.539 354.243 607.436 353.89 607.436 353.49C607.436 353.063 607.559 352.68 607.806 352.34C608.059 352 608.393 351.773 608.806 351.66C608.426 351.533 608.133 351.33 607.926 351.05C607.719 350.77 607.616 350.463 607.616 350.13C607.616 349.79 607.706 349.48 607.886 349.2C608.066 348.913 608.323 348.687 608.656 348.52C608.989 348.353 609.389 348.27 609.856 348.27C610.323 348.27 610.723 348.353 611.056 348.52C611.389 348.687 611.646 348.913 611.826 349.2C612.006 349.48 612.096 349.79 612.096 350.13C612.096 350.457 611.993 350.763 611.786 351.05C611.579 351.33 611.286 351.533 610.906 351.66C611.319 351.773 611.649 352 611.896 352.34C612.149 352.68 612.276 353.063 612.276 353.49C612.276 353.89 612.169 354.243 611.956 354.55C611.749 354.85 611.463 355.087 611.096 355.26C610.729 355.427 610.316 355.51 609.856 355.51ZM609.856 351.36C610.283 351.36 610.619 351.253 610.866 351.04C611.119 350.82 611.246 350.533 611.246 350.18C611.246 349.787 611.123 349.49 610.876 349.29C610.629 349.09 610.289 348.99 609.856 348.99C609.423 348.99 609.083 349.09 608.836 349.29C608.596 349.49 608.476 349.787 608.476 350.18C608.476 350.533 608.599 350.82 608.846 351.04C609.093 351.253 609.429 351.36 609.856 351.36ZM609.856 354.77C610.383 354.77 610.776 354.65 611.036 354.41C611.303 354.163 611.436 353.84 611.436 353.44C611.436 352.987 611.293 352.643 611.006 352.41C610.719 352.177 610.336 352.06 609.856 352.06C609.376 352.06 608.993 352.177 608.706 352.41C608.419 352.643 608.276 352.987 608.276 353.44C608.276 353.84 608.406 354.163 608.666 354.41C608.933 354.65 609.329 354.77 609.856 354.77ZM613.6 357.59V350.43H614.36L614.44 351.25C614.6 351.01 614.826 350.793 615.12 350.6C615.42 350.407 615.8 350.31 616.26 350.31C616.753 350.31 617.183 350.423 617.55 350.65C617.916 350.877 618.2 351.187 618.4 351.58C618.606 351.973 618.71 352.42 618.71 352.92C618.71 353.42 618.606 353.867 618.4 354.26C618.2 354.647 617.913 354.953 617.54 355.18C617.173 355.4 616.743 355.51 616.25 355.51C615.843 355.51 615.48 355.427 615.16 355.26C614.846 355.093 614.606 354.86 614.44 354.56V357.59H613.6ZM616.16 354.78C616.493 354.78 616.786 354.703 617.04 354.55C617.293 354.39 617.493 354.17 617.64 353.89C617.786 353.61 617.86 353.283 617.86 352.91C617.86 352.537 617.786 352.21 617.64 351.93C617.493 351.65 617.293 351.433 617.04 351.28C616.786 351.12 616.493 351.04 616.16 351.04C615.826 351.04 615.533 351.12 615.28 351.28C615.026 351.433 614.826 351.65 614.68 351.93C614.533 352.21 614.46 352.537 614.46 352.91C614.46 353.283 614.533 353.61 614.68 353.89C614.826 354.17 615.026 354.39 615.28 354.55C615.533 354.703 615.826 354.78 616.16 354.78ZM619.879 355.39V350.43H620.639L620.699 351.15C620.859 350.883 621.072 350.677 621.339 350.53C621.606 350.383 621.906 350.31 622.239 350.31C622.632 350.31 622.969 350.39 623.249 350.55C623.536 350.71 623.756 350.953 623.909 351.28C624.082 350.98 624.319 350.743 624.619 350.57C624.926 350.397 625.256 350.31 625.609 350.31C626.202 350.31 626.676 350.49 627.029 350.85C627.382 351.203 627.559 351.75 627.559 352.49V355.39H626.729V352.58C626.729 352.067 626.626 351.68 626.419 351.42C626.212 351.16 625.916 351.03 625.529 351.03C625.129 351.03 624.796 351.187 624.529 351.5C624.269 351.807 624.139 352.247 624.139 352.82V355.39H623.299V352.58C623.299 352.067 623.196 351.68 622.989 351.42C622.782 351.16 622.486 351.03 622.099 351.03C621.706 351.03 621.376 351.187 621.109 351.5C620.849 351.807 620.719 352.247 620.719 352.82V355.39H619.879Z" fill="white"/>
<g clip-path="url(#clip0)">
<path fill-rule="evenodd" clip-rule="evenodd" d="M452.306 166.443C471.912 166.443 487.806 150.549 487.806 130.943C487.806 111.337 471.912 95.4429 452.306 95.4429C432.7 95.4429 416.806 111.337 416.806 130.943C416.806 150.549 432.7 166.443 452.306 166.443Z" fill="#DAD7FE"/>
<path d="M441.71 136.635C440.974 136.635 440.312 136.502 439.726 136.235C439.139 135.958 438.675 135.579 438.334 135.099C438.003 134.608 437.838 134.043 437.838 133.403C437.838 132.72 438.035 132.107 438.43 131.563C438.835 131.019 439.368 130.656 440.03 130.475C439.422 130.272 438.952 129.947 438.622 129.499C438.291 129.051 438.126 128.56 438.126 128.027C438.126 127.483 438.27 126.987 438.558 126.539C438.846 126.08 439.256 125.718 439.79 125.451C440.323 125.184 440.963 125.051 441.71 125.051C442.456 125.051 443.096 125.184 443.63 125.451C444.163 125.718 444.574 126.08 444.862 126.539C445.15 126.987 445.294 127.483 445.294 128.027C445.294 128.55 445.128 129.04 444.798 129.499C444.467 129.947 443.998 130.272 443.39 130.475C444.051 130.656 444.579 131.019 444.974 131.563C445.379 132.107 445.582 132.72 445.582 133.403C445.582 134.043 445.411 134.608 445.07 135.099C444.739 135.579 444.28 135.958 443.694 136.235C443.107 136.502 442.446 136.635 441.71 136.635ZM441.71 129.995C442.392 129.995 442.931 129.824 443.326 129.483C443.731 129.131 443.934 128.672 443.934 128.107C443.934 127.478 443.736 127.003 443.342 126.683C442.947 126.363 442.403 126.203 441.71 126.203C441.016 126.203 440.472 126.363 440.078 126.683C439.694 127.003 439.502 127.478 439.502 128.107C439.502 128.672 439.699 129.131 440.094 129.483C440.488 129.824 441.027 129.995 441.71 129.995ZM441.71 135.451C442.552 135.451 443.182 135.259 443.598 134.875C444.024 134.48 444.238 133.963 444.238 133.323C444.238 132.598 444.008 132.048 443.55 131.675C443.091 131.302 442.478 131.115 441.71 131.115C440.942 131.115 440.328 131.302 439.87 131.675C439.411 132.048 439.182 132.598 439.182 133.323C439.182 133.963 439.39 134.48 439.806 134.875C440.232 135.259 440.867 135.451 441.71 135.451ZM451.811 136.635C451.001 136.635 450.318 136.486 449.763 136.187C449.209 135.878 448.761 135.467 448.419 134.955C448.089 134.443 447.843 133.872 447.683 133.243C447.534 132.603 447.459 131.952 447.459 131.291C447.459 130.054 447.63 128.971 447.971 128.043C448.313 127.104 448.803 126.374 449.443 125.851C450.094 125.318 450.878 125.051 451.795 125.051C452.499 125.051 453.102 125.19 453.603 125.467C454.105 125.744 454.499 126.118 454.787 126.587C455.086 127.046 455.273 127.558 455.347 128.123H454.099C453.982 127.515 453.721 127.046 453.315 126.715C452.91 126.384 452.398 126.219 451.779 126.219C450.937 126.219 450.227 126.619 449.651 127.419C449.086 128.208 448.782 129.446 448.739 131.131C448.995 130.63 449.401 130.198 449.955 129.835C450.521 129.462 451.198 129.275 451.987 129.275C452.627 129.275 453.225 129.424 453.779 129.723C454.345 130.022 454.803 130.443 455.155 130.987C455.507 131.52 455.683 132.15 455.683 132.875C455.683 133.504 455.529 134.107 455.219 134.683C454.91 135.259 454.462 135.728 453.875 136.091C453.299 136.454 452.611 136.635 451.811 136.635ZM451.715 135.451C452.217 135.451 452.665 135.344 453.059 135.131C453.454 134.918 453.763 134.624 453.987 134.251C454.211 133.867 454.323 133.43 454.323 132.939C454.323 132.182 454.073 131.579 453.571 131.131C453.081 130.672 452.462 130.443 451.715 130.443C451.214 130.443 450.766 130.56 450.371 130.795C449.977 131.019 449.662 131.323 449.427 131.707C449.203 132.091 449.091 132.507 449.091 132.955C449.091 133.435 449.203 133.867 449.427 134.251C449.662 134.624 449.977 134.918 450.371 135.131C450.766 135.344 451.214 135.451 451.715 135.451ZM459.608 130.443C459.128 130.443 458.69 130.336 458.296 130.123C457.912 129.899 457.608 129.59 457.384 129.195C457.16 128.79 457.048 128.31 457.048 127.755C457.048 127.2 457.16 126.726 457.384 126.331C457.618 125.926 457.928 125.616 458.312 125.403C458.706 125.179 459.144 125.067 459.624 125.067C460.104 125.067 460.536 125.179 460.92 125.403C461.304 125.616 461.608 125.926 461.832 126.331C462.056 126.726 462.168 127.2 462.168 127.755C462.168 128.31 462.05 128.79 461.816 129.195C461.592 129.59 461.288 129.899 460.904 130.123C460.52 130.336 460.088 130.443 459.608 130.443ZM458.616 136.443L465.128 125.243H466.472L459.96 136.443H458.616ZM459.608 129.403C459.981 129.403 460.306 129.264 460.584 128.987C460.872 128.71 461.016 128.299 461.016 127.755C461.016 127.2 460.877 126.784 460.6 126.507C460.322 126.219 459.997 126.075 459.624 126.075C459.25 126.075 458.914 126.219 458.616 126.507C458.328 126.784 458.184 127.2 458.184 127.755C458.184 128.299 458.328 128.71 458.616 128.987C458.904 129.264 459.234 129.403 459.608 129.403ZM465.592 136.635C465.112 136.635 464.674 136.528 464.28 136.315C463.896 136.091 463.592 135.782 463.368 135.387C463.144 134.982 463.032 134.502 463.032 133.947C463.032 133.392 463.144 132.918 463.368 132.523C463.602 132.118 463.912 131.808 464.296 131.595C464.68 131.371 465.112 131.259 465.592 131.259C466.072 131.259 466.504 131.371 466.888 131.595C467.272 131.808 467.576 132.118 467.8 132.523C468.024 132.918 468.136 133.392 468.136 133.947C468.136 134.502 468.024 134.982 467.8 135.387C467.576 135.782 467.272 136.091 466.888 136.315C466.504 136.528 466.072 136.635 465.592 136.635ZM465.576 135.595C465.96 135.595 466.29 135.456 466.568 135.179C466.856 134.902 467 134.491 467 133.947C467 133.392 466.861 132.976 466.584 132.699C466.306 132.422 465.976 132.283 465.592 132.283C465.218 132.283 464.888 132.422 464.6 132.699C464.312 132.976 464.168 133.392 464.168 133.947C464.168 134.491 464.306 134.902 464.584 135.179C464.872 135.456 465.202 135.595 465.576 135.595Z" fill="black"/>
<path fill-rule="evenodd" clip-rule="evenodd" d="M452.299 95.4429C450.88 95.4429 449.73 96.5946 449.73 98.0153C449.73 99.4361 450.88 100.588 452.299 100.588C469.043 100.588 482.617 114.178 482.617 130.943C482.617 144.066 474.223 155.58 462.003 159.711C460.658 160.165 459.936 161.625 460.39 162.971C460.844 164.317 462.302 165.04 463.646 164.585C477.94 159.754 487.756 146.29 487.756 130.943C487.756 111.337 471.881 95.4429 452.299 95.4429Z" fill="#4339F2"/>
</g>
<g clip-path="url(#clip1)">
<path fill-rule="evenodd" clip-rule="evenodd" d="M540.306 166.443C559.912 166.443 575.806 150.549 575.806 130.943C575.806 111.337 559.912 95.4429 540.306 95.4429C520.7 95.4429 504.806 111.337 504.806 130.943C504.806 150.549 520.7 166.443 540.306 166.443Z" fill="#34B53A" fill-opacity="0.16"/>
<path fill-rule="evenodd" clip-rule="evenodd" d="M540.299 95.4429C538.88 95.4429 537.73 96.5946 537.73 98.0153C537.73 99.4361 538.88 100.588 540.299 100.588C557.043 100.588 570.617 114.178 570.617 130.943C570.617 147.708 557.043 161.298 540.299 161.298C532.305 161.298 524.808 158.191 519.186 152.728C518.168 151.738 516.541 151.763 515.553 152.782C514.564 153.802 514.589 155.43 515.607 156.42C522.178 162.805 530.956 166.443 540.299 166.443C559.881 166.443 575.755 150.549 575.755 130.943C575.755 111.337 559.881 95.4429 540.299 95.4429Z" fill="#34B53A"/>
<path d="M530.241 136.635C529.43 136.635 528.748 136.486 528.193 136.187C527.638 135.878 527.19 135.467 526.849 134.955C526.518 134.443 526.273 133.872 526.113 133.243C525.964 132.603 525.889 131.952 525.889 131.291C525.889 130.054 526.06 128.971 526.401 128.043C526.742 127.104 527.233 126.374 527.873 125.851C528.524 125.318 529.308 125.051 530.225 125.051C530.929 125.051 531.532 125.19 532.033 125.467C532.534 125.744 532.929 126.118 533.217 126.587C533.516 127.046 533.702 127.558 533.777 128.123H532.529C532.412 127.515 532.15 127.046 531.745 126.715C531.34 126.384 530.828 126.219 530.209 126.219C529.366 126.219 528.657 126.619 528.081 127.419C527.516 128.208 527.212 129.446 527.169 131.131C527.425 130.63 527.83 130.198 528.385 129.835C528.95 129.462 529.628 129.275 530.417 129.275C531.057 129.275 531.654 129.424 532.209 129.723C532.774 130.022 533.233 130.443 533.585 130.987C533.937 131.52 534.113 132.15 534.113 132.875C534.113 133.504 533.958 134.107 533.649 134.683C533.34 135.259 532.892 135.728 532.305 136.091C531.729 136.454 531.041 136.635 530.241 136.635ZM530.145 135.451C530.646 135.451 531.094 135.344 531.489 135.131C531.884 134.918 532.193 134.624 532.417 134.251C532.641 133.867 532.753 133.43 532.753 132.939C532.753 132.182 532.502 131.579 532.001 131.131C531.51 130.672 530.892 130.443 530.145 130.443C529.644 130.443 529.196 130.56 528.801 130.795C528.406 131.019 528.092 131.323 527.857 131.707C527.633 132.091 527.521 132.507 527.521 132.955C527.521 133.435 527.633 133.867 527.857 134.251C528.092 134.624 528.406 134.918 528.801 135.131C529.196 135.344 529.644 135.451 530.145 135.451ZM536.793 136.443L541.241 126.395H535.097V125.243H542.617V126.251L538.217 136.443H536.793ZM546.412 130.443C545.932 130.443 545.495 130.336 545.1 130.123C544.716 129.899 544.412 129.59 544.188 129.195C543.964 128.79 543.852 128.31 543.852 127.755C543.852 127.2 543.964 126.726 544.188 126.331C544.423 125.926 544.732 125.616 545.116 125.403C545.511 125.179 545.948 125.067 546.428 125.067C546.908 125.067 547.34 125.179 547.724 125.403C548.108 125.616 548.412 125.926 548.636 126.331C548.86 126.726 548.972 127.2 548.972 127.755C548.972 128.31 548.855 128.79 548.62 129.195C548.396 129.59 548.092 129.899 547.708 130.123C547.324 130.336 546.892 130.443 546.412 130.443ZM545.42 136.443L551.932 125.243H553.276L546.764 136.443H545.42ZM546.412 129.403C546.786 129.403 547.111 129.264 547.388 128.987C547.676 128.71 547.82 128.299 547.82 127.755C547.82 127.2 547.682 126.784 547.404 126.507C547.127 126.219 546.802 126.075 546.428 126.075C546.055 126.075 545.719 126.219 545.42 126.507C545.132 126.784 544.988 127.2 544.988 127.755C544.988 128.299 545.132 128.71 545.42 128.987C545.708 129.264 546.039 129.403 546.412 129.403ZM552.396 136.635C551.916 136.635 551.479 136.528 551.084 136.315C550.7 136.091 550.396 135.782 550.172 135.387C549.948 134.982 549.836 134.502 549.836 133.947C549.836 133.392 549.948 132.918 550.172 132.523C550.407 132.118 550.716 131.808 551.1 131.595C551.484 131.371 551.916 131.259 552.396 131.259C552.876 131.259 553.308 131.371 553.692 131.595C554.076 131.808 554.38 132.118 554.604 132.523C554.828 132.918 554.94 133.392 554.94 133.947C554.94 134.502 554.828 134.982 554.604 135.387C554.38 135.782 554.076 136.091 553.692 136.315C553.308 136.528 552.876 136.635 552.396 136.635ZM552.38 135.595C552.764 135.595 553.095 135.456 553.372 135.179C553.66 134.902 553.804 134.491 553.804 133.947C553.804 133.392 553.666 132.976 553.388 132.699C553.111 132.422 552.78 132.283 552.396 132.283C552.023 132.283 551.692 132.422 551.404 132.699C551.116 132.976 550.972 133.392 550.972 133.947C550.972 134.491 551.111 134.902 551.388 135.179C551.676 135.456 552.007 135.595 552.38 135.595Z" fill="black"/>
</g>
<g clip-path="url(#clip2)">
<path fill-rule="evenodd" clip-rule="evenodd" d="M628.806 166.443C648.688 166.443 664.806 150.549 664.806 130.943C664.806 111.337 648.688 95.4429 628.806 95.4429C608.924 95.4429 592.806 111.337 592.806 130.943C592.806 150.549 608.924 166.443 628.806 166.443Z" fill="#FFE5D3"/>
<path d="M620.68 136.443V126.747L618.872 127.147V126.219L621.128 125.243H622.04V136.443H620.68ZM629.476 136.443V134.043H623.796V133.003L629.236 125.243H630.804V132.859H632.468V134.043H630.804V136.443H629.476ZM625.284 132.859H629.54V126.731L625.284 132.859ZM636.045 130.443C635.565 130.443 635.128 130.336 634.733 130.123C634.349 129.899 634.045 129.59 633.821 129.195C633.597 128.79 633.485 128.31 633.485 127.755C633.485 127.2 633.597 126.726 633.821 126.331C634.056 125.926 634.365 125.616 634.749 125.403C635.144 125.179 635.581 125.067 636.061 125.067C636.541 125.067 636.973 125.179 637.357 125.403C637.741 125.616 638.045 125.926 638.269 126.331C638.493 126.726 638.605 127.2 638.605 127.755C638.605 128.31 638.488 128.79 638.253 129.195C638.029 129.59 637.725 129.899 637.341 130.123C636.957 130.336 636.525 130.443 636.045 130.443ZM635.053 136.443L641.565 125.243H642.909L636.397 136.443H635.053ZM636.045 129.403C636.419 129.403 636.744 129.264 637.021 128.987C637.309 128.71 637.453 128.299 637.453 127.755C637.453 127.2 637.315 126.784 637.037 126.507C636.76 126.219 636.435 126.075 636.061 126.075C635.688 126.075 635.352 126.219 635.053 126.507C634.765 126.784 634.621 127.2 634.621 127.755C634.621 128.299 634.765 128.71 635.053 128.987C635.341 129.264 635.672 129.403 636.045 129.403ZM642.029 136.635C641.549 136.635 641.112 136.528 640.717 136.315C640.333 136.091 640.029 135.782 639.805 135.387C639.581 134.982 639.469 134.502 639.469 133.947C639.469 133.392 639.581 132.918 639.805 132.523C640.04 132.118 640.349 131.808 640.733 131.595C641.117 131.371 641.549 131.259 642.029 131.259C642.509 131.259 642.941 131.371 643.325 131.595C643.709 131.808 644.013 132.118 644.237 132.523C644.461 132.918 644.573 133.392 644.573 133.947C644.573 134.502 644.461 134.982 644.237 135.387C644.013 135.782 643.709 136.091 643.325 136.315C642.941 136.528 642.509 136.635 642.029 136.635ZM642.013 135.595C642.397 135.595 642.728 135.456 643.005 135.179C643.293 134.902 643.437 134.491 643.437 133.947C643.437 133.392 643.299 132.976 643.021 132.699C642.744 132.422 642.413 132.283 642.029 132.283C641.656 132.283 641.325 132.422 641.037 132.699C640.749 132.976 640.605 133.392 640.605 133.947C640.605 134.491 640.744 134.902 641.021 135.179C641.309 135.456 641.64 135.595 642.013 135.595Z" fill="black"/>
<path fill-rule="evenodd" clip-rule="evenodd" d="M628.799 95.4428C627.36 95.4428 626.193 96.5946 626.193 98.0153C626.193 99.436 627.36 100.588 628.799 100.588C645.71 100.588 659.444 114.073 659.543 130.76C659.552 132.181 660.725 133.326 662.164 133.317C663.603 133.309 664.763 132.15 664.754 130.73C664.638 111.213 648.576 95.4428 628.799 95.4428Z" fill="#FF3A29"/>
</g>
<path d="M610.842 45.4429V35.6429H613.852C615.579 35.6429 616.848 36.0815 617.66 36.9589C618.481 37.8362 618.892 39.0402 618.892 40.5709C618.892 42.0735 618.481 43.2635 617.66 44.1409C616.848 45.0089 615.579 45.4429 613.852 45.4429H610.842ZM612.018 44.4629H613.824C614.776 44.4629 615.532 44.3089 616.092 44.0009C616.661 43.6835 617.067 43.2355 617.31 42.6569C617.553 42.0689 617.674 41.3735 617.674 40.5709C617.674 39.7495 617.553 39.0449 617.31 38.4569C617.067 37.8689 616.661 37.4162 616.092 37.0989C615.532 36.7815 614.776 36.6229 613.824 36.6229H612.018V44.4629ZM622.83 45.6109C622.252 45.6109 621.771 45.5129 621.388 45.3169C621.006 45.1209 620.721 44.8595 620.534 44.5329C620.348 44.2062 620.254 43.8515 620.254 43.4689C620.254 42.7595 620.525 42.2135 621.066 41.8309C621.608 41.4482 622.345 41.2569 623.278 41.2569H625.154V41.1729C625.154 40.5662 624.996 40.1089 624.678 39.8009C624.361 39.4835 623.936 39.3249 623.404 39.3249C622.947 39.3249 622.55 39.4415 622.214 39.6749C621.888 39.8989 621.682 40.2302 621.598 40.6689H620.394C620.441 40.1649 620.609 39.7402 620.898 39.3949C621.197 39.0495 621.566 38.7882 622.004 38.6109C622.443 38.4242 622.91 38.3309 623.404 38.3309C624.375 38.3309 625.103 38.5922 625.588 39.1149C626.083 39.6282 626.33 40.3142 626.33 41.1729V45.4429H625.28L625.21 44.1969C625.014 44.5889 624.725 44.9249 624.342 45.2049C623.969 45.4755 623.465 45.6109 622.83 45.6109ZM623.012 44.6169C623.46 44.6169 623.843 44.5002 624.16 44.2669C624.487 44.0335 624.734 43.7302 624.902 43.3569C625.07 42.9835 625.154 42.5915 625.154 42.1809V42.1669H623.376C622.686 42.1669 622.196 42.2882 621.906 42.5309C621.626 42.7642 621.486 43.0582 621.486 43.4129C621.486 43.7769 621.617 44.0709 621.878 44.2949C622.149 44.5095 622.527 44.6169 623.012 44.6169ZM628.808 36.9589C628.575 36.9589 628.379 36.8842 628.22 36.7349C628.071 36.5762 627.996 36.3802 627.996 36.1469C627.996 35.9229 628.071 35.7362 628.22 35.5869C628.379 35.4375 628.575 35.3629 628.808 35.3629C629.032 35.3629 629.224 35.4375 629.382 35.5869C629.541 35.7362 629.62 35.9229 629.62 36.1469C629.62 36.3802 629.541 36.5762 629.382 36.7349C629.224 36.8842 629.032 36.9589 628.808 36.9589ZM628.22 45.4429V38.4989H629.396V45.4429H628.22ZM631.444 45.4429V35.3629H632.62V45.4429H631.444ZM635.304 48.5229L637.026 44.7709H636.62L633.862 38.4989H635.136L637.432 43.9029L639.868 38.4989H641.086L636.536 48.5229H635.304Z" fill="#92929D"/>
<path d="M60.8862 112.731C59.7982 112.731 58.8062 112.539 57.9102 112.155C57.0302 111.755 56.3262 111.155 55.7982 110.355C55.2702 109.555 54.9902 108.555 54.9582 107.355H57.4782C57.5102 108.251 57.8142 109.011 58.3902 109.635C58.9822 110.243 59.8142 110.547 60.8862 110.547C61.9102 110.547 62.6942 110.267 63.2382 109.707C63.7822 109.131 64.0542 108.419 64.0542 107.571C64.0542 106.547 63.6862 105.787 62.9502 105.291C62.2302 104.795 61.3422 104.547 60.2862 104.547H59.0382V102.435H60.3102C61.2542 102.435 62.0142 102.211 62.5902 101.763C63.1822 101.315 63.4782 100.683 63.4782 99.8669C63.4782 99.1789 63.2462 98.6189 62.7822 98.1869C62.3342 97.7549 61.6942 97.5389 60.8622 97.5389C59.9982 97.5389 59.3182 97.7949 58.8222 98.3069C58.3262 98.8029 58.0542 99.4269 58.0062 100.179H55.4862C55.5182 99.2029 55.7582 98.3549 56.2062 97.6349C56.6702 96.9149 57.3022 96.3549 58.1022 95.9549C58.9022 95.5549 59.8222 95.3549 60.8622 95.3549C61.9822 95.3549 62.9182 95.5549 63.6702 95.9549C64.4382 96.3389 65.0142 96.8669 65.3982 97.5389C65.7982 98.1949 65.9982 98.9149 65.9982 99.6989C65.9982 100.595 65.7502 101.379 65.2542 102.051C64.7582 102.723 64.0942 103.171 63.2622 103.395C64.2222 103.603 65.0142 104.075 65.6382 104.811C66.2622 105.531 66.5742 106.467 66.5742 107.619C66.5742 108.547 66.3582 109.403 65.9262 110.187C65.4942 110.955 64.8542 111.571 64.0062 112.035C63.1582 112.499 62.1182 112.731 60.8862 112.731ZM69.3773 112.443V110.619C70.4653 109.755 71.5053 108.883 72.4973 108.003C73.4893 107.123 74.3693 106.259 75.1373 105.411C75.9213 104.547 76.5373 103.707 76.9853 102.891C77.4333 102.059 77.6573 101.259 77.6573 100.491C77.6573 99.9789 77.5693 99.4989 77.3933 99.0509C77.2173 98.5869 76.9293 98.2189 76.5293 97.9469C76.1293 97.6589 75.5933 97.5149 74.9213 97.5149C73.9133 97.5149 73.1533 97.8349 72.6413 98.4749C72.1453 99.1149 71.9053 99.8829 71.9213 100.779H69.4493C69.4653 99.5949 69.7133 98.6029 70.1933 97.8029C70.6893 97.0029 71.3453 96.3949 72.1613 95.9789C72.9933 95.5629 73.9293 95.3549 74.9693 95.3549C76.5533 95.3549 77.8173 95.8029 78.7613 96.6989C79.7213 97.5789 80.2013 98.8109 80.2013 100.395C80.2013 101.339 79.9693 102.275 79.5053 103.203C79.0573 104.131 78.4653 105.027 77.7293 105.891C77.0093 106.739 76.2333 107.539 75.4013 108.291C74.5693 109.043 73.7773 109.723 73.0253 110.331H80.7053V112.443H69.3773ZM89.9802 112.731C88.4602 112.731 87.1482 112.371 86.0442 111.651C84.9562 110.915 84.1162 109.899 83.5242 108.603C82.9482 107.291 82.6602 105.771 82.6602 104.043C82.6602 102.315 82.9482 100.803 83.5242 99.5069C84.1162 98.1949 84.9562 97.1789 86.0442 96.4589C87.1482 95.7229 88.4602 95.3549 89.9802 95.3549C91.5002 95.3549 92.8042 95.7229 93.8922 96.4589C94.9802 97.1789 95.8122 98.1949 96.3882 99.5069C96.9802 100.803 97.2762 102.315 97.2762 104.043C97.2762 105.771 96.9802 107.291 96.3882 108.603C95.8122 109.899 94.9802 110.915 93.8922 111.651C92.8042 112.371 91.5002 112.731 89.9802 112.731ZM89.9802 110.451C90.8922 110.451 91.7002 110.195 92.4042 109.683C93.1242 109.171 93.6842 108.435 94.0842 107.475C94.4842 106.515 94.6842 105.371 94.6842 104.043C94.6842 102.715 94.4842 101.571 94.0842 100.611C93.6842 99.6509 93.1242 98.9149 92.4042 98.4029C91.7002 97.8909 90.8922 97.6349 89.9802 97.6349C89.0522 97.6349 88.2362 97.8909 87.5322 98.4029C86.8282 98.9149 86.2762 99.6509 85.8762 100.611C85.4762 101.571 85.2762 102.715 85.2762 104.043C85.2762 105.371 85.4762 106.515 85.8762 107.475C86.2762 108.435 86.8282 109.171 87.5322 109.683C88.2362 110.195 89.0522 110.451 89.9802 110.451Z" fill="black"/>
<path d="M157.174 112.443V110.619C158.262 109.755 159.302 108.883 160.294 108.003C161.286 107.123 162.166 106.259 162.934 105.411C163.718 104.547 164.334 103.707 164.782 102.891C165.23 102.059 165.454 101.259 165.454 100.491C165.454 99.9789 165.366 99.4989 165.19 99.0509C165.014 98.5869 164.726 98.2189 164.326 97.9469C163.926 97.6589 163.39 97.5149 162.718 97.5149C161.71 97.5149 160.95 97.8349 160.438 98.4749C159.942 99.1149 159.702 99.8829 159.718 100.779H157.246C157.262 99.5949 157.51 98.6029 157.99 97.8029C158.486 97.0029 159.142 96.3949 159.958 95.9789C160.79 95.5629 161.726 95.3549 162.766 95.3549C164.35 95.3549 165.614 95.8029 166.558 96.6989C167.518 97.5789 167.998 98.8109 167.998 100.395C167.998 101.339 167.766 102.275 167.302 103.203C166.854 104.131 166.262 105.027 165.526 105.891C164.806 106.739 164.03 107.539 163.198 108.291C162.366 109.043 161.574 109.723 160.822 110.331H168.502V112.443H157.174ZM176.621 112.731C175.533 112.731 174.541 112.539 173.645 112.155C172.765 111.755 172.061 111.155 171.533 110.355C171.005 109.555 170.725 108.555 170.693 107.355H173.213C173.245 108.251 173.549 109.011 174.125 109.635C174.717 110.243 175.549 110.547 176.621 110.547C177.645 110.547 178.429 110.267 178.973 109.707C179.517 109.131 179.789 108.419 179.789 107.571C179.789 106.547 179.421 105.787 178.685 105.291C177.965 104.795 177.077 104.547 176.021 104.547H174.773V102.435H176.045C176.989 102.435 177.749 102.211 178.325 101.763C178.917 101.315 179.213 100.683 179.213 99.8669C179.213 99.1789 178.981 98.6189 178.517 98.1869C178.069 97.7549 177.429 97.5389 176.597 97.5389C175.733 97.5389 175.053 97.7949 174.557 98.3069C174.061 98.8029 173.789 99.4269 173.741 100.179H171.221C171.253 99.2029 171.493 98.3549 171.941 97.6349C172.405 96.9149 173.037 96.3549 173.837 95.9549C174.637 95.5549 175.557 95.3549 176.597 95.3549C177.717 95.3549 178.653 95.5549 179.405 95.9549C180.173 96.3389 180.749 96.8669 181.133 97.5389C181.533 98.1949 181.733 98.9149 181.733 99.6989C181.733 100.595 181.485 101.379 180.989 102.051C180.493 102.723 179.829 103.171 178.997 103.395C179.957 103.603 180.749 104.075 181.373 104.811C181.997 105.531 182.309 106.467 182.309 107.619C182.309 108.547 182.093 109.403 181.661 110.187C181.229 110.955 180.589 111.571 179.741 112.035C178.893 112.499 177.853 112.731 176.621 112.731ZM192.168 112.731C190.648 112.731 189.336 112.371 188.232 111.651C187.144 110.915 186.304 109.899 185.712 108.603C185.136 107.291 184.848 105.771 184.848 104.043C184.848 102.315 185.136 100.803 185.712 99.5069C186.304 98.1949 187.144 97.1789 188.232 96.4589C189.336 95.7229 190.648 95.3549 192.168 95.3549C193.688 95.3549 194.992 95.7229 196.08 96.4589C197.168 97.1789 198 98.1949 198.576 99.5069C199.168 100.803 199.464 102.315 199.464 104.043C199.464 105.771 199.168 107.291 198.576 108.603C198 109.899 197.168 110.915 196.08 111.651C194.992 112.371 193.688 112.731 192.168 112.731ZM192.168 110.451C193.08 110.451 193.888 110.195 194.592 109.683C195.312 109.171 195.872 108.435 196.272 107.475C196.672 106.515 196.872 105.371 196.872 104.043C196.872 102.715 196.672 101.571 196.272 100.611C195.872 99.6509 195.312 98.9149 194.592 98.4029C193.888 97.8909 193.08 97.6349 192.168 97.6349C191.24 97.6349 190.424 97.8909 189.72 98.4029C189.016 98.9149 188.464 99.6509 188.064 100.611C187.664 101.571 187.464 102.715 187.464 104.043C187.464 105.371 187.664 106.515 188.064 107.475C188.464 108.435 189.016 109.171 189.72 109.683C190.424 110.195 191.24 110.451 192.168 110.451Z" fill="black"/>
<path d="M261.246 112.731C260.126 112.731 259.11 112.531 258.198 112.131C257.302 111.715 256.582 111.139 256.038 110.403C255.51 109.667 255.246 108.803 255.246 107.811C255.246 106.803 255.526 105.899 256.086 105.099C256.662 104.299 257.422 103.755 258.366 103.467C257.518 103.131 256.862 102.643 256.398 102.003C255.934 101.347 255.702 100.627 255.702 99.8429C255.702 99.0269 255.918 98.2829 256.35 97.6109C256.782 96.9229 257.406 96.3789 258.222 95.9789C259.054 95.5629 260.062 95.3549 261.246 95.3549C262.43 95.3549 263.43 95.5629 264.246 95.9789C265.078 96.3789 265.71 96.9229 266.142 97.6109C266.574 98.2829 266.79 99.0269 266.79 99.8429C266.79 100.611 266.55 101.331 266.07 102.003C265.606 102.659 264.95 103.147 264.102 103.467C265.046 103.771 265.798 104.323 266.358 105.123C266.934 105.907 267.222 106.803 267.222 107.811C267.222 108.803 266.958 109.667 266.43 110.403C265.902 111.139 265.182 111.715 264.27 112.131C263.374 112.531 262.366 112.731 261.246 112.731ZM261.246 102.651C262.174 102.651 262.902 102.411 263.43 101.931C263.974 101.451 264.246 100.835 264.246 100.083C264.246 99.2349 263.982 98.5869 263.454 98.1389C262.926 97.6909 262.19 97.4669 261.246 97.4669C260.302 97.4669 259.566 97.6909 259.038 98.1389C258.51 98.5869 258.246 99.2349 258.246 100.083C258.246 100.835 258.51 101.451 259.038 101.931C259.566 102.411 260.302 102.651 261.246 102.651ZM261.246 110.571C262.398 110.571 263.262 110.299 263.838 109.755C264.414 109.195 264.702 108.483 264.702 107.619C264.702 106.659 264.39 105.923 263.766 105.411C263.158 104.883 262.318 104.619 261.246 104.619C260.174 104.619 259.326 104.883 258.702 105.411C258.078 105.923 257.766 106.659 257.766 107.619C257.766 108.483 258.054 109.195 258.63 109.755C259.222 110.299 260.094 110.571 261.246 110.571ZM277.113 112.731C275.593 112.731 274.281 112.371 273.177 111.651C272.089 110.915 271.249 109.899 270.657 108.603C270.081 107.291 269.793 105.771 269.793 104.043C269.793 102.315 270.081 100.803 270.657 99.5069C271.249 98.1949 272.089 97.1789 273.177 96.4589C274.281 95.7229 275.593 95.3549 277.113 95.3549C278.633 95.3549 279.937 95.7229 281.025 96.4589C282.113 97.1789 282.945 98.1949 283.521 99.5069C284.113 100.803 284.409 102.315 284.409 104.043C284.409 105.771 284.113 107.291 283.521 108.603C282.945 109.899 282.113 110.915 281.025 111.651C279.937 112.371 278.633 112.731 277.113 112.731ZM277.113 110.451C278.025 110.451 278.833 110.195 279.537 109.683C280.257 109.171 280.817 108.435 281.217 107.475C281.617 106.515 281.817 105.371 281.817 104.043C281.817 102.715 281.617 101.571 281.217 100.611C280.817 99.6509 280.257 98.9149 279.537 98.4029C278.833 97.8909 278.025 97.6349 277.113 97.6349C276.185 97.6349 275.369 97.8909 274.665 98.4029C273.961 98.9149 273.409 99.6509 273.009 100.611C272.609 101.571 272.409 102.715 272.409 104.043C272.409 105.371 272.609 106.515 273.009 107.475C273.409 108.435 273.961 109.171 274.665 109.683C275.369 110.195 276.185 110.451 277.113 110.451Z" fill="black"/>
<path fill-rule="evenodd" clip-rule="evenodd" d="M41.3062 86.4429C45.1721 86.4429 48.3062 83.3089 48.3062 79.4429C48.3062 75.5769 45.1721 72.4429 41.3062 72.4429C37.4402 72.4429 34.3062 75.5769 34.3062 79.4429C34.3062 83.3089 37.4402 86.4429 41.3062 86.4429Z" fill="#4339F2"/>
<path d="M55.3422 84.4429V74.6429H58.3522C60.0788 74.6429 61.3482 75.0815 62.1602 75.9589C62.9815 76.8362 63.3922 78.0402 63.3922 79.5709C63.3922 81.0735 62.9815 82.2635 62.1602 83.1409C61.3482 84.0089 60.0788 84.4429 58.3522 84.4429H55.3422ZM56.5182 83.4629H58.3242C59.2762 83.4629 60.0322 83.3089 60.5922 83.0009C61.1615 82.6835 61.5675 82.2355 61.8102 81.6569C62.0528 81.0689 62.1742 80.3735 62.1742 79.5709C62.1742 78.7495 62.0528 78.0449 61.8102 77.4569C61.5675 76.8689 61.1615 76.4162 60.5922 76.0989C60.0322 75.7815 59.2762 75.6229 58.3242 75.6229H56.5182V83.4629ZM68.1422 84.6109C67.4795 84.6109 66.8915 84.4615 66.3782 84.1629C65.8649 83.8549 65.4589 83.4302 65.1602 82.8889C64.8709 82.3475 64.7262 81.7082 64.7262 80.9709C64.7262 80.2429 64.8709 79.6082 65.1602 79.0669C65.4495 78.5162 65.8509 78.0915 66.3642 77.7929C66.8869 77.4849 67.4889 77.3309 68.1702 77.3309C68.8422 77.3309 69.4209 77.4849 69.9062 77.7929C70.4009 78.0915 70.7789 78.4882 71.0402 78.9829C71.3015 79.4775 71.4322 80.0095 71.4322 80.5789C71.4322 80.6815 71.4275 80.7842 71.4182 80.8869C71.4182 80.9895 71.4182 81.1062 71.4182 81.2369H65.8882C65.9162 81.7689 66.0375 82.2122 66.2522 82.5669C66.4762 82.9122 66.7515 83.1735 67.0782 83.3509C67.4142 83.5282 67.7689 83.6169 68.1422 83.6169C68.6275 83.6169 69.0335 83.5049 69.3602 83.2809C69.6869 83.0569 69.9249 82.7535 70.0742 82.3709H71.2362C71.0495 83.0149 70.6902 83.5515 70.1582 83.9809C69.6355 84.4009 68.9635 84.6109 68.1422 84.6109ZM68.1422 78.3249C67.5822 78.3249 67.0829 78.4975 66.6442 78.8429C66.2149 79.1789 65.9675 79.6735 65.9022 80.3269H70.2702C70.2422 79.7015 70.0275 79.2115 69.6262 78.8569C69.2249 78.5022 68.7302 78.3249 68.1422 78.3249ZM72.9909 84.4429V74.3629H74.1669V84.4429H72.9909ZM76.8084 75.9589C76.5751 75.9589 76.3791 75.8842 76.2204 75.7349C76.0711 75.5762 75.9964 75.3802 75.9964 75.1469C75.9964 74.9229 76.0711 74.7362 76.2204 74.5869C76.3791 74.4375 76.5751 74.3629 76.8084 74.3629C77.0324 74.3629 77.2238 74.4375 77.3824 74.5869C77.5411 74.7362 77.6204 74.9229 77.6204 75.1469C77.6204 75.3802 77.5411 75.5762 77.3824 75.7349C77.2238 75.8842 77.0324 75.9589 76.8084 75.9589ZM76.2204 84.4429V77.4989H77.3964V84.4429H76.2204ZM81.446 84.4429L78.814 77.4989H80.046L82.132 83.3089L84.232 77.4989H85.436L82.804 84.4429H81.446ZM89.5113 84.6109C88.8487 84.6109 88.2607 84.4615 87.7473 84.1629C87.234 83.8549 86.828 83.4302 86.5293 82.8889C86.24 82.3475 86.0953 81.7082 86.0953 80.9709C86.0953 80.2429 86.24 79.6082 86.5293 79.0669C86.8187 78.5162 87.22 78.0915 87.7333 77.7929C88.256 77.4849 88.858 77.3309 89.5393 77.3309C90.2113 77.3309 90.79 77.4849 91.2753 77.7929C91.77 78.0915 92.148 78.4882 92.4093 78.9829C92.6707 79.4775 92.8013 80.0095 92.8013 80.5789C92.8013 80.6815 92.7967 80.7842 92.7873 80.8869C92.7873 80.9895 92.7873 81.1062 92.7873 81.2369H87.2573C87.2853 81.7689 87.4067 82.2122 87.6213 82.5669C87.8453 82.9122 88.1207 83.1735 88.4473 83.3509C88.7833 83.5282 89.138 83.6169 89.5113 83.6169C89.9967 83.6169 90.4027 83.5049 90.7293 83.2809C91.056 83.0569 91.294 82.7535 91.4433 82.3709H92.6053C92.4187 83.0149 92.0593 83.5515 91.5273 83.9809C91.0047 84.4009 90.3327 84.6109 89.5113 84.6109ZM89.5113 78.3249C88.9513 78.3249 88.452 78.4975 88.0133 78.8429C87.584 79.1789 87.3367 79.6735 87.2713 80.3269H91.6393C91.6113 79.7015 91.3967 79.2115 90.9953 78.8569C90.594 78.5022 90.0993 78.3249 89.5113 78.3249ZM94.36 84.4429V77.4989H95.424L95.522 78.8289C95.7367 78.3715 96.0634 78.0075 96.502 77.7369C96.9407 77.4662 97.482 77.3309 98.126 77.3309V78.5629H97.804C97.3934 78.5629 97.0154 78.6375 96.67 78.7869C96.3247 78.9269 96.0494 79.1695 95.844 79.5149C95.6387 79.8602 95.536 80.3362 95.536 80.9429V84.4429H94.36ZM102.308 84.6109C101.646 84.6109 101.058 84.4615 100.544 84.1629C100.031 83.8549 99.6249 83.4302 99.3262 82.8889C99.0369 82.3475 98.8922 81.7082 98.8922 80.9709C98.8922 80.2429 99.0369 79.6082 99.3262 79.0669C99.6155 78.5162 100.017 78.0915 100.53 77.7929C101.053 77.4849 101.655 77.3309 102.336 77.3309C103.008 77.3309 103.587 77.4849 104.072 77.7929C104.567 78.0915 104.945 78.4882 105.206 78.9829C105.468 79.4775 105.598 80.0095 105.598 80.5789C105.598 80.6815 105.594 80.7842 105.584 80.8869C105.584 80.9895 105.584 81.1062 105.584 81.2369H100.054C100.082 81.7689 100.204 82.2122 100.418 82.5669C100.642 82.9122 100.918 83.1735 101.244 83.3509C101.58 83.5282 101.935 83.6169 102.308 83.6169C102.794 83.6169 103.2 83.5049 103.526 83.2809C103.853 83.0569 104.091 82.7535 104.24 82.3709H105.402C105.216 83.0149 104.856 83.5515 104.324 83.9809C103.802 84.4009 103.13 84.6109 102.308 84.6109ZM102.308 78.3249C101.748 78.3249 101.249 78.4975 100.81 78.8429C100.381 79.1789 100.134 79.6735 100.068 80.3269H104.436C104.408 79.7015 104.194 79.2115 103.792 78.8569C103.391 78.5022 102.896 78.3249 102.308 78.3249ZM110.307 84.6109C109.616 84.6109 109.01 84.4522 108.487 84.1349C107.974 83.8175 107.572 83.3835 107.283 82.8329C107.003 82.2822 106.863 81.6569 106.863 80.9569C106.863 80.2569 107.008 79.6362 107.297 79.0949C107.586 78.5442 107.988 78.1149 108.501 77.8069C109.014 77.4895 109.621 77.3309 110.321 77.3309C110.89 77.3309 111.394 77.4475 111.833 77.6809C112.272 77.9142 112.612 78.2409 112.855 78.6609V74.3629H114.031V84.4429H112.967L112.855 83.2949C112.631 83.6309 112.309 83.9342 111.889 84.2049C111.469 84.4755 110.942 84.6109 110.307 84.6109ZM110.433 83.5889C110.9 83.5889 111.31 83.4815 111.665 83.2669C112.029 83.0429 112.309 82.7349 112.505 82.3429C112.71 81.9509 112.813 81.4935 112.813 80.9709C112.813 80.4482 112.71 79.9909 112.505 79.5989C112.309 79.2069 112.029 78.9035 111.665 78.6889C111.31 78.4649 110.9 78.3529 110.433 78.3529C109.976 78.3529 109.565 78.4649 109.201 78.6889C108.846 78.9035 108.566 79.2069 108.361 79.5989C108.165 79.9909 108.067 80.4482 108.067 80.9709C108.067 81.4935 108.165 81.9509 108.361 82.3429C108.566 82.7349 108.846 83.0429 109.201 83.2669C109.565 83.4815 109.976 83.5889 110.433 83.5889Z" fill="black"/>
<path fill-rule="evenodd" clip-rule="evenodd" d="M144.306 86.4429C148.172 86.4429 151.306 83.3089 151.306 79.4429C151.306 75.5769 148.172 72.4429 144.306 72.4429C140.44 72.4429 137.306 75.5769 137.306 79.4429C137.306 83.3089 140.44 86.4429 144.306 86.4429Z" fill="#00CE2D"/>
<path d="M158.342 84.4429V74.6429H161.506C162.271 74.6429 162.897 74.7689 163.382 75.0209C163.867 75.2729 164.227 75.6182 164.46 76.0569C164.693 76.4955 164.81 76.9809 164.81 77.5129C164.81 78.1289 164.642 78.6842 164.306 79.1789C163.979 79.6735 163.466 80.0235 162.766 80.2289L164.908 84.4429H163.522L161.534 80.3969H161.45H159.518V84.4429H158.342ZM159.518 79.4729H161.422C162.178 79.4729 162.729 79.2909 163.074 78.9269C163.419 78.5629 163.592 78.0962 163.592 77.5269C163.592 76.9482 163.419 76.4909 163.074 76.1549C162.738 75.8095 162.183 75.6369 161.408 75.6369H159.518V79.4729ZM169.269 84.6109C168.606 84.6109 168.018 84.4615 167.505 84.1629C166.992 83.8549 166.586 83.4302 166.287 82.8889C165.998 82.3475 165.853 81.7082 165.853 80.9709C165.853 80.2429 165.998 79.6082 166.287 79.0669C166.576 78.5162 166.978 78.0915 167.491 77.7929C168.014 77.4849 168.616 77.3309 169.297 77.3309C169.969 77.3309 170.548 77.4849 171.033 77.7929C171.528 78.0915 171.906 78.4882 172.167 78.9829C172.428 79.4775 172.559 80.0095 172.559 80.5789C172.559 80.6815 172.554 80.7842 172.545 80.8869C172.545 80.9895 172.545 81.1062 172.545 81.2369H167.015C167.043 81.7689 167.164 82.2122 167.379 82.5669C167.603 82.9122 167.878 83.1735 168.205 83.3509C168.541 83.5282 168.896 83.6169 169.269 83.6169C169.754 83.6169 170.16 83.5049 170.487 83.2809C170.814 83.0569 171.052 82.7535 171.201 82.3709H172.363C172.176 83.0149 171.817 83.5515 171.285 83.9809C170.762 84.4009 170.09 84.6109 169.269 84.6109ZM169.269 78.3249C168.709 78.3249 168.21 78.4975 167.771 78.8429C167.342 79.1789 167.094 79.6735 167.029 80.3269H171.397C171.369 79.7015 171.154 79.2115 170.753 78.8569C170.352 78.5022 169.857 78.3249 169.269 78.3249ZM175.846 84.4429L173.214 77.4989H174.446L176.532 83.3089L178.632 77.4989H179.836L177.204 84.4429H175.846ZM181.859 75.9589C181.626 75.9589 181.43 75.8842 181.271 75.7349C181.122 75.5762 181.047 75.3802 181.047 75.1469C181.047 74.9229 181.122 74.7362 181.271 74.5869C181.43 74.4375 181.626 74.3629 181.859 74.3629C182.083 74.3629 182.275 74.4375 182.433 74.5869C182.592 74.7362 182.671 74.9229 182.671 75.1469C182.671 75.3802 182.592 75.5762 182.433 75.7349C182.275 75.8842 182.083 75.9589 181.859 75.9589ZM181.271 84.4429V77.4989H182.447V84.4429H181.271ZM187.617 84.6109C186.954 84.6109 186.366 84.4615 185.853 84.1629C185.339 83.8549 184.933 83.4302 184.635 82.8889C184.345 82.3475 184.201 81.7082 184.201 80.9709C184.201 80.2429 184.345 79.6082 184.635 79.0669C184.924 78.5162 185.325 78.0915 185.839 77.7929C186.361 77.4849 186.963 77.3309 187.645 77.3309C188.317 77.3309 188.895 77.4849 189.381 77.7929C189.875 78.0915 190.253 78.4882 190.515 78.9829C190.776 79.4775 190.907 80.0095 190.907 80.5789C190.907 80.6815 190.902 80.7842 190.893 80.8869C190.893 80.9895 190.893 81.1062 190.893 81.2369H185.363C185.391 81.7689 185.512 82.2122 185.727 82.5669C185.951 82.9122 186.226 83.1735 186.553 83.3509C186.889 83.5282 187.243 83.6169 187.617 83.6169C188.102 83.6169 188.508 83.5049 188.835 83.2809C189.161 83.0569 189.399 82.7535 189.549 82.3709H190.711C190.524 83.0149 190.165 83.5515 189.633 83.9809C189.11 84.4009 188.438 84.6109 187.617 84.6109ZM187.617 78.3249C187.057 78.3249 186.557 78.4975 186.119 78.8429C185.689 79.1789 185.442 79.6735 185.377 80.3269H189.745C189.717 79.7015 189.502 79.2115 189.101 78.8569C188.699 78.5022 188.205 78.3249 187.617 78.3249ZM193.592 84.4429L191.562 77.4989H192.738L194.208 82.9449L195.832 77.4989H197.162L198.8 82.9449L200.256 77.4989H201.446L199.416 84.4429H198.212L196.504 78.7169L194.796 84.4429H193.592ZM205.407 84.6109C204.576 84.6109 203.885 84.4009 203.335 83.9809C202.784 83.5609 202.462 82.9915 202.369 82.2729H203.573C203.647 82.6369 203.839 82.9542 204.147 83.2249C204.464 83.4862 204.889 83.6169 205.421 83.6169C205.915 83.6169 206.279 83.5142 206.513 83.3089C206.746 83.0942 206.863 82.8422 206.863 82.5529C206.863 82.1329 206.709 81.8529 206.401 81.7129C206.102 81.5729 205.677 81.4469 205.127 81.3349C204.753 81.2602 204.38 81.1529 204.007 81.0129C203.633 80.8729 203.321 80.6769 203.069 80.4249C202.817 80.1635 202.691 79.8229 202.691 79.4029C202.691 78.7962 202.915 78.3015 203.363 77.9189C203.82 77.5269 204.436 77.3309 205.211 77.3309C205.948 77.3309 206.55 77.5175 207.017 77.8909C207.493 78.2549 207.768 78.7775 207.843 79.4589H206.681C206.634 79.1042 206.48 78.8289 206.219 78.6329C205.967 78.4275 205.626 78.3249 205.197 78.3249C204.777 78.3249 204.45 78.4135 204.217 78.5909C203.993 78.7682 203.881 79.0015 203.881 79.2909C203.881 79.5709 204.025 79.7902 204.315 79.9489C204.613 80.1075 205.015 80.2429 205.519 80.3549C205.948 80.4482 206.354 80.5649 206.737 80.7049C207.129 80.8355 207.446 81.0362 207.689 81.3069C207.941 81.5682 208.067 81.9509 208.067 82.4549C208.076 83.0802 207.838 83.5982 207.353 84.0089C206.877 84.4102 206.228 84.6109 205.407 84.6109Z" fill="black"/>
<path fill-rule="evenodd" clip-rule="evenodd" d="M238.306 86.4429C242.172 86.4429 245.306 83.3089 245.306 79.4429C245.306 75.5769 242.172 72.4429 238.306 72.4429C234.44 72.4429 231.306 75.5769 231.306 79.4429C231.306 83.3089 234.44 86.4429 238.306 86.4429Z" fill="#FF3A29"/>
<path d="M256.64 84.6109C255.679 84.6109 254.848 84.4009 254.148 83.9809C253.457 83.5515 252.921 82.9589 252.538 82.2029C252.155 81.4375 251.964 80.5509 251.964 79.5429C251.964 78.5442 252.155 77.6669 252.538 76.9109C252.921 76.1455 253.457 75.5482 254.148 75.1189C254.848 74.6895 255.679 74.4749 256.64 74.4749C257.76 74.4749 258.67 74.7455 259.37 75.2869C260.079 75.8189 260.532 76.5655 260.728 77.5269H259.426C259.277 76.9202 258.969 76.4349 258.502 76.0709C258.045 75.6975 257.424 75.5109 256.64 75.5109C255.94 75.5109 255.329 75.6742 254.806 76.0009C254.283 76.3182 253.877 76.7802 253.588 77.3869C253.308 77.9842 253.168 78.7029 253.168 79.5429C253.168 80.3829 253.308 81.1062 253.588 81.7129C253.877 82.3102 254.283 82.7722 254.806 83.0989C255.329 83.4162 255.94 83.5749 256.64 83.5749C257.424 83.5749 258.045 83.3975 258.502 83.0429C258.969 82.6789 259.277 82.1982 259.426 81.6009H260.728C260.532 82.5435 260.079 83.2809 259.37 83.8129C258.67 84.3449 257.76 84.6109 256.64 84.6109ZM264.658 84.6109C264.08 84.6109 263.599 84.5129 263.216 84.3169C262.834 84.1209 262.549 83.8595 262.362 83.5329C262.176 83.2062 262.082 82.8515 262.082 82.4689C262.082 81.7595 262.353 81.2135 262.894 80.8309C263.436 80.4482 264.173 80.2569 265.106 80.2569H266.982V80.1729C266.982 79.5662 266.824 79.1089 266.506 78.8009C266.189 78.4835 265.764 78.3249 265.232 78.3249C264.775 78.3249 264.378 78.4415 264.042 78.6749C263.716 78.8989 263.51 79.2302 263.426 79.6689H262.222C262.269 79.1649 262.437 78.7402 262.726 78.3949C263.025 78.0495 263.394 77.7882 263.832 77.6109C264.271 77.4242 264.738 77.3309 265.232 77.3309C266.203 77.3309 266.931 77.5922 267.416 78.1149C267.911 78.6282 268.158 79.3142 268.158 80.1729V84.4429H267.108L267.038 83.1969C266.842 83.5889 266.553 83.9249 266.17 84.2049C265.797 84.4755 265.293 84.6109 264.658 84.6109ZM264.84 83.6169C265.288 83.6169 265.671 83.5002 265.988 83.2669C266.315 83.0335 266.562 82.7302 266.73 82.3569C266.898 81.9835 266.982 81.5915 266.982 81.1809V81.1669H265.204C264.514 81.1669 264.024 81.2882 263.734 81.5309C263.454 81.7642 263.314 82.0582 263.314 82.4129C263.314 82.7769 263.445 83.0709 263.706 83.2949C263.977 83.5095 264.355 83.6169 264.84 83.6169ZM269.923 84.4429V77.4989H270.987L271.057 78.7449C271.281 78.3062 271.603 77.9609 272.023 77.7089C272.443 77.4569 272.919 77.3309 273.451 77.3309C274.272 77.3309 274.925 77.5829 275.411 78.0869C275.905 78.5815 276.153 79.3469 276.153 80.3829V84.4429H274.977V80.5089C274.977 79.0622 274.379 78.3389 273.185 78.3389C272.587 78.3389 272.088 78.5582 271.687 78.9969C271.295 79.4262 271.099 80.0422 271.099 80.8449V84.4429H269.923ZM281.126 84.6109C280.464 84.6109 279.866 84.4615 279.334 84.1629C278.812 83.8549 278.396 83.4302 278.088 82.8889C277.79 82.3382 277.64 81.6989 277.64 80.9709C277.64 80.2429 277.79 79.6082 278.088 79.0669C278.396 78.5162 278.812 78.0915 279.334 77.7929C279.866 77.4849 280.464 77.3309 281.126 77.3309C281.948 77.3309 282.638 77.5455 283.198 77.9749C283.768 78.4042 284.127 78.9782 284.276 79.6969H283.072C282.979 79.2675 282.75 78.9362 282.386 78.7029C282.022 78.4602 281.598 78.3389 281.112 78.3389C280.72 78.3389 280.352 78.4369 280.006 78.6329C279.661 78.8289 279.381 79.1229 279.166 79.5149C278.952 79.9069 278.844 80.3922 278.844 80.9709C278.844 81.5495 278.952 82.0349 279.166 82.4269C279.381 82.8189 279.661 83.1175 280.006 83.3229C280.352 83.5189 280.72 83.6169 281.112 83.6169C281.598 83.6169 282.022 83.5002 282.386 83.2669C282.75 83.0242 282.979 82.6835 283.072 82.2449H284.276C284.136 82.9449 283.782 83.5142 283.212 83.9529C282.643 84.3915 281.948 84.6109 281.126 84.6109ZM289.041 84.6109C288.378 84.6109 287.79 84.4615 287.277 84.1629C286.763 83.8549 286.357 83.4302 286.059 82.8889C285.769 82.3475 285.625 81.7082 285.625 80.9709C285.625 80.2429 285.769 79.6082 286.059 79.0669C286.348 78.5162 286.749 78.0915 287.263 77.7929C287.785 77.4849 288.387 77.3309 289.069 77.3309C289.741 77.3309 290.319 77.4849 290.805 77.7929C291.299 78.0915 291.677 78.4882 291.939 78.9829C292.2 79.4775 292.331 80.0095 292.331 80.5789C292.331 80.6815 292.326 80.7842 292.317 80.8869C292.317 80.9895 292.317 81.1062 292.317 81.2369H286.787C286.815 81.7689 286.936 82.2122 287.151 82.5669C287.375 82.9122 287.65 83.1735 287.977 83.3509C288.313 83.5282 288.667 83.6169 289.041 83.6169C289.526 83.6169 289.932 83.5049 290.259 83.2809C290.585 83.0569 290.823 82.7535 290.973 82.3709H292.135C291.948 83.0149 291.589 83.5515 291.057 83.9809C290.534 84.4009 289.862 84.6109 289.041 84.6109ZM289.041 78.3249C288.481 78.3249 287.981 78.4975 287.543 78.8429C287.113 79.1789 286.866 79.6735 286.801 80.3269H291.169C291.141 79.7015 290.926 79.2115 290.525 78.8569C290.123 78.5022 289.629 78.3249 289.041 78.3249ZM293.889 84.4429V74.3629H295.065V84.4429H293.889ZM296.993 84.4429V74.3629H298.169V84.4429H296.993ZM303.218 84.6109C302.556 84.6109 301.968 84.4615 301.454 84.1629C300.941 83.8549 300.535 83.4302 300.236 82.8889C299.947 82.3475 299.802 81.7082 299.802 80.9709C299.802 80.2429 299.947 79.6082 300.236 79.0669C300.526 78.5162 300.927 78.0915 301.44 77.7929C301.963 77.4849 302.565 77.3309 303.246 77.3309C303.918 77.3309 304.497 77.4849 304.982 77.7929C305.477 78.0915 305.855 78.4882 306.116 78.9829C306.378 79.4775 306.508 80.0095 306.508 80.5789C306.508 80.6815 306.504 80.7842 306.494 80.8869C306.494 80.9895 306.494 81.1062 306.494 81.2369H300.964C300.992 81.7689 301.114 82.2122 301.328 82.5669C301.552 82.9122 301.828 83.1735 302.154 83.3509C302.49 83.5282 302.845 83.6169 303.218 83.6169C303.704 83.6169 304.11 83.5049 304.436 83.2809C304.763 83.0569 305.001 82.7535 305.15 82.3709H306.312C306.126 83.0149 305.766 83.5515 305.234 83.9809C304.712 84.4009 304.04 84.6109 303.218 84.6109ZM303.218 78.3249C302.658 78.3249 302.159 78.4975 301.72 78.8429C301.291 79.1789 301.044 79.6735 300.978 80.3269H305.346C305.318 79.7015 305.104 79.2115 304.702 78.8569C304.301 78.5022 303.806 78.3249 303.218 78.3249ZM311.217 84.6109C310.526 84.6109 309.92 84.4522 309.397 84.1349C308.884 83.8175 308.482 83.3835 308.193 82.8329C307.913 82.2822 307.773 81.6569 307.773 80.9569C307.773 80.2569 307.918 79.6362 308.207 79.0949C308.496 78.5442 308.898 78.1149 309.411 77.8069C309.924 77.4895 310.531 77.3309 311.231 77.3309C311.8 77.3309 312.304 77.4475 312.743 77.6809C313.182 77.9142 313.522 78.2409 313.765 78.6609V74.3629H314.941V84.4429H313.877L313.765 83.2949C313.541 83.6309 313.219 83.9342 312.799 84.2049C312.379 84.4755 311.852 84.6109 311.217 84.6109ZM311.343 83.5889C311.81 83.5889 312.22 83.4815 312.575 83.2669C312.939 83.0429 313.219 82.7349 313.415 82.3429C313.62 81.9509 313.723 81.4935 313.723 80.9709C313.723 80.4482 313.62 79.9909 313.415 79.5989C313.219 79.2069 312.939 78.9035 312.575 78.6889C312.22 78.4649 311.81 78.3529 311.343 78.3529C310.886 78.3529 310.475 78.4649 310.111 78.6889C309.756 78.9035 309.476 79.2069 309.271 79.5989C309.075 79.9909 308.977 80.4482 308.977 80.9709C308.977 81.4935 309.075 81.9509 309.271 82.3429C309.476 82.7349 309.756 83.0429 310.111 83.2669C310.475 83.4815 310.886 83.5889 311.343 83.5889Z" fill="black"/>
<path d="M39.4742 53.7069C37.9488 53.7069 36.6142 53.3695 35.4702 52.6949C34.3262 52.0202 33.4315 51.0889 32.7862 49.9009C32.1408 48.6982 31.8182 47.3122 31.8182 45.7429C31.8182 44.1735 32.1408 42.7949 32.7862 41.6069C33.4315 40.4042 34.3262 39.4655 35.4702 38.7909C36.6142 38.1162 37.9488 37.7789 39.4742 37.7789C40.9995 37.7789 42.3342 38.1162 43.4782 38.7909C44.6222 39.4655 45.5095 40.4042 46.1402 41.6069C46.7855 42.7949 47.1082 44.1735 47.1082 45.7429C47.1082 47.3122 46.7855 48.6982 46.1402 49.9009C45.5095 51.0889 44.6222 52.0202 43.4782 52.6949C42.3342 53.3695 40.9995 53.7069 39.4742 53.7069ZM39.4742 51.6169C40.5302 51.6169 41.4468 51.3822 42.2242 50.9129C43.0162 50.4435 43.6322 49.7689 44.0722 48.8889C44.5122 48.0089 44.7322 46.9602 44.7322 45.7429C44.7322 44.5255 44.5122 43.4769 44.0722 42.5969C43.6322 41.7169 43.0162 41.0422 42.2242 40.5729C41.4468 40.1035 40.5302 39.8689 39.4742 39.8689C38.4182 39.8689 37.4942 40.1035 36.7022 40.5729C35.9102 41.0422 35.2942 41.7169 34.8542 42.5969C34.4288 43.4769 34.2162 44.5255 34.2162 45.7429C34.2162 46.9602 34.4288 48.0089 34.8542 48.8889C35.2942 49.7689 35.9102 50.4435 36.7022 50.9129C37.4942 51.3822 38.4182 51.6169 39.4742 51.6169ZM49.618 53.4429V42.5309H51.708L51.906 44.5989C52.2874 43.8802 52.8154 43.3155 53.49 42.9049C54.1794 42.4795 55.008 42.2669 55.976 42.2669V44.7089H55.338C54.6927 44.7089 54.1134 44.8189 53.6 45.0389C53.1014 45.2442 52.698 45.6035 52.39 46.1169C52.0967 46.6155 51.95 47.3122 51.95 48.2069V53.4429H49.618ZM62.6467 53.7069C61.5907 53.7069 60.6594 53.4575 59.8527 52.9589C59.046 52.4602 58.4154 51.7782 57.9607 50.9129C57.506 50.0475 57.2787 49.0649 57.2787 47.9649C57.2787 46.8649 57.506 45.8895 57.9607 45.0389C58.4154 44.1735 59.046 43.4989 59.8527 43.0149C60.674 42.5162 61.6127 42.2669 62.6687 42.2669C63.534 42.2669 64.2894 42.4355 64.9347 42.7729C65.5947 43.1102 66.108 43.5869 66.4747 44.2029V37.6029H68.8067V53.4429H66.7167L66.4747 51.7489C66.1227 52.2622 65.6387 52.7169 65.0227 53.1129C64.4067 53.5089 63.6147 53.7069 62.6467 53.7069ZM63.0647 51.6829C64.062 51.6829 64.876 51.3382 65.5067 50.6489C66.152 49.9595 66.4747 49.0722 66.4747 47.9869C66.4747 46.8869 66.152 45.9995 65.5067 45.3249C64.876 44.6355 64.062 44.2909 63.0647 44.2909C62.0674 44.2909 61.246 44.6355 60.6007 45.3249C59.9554 45.9995 59.6327 46.8869 59.6327 47.9869C59.6327 48.7055 59.7794 49.3435 60.0727 49.9009C60.366 50.4582 60.7694 50.8982 61.2827 51.2209C61.8107 51.5289 62.4047 51.6829 63.0647 51.6829ZM76.8509 53.7069C75.7803 53.7069 74.8269 53.4722 73.9909 53.0029C73.1696 52.5189 72.5243 51.8515 72.0549 51.0009C71.5856 50.1502 71.3509 49.1602 71.3509 48.0309C71.3509 46.8869 71.5783 45.8822 72.0329 45.0169C72.5023 44.1515 73.1476 43.4769 73.9689 42.9929C74.8049 42.5089 75.7729 42.2669 76.8729 42.2669C77.9436 42.2669 78.8749 42.5089 79.6669 42.9929C80.4589 43.4622 81.075 44.0929 81.515 44.8849C81.9549 45.6769 82.1749 46.5495 82.1749 47.5029C82.1749 47.6495 82.1676 47.8109 82.1529 47.9869C82.1529 48.1482 82.1456 48.3315 82.1309 48.5369H73.6389C73.7123 49.5929 74.0569 50.3995 74.6729 50.9569C75.3036 51.4995 76.0296 51.7709 76.8509 51.7709C77.5109 51.7709 78.0609 51.6242 78.5009 51.3309C78.9556 51.0229 79.2929 50.6122 79.5129 50.0989H81.8449C81.5516 51.1255 80.9649 51.9835 80.0849 52.6729C79.2196 53.3622 78.1416 53.7069 76.8509 53.7069ZM76.8509 44.1809C76.0736 44.1809 75.3843 44.4155 74.7829 44.8849C74.1816 45.3395 73.8149 46.0289 73.6829 46.9529H79.8429C79.7989 46.1022 79.4983 45.4275 78.9409 44.9289C78.3836 44.4302 77.6869 44.1809 76.8509 44.1809ZM84.5946 53.4429V42.5309H86.6846L86.8826 44.5989C87.2639 43.8802 87.7919 43.3155 88.4666 42.9049C89.1559 42.4795 89.9846 42.2669 90.9526 42.2669V44.7089H90.3146C89.6693 44.7089 89.0899 44.8189 88.5766 45.0389C88.0779 45.2442 87.6746 45.6035 87.3666 46.1169C87.0733 46.6155 86.9266 47.3122 86.9266 48.2069V53.4429H84.5946ZM97.308 53.7069C95.9294 53.7069 94.7927 53.3695 93.898 52.6949C93.0034 52.0202 92.49 51.1255 92.358 50.0109H94.712C94.8294 50.5095 95.108 50.9422 95.548 51.3089C95.988 51.6609 96.5674 51.8369 97.286 51.8369C97.99 51.8369 98.5034 51.6902 98.826 51.3969C99.1487 51.1035 99.31 50.7662 99.31 50.3849C99.31 49.8275 99.0827 49.4535 98.628 49.2629C98.188 49.0575 97.572 48.8742 96.78 48.7129C96.164 48.5809 95.548 48.4049 94.932 48.1849C94.3307 47.9649 93.8247 47.6569 93.414 47.2609C93.018 46.8502 92.82 46.3002 92.82 45.6109C92.82 44.6575 93.1867 43.8655 93.92 43.2349C94.6534 42.5895 95.68 42.2669 97 42.2669C98.2174 42.2669 99.2 42.5602 99.948 43.1469C100.711 43.7335 101.158 44.5622 101.29 45.6329H99.046C98.9727 45.1635 98.7527 44.7969 98.386 44.5329C98.034 44.2689 97.5574 44.1369 96.956 44.1369C96.3694 44.1369 95.9147 44.2615 95.592 44.5109C95.2694 44.7455 95.108 45.0535 95.108 45.4349C95.108 45.8162 95.328 46.1169 95.768 46.3369C96.2227 46.5569 96.8167 46.7549 97.55 46.9309C98.2834 47.0922 98.958 47.2829 99.574 47.5029C100.205 47.7082 100.711 48.0162 101.092 48.4269C101.473 48.8375 101.664 49.4389 101.664 50.2309C101.679 51.2282 101.29 52.0569 100.498 52.7169C99.7207 53.3769 98.6574 53.7069 97.308 53.7069ZM113.449 53.4429V39.9349H108.895V38.0429H120.313V39.9349H115.781V53.4429H113.449ZM125.535 53.7069C124.493 53.7069 123.555 53.4722 122.719 53.0029C121.897 52.5189 121.245 51.8515 120.761 51.0009C120.277 50.1355 120.035 49.1309 120.035 47.9869C120.035 46.8429 120.277 45.8455 120.761 44.9949C121.259 44.1295 121.927 43.4622 122.763 42.9929C123.599 42.5089 124.53 42.2669 125.557 42.2669C126.598 42.2669 127.529 42.5089 128.351 42.9929C129.187 43.4622 129.847 44.1295 130.331 44.9949C130.829 45.8455 131.079 46.8429 131.079 47.9869C131.079 49.1309 130.829 50.1355 130.331 51.0009C129.847 51.8515 129.187 52.5189 128.351 53.0029C127.515 53.4722 126.576 53.7069 125.535 53.7069ZM125.535 51.7049C126.092 51.7049 126.605 51.5655 127.075 51.2869C127.559 51.0082 127.947 50.5975 128.241 50.0549C128.534 49.4975 128.681 48.8082 128.681 47.9869C128.681 47.1655 128.534 46.4835 128.241 45.9409C127.962 45.3835 127.581 44.9655 127.097 44.6869C126.627 44.4082 126.114 44.2689 125.557 44.2689C124.999 44.2689 124.479 44.4082 123.995 44.6869C123.525 44.9655 123.144 45.3835 122.851 45.9409C122.557 46.4835 122.411 47.1655 122.411 47.9869C122.411 48.8082 122.557 49.4975 122.851 50.0549C123.144 50.5975 123.525 51.0082 123.995 51.2869C124.464 51.5655 124.977 51.7049 125.535 51.7049ZM138.572 53.7069C137.516 53.7069 136.585 53.4575 135.778 52.9589C134.972 52.4602 134.341 51.7782 133.886 50.9129C133.432 50.0475 133.204 49.0649 133.204 47.9649C133.204 46.8649 133.432 45.8895 133.886 45.0389C134.341 44.1735 134.972 43.4989 135.778 43.0149C136.6 42.5162 137.538 42.2669 138.594 42.2669C139.46 42.2669 140.215 42.4355 140.86 42.7729C141.52 43.1102 142.034 43.5869 142.4 44.2029V37.6029H144.732V53.4429H142.642L142.4 51.7489C142.048 52.2622 141.564 52.7169 140.948 53.1129C140.332 53.5089 139.54 53.7069 138.572 53.7069ZM138.99 51.6829C139.988 51.6829 140.802 51.3382 141.432 50.6489C142.078 49.9595 142.4 49.0722 142.4 47.9869C142.4 46.8869 142.078 45.9995 141.432 45.3249C140.802 44.6355 139.988 44.2909 138.99 44.2909C137.993 44.2909 137.172 44.6355 136.526 45.3249C135.881 45.9995 135.558 46.8869 135.558 47.9869C135.558 48.7055 135.705 49.3435 135.998 49.9009C136.292 50.4582 136.695 50.8982 137.208 51.2209C137.736 51.5289 138.33 51.6829 138.99 51.6829ZM151.369 53.7069C150.445 53.7069 149.682 53.5529 149.081 53.2449C148.479 52.9369 148.032 52.5335 147.739 52.0349C147.445 51.5215 147.299 50.9642 147.299 50.3629C147.299 49.3069 147.709 48.4709 148.531 47.8549C149.352 47.2389 150.525 46.9309 152.051 46.9309H154.911V46.7329C154.911 45.8822 154.676 45.2442 154.207 44.8189C153.752 44.3935 153.158 44.1809 152.425 44.1809C151.779 44.1809 151.215 44.3422 150.731 44.6649C150.261 44.9729 149.975 45.4349 149.873 46.0509H147.541C147.614 45.2589 147.878 44.5842 148.333 44.0269C148.802 43.4549 149.389 43.0222 150.093 42.7289C150.811 42.4209 151.596 42.2669 152.447 42.2669C153.972 42.2669 155.153 42.6702 155.989 43.4769C156.825 44.2689 157.243 45.3542 157.243 46.7329V53.4429H155.219L155.021 51.5729C154.713 52.1742 154.265 52.6802 153.679 53.0909C153.092 53.5015 152.322 53.7069 151.369 53.7069ZM151.831 51.8149C152.461 51.8149 152.989 51.6682 153.415 51.3749C153.855 51.0669 154.192 50.6635 154.427 50.1649C154.676 49.6662 154.83 49.1162 154.889 48.5149H152.293C151.369 48.5149 150.709 48.6762 150.313 48.9989C149.931 49.3215 149.741 49.7249 149.741 50.2089C149.741 50.7075 149.924 51.1035 150.291 51.3969C150.672 51.6755 151.185 51.8149 151.831 51.8149ZM160.894 58.2829L163.512 52.5409H162.874L158.562 42.5309H161.092L164.436 50.6049L167.934 42.5309H170.398L163.358 58.2829H160.894Z" fill="black"/>
<defs>
<clipPath id="clip0">
<rect width="71" height="71" fill="white" transform="translate(416.806 95.4429)"/>
</clipPath>
<clipPath id="clip1">
<rect width="71" height="71" fill="white" transform="translate(504.806 95.4429)"/>
</clipPath>
<clipPath id="clip2">
<rect width="72" height="71" fill="white" transform="translate(592.806 95.4429)"/>
</clipPath>
</defs>
</svg>
