<svg width="327" height="158" viewBox="0 0 327 158" fill="none" xmlns="http://www.w3.org/2000/svg">
<rect x="0.80603" y="0.442871" width="326" height="157" rx="12" fill="white"/>
<path d="M30.426 44.4429V32.5029H26.346V30.4429H37.086V32.5029H32.986V44.4429H30.426ZM41.8856 44.6829C40.9256 44.6829 40.0589 44.4629 39.2856 44.0229C38.5256 43.5829 37.9189 42.9762 37.4656 42.2029C37.0256 41.4162 36.8056 40.5095 36.8056 39.4829C36.8056 38.4562 37.0322 37.5562 37.4856 36.7829C37.9389 35.9962 38.5456 35.3829 39.3056 34.9429C40.0789 34.5029 40.9456 34.2829 41.9056 34.2829C42.8522 34.2829 43.7056 34.5029 44.4656 34.9429C45.2389 35.3829 45.8456 35.9962 46.2856 36.7829C46.7389 37.5562 46.9656 38.4562 46.9656 39.4829C46.9656 40.5095 46.7389 41.4162 46.2856 42.2029C45.8456 42.9762 45.2389 43.5829 44.4656 44.0229C43.6922 44.4629 42.8322 44.6829 41.8856 44.6829ZM41.8856 42.4629C42.5522 42.4629 43.1322 42.2162 43.6256 41.7229C44.1189 41.2162 44.3656 40.4695 44.3656 39.4829C44.3656 38.4962 44.1189 37.7562 43.6256 37.2629C43.1322 36.7562 42.5589 36.5029 41.9056 36.5029C41.2256 36.5029 40.6389 36.7562 40.1456 37.2629C39.6656 37.7562 39.4256 38.4962 39.4256 39.4829C39.4256 40.4695 39.6656 41.2162 40.1456 41.7229C40.6389 42.2162 41.2189 42.4629 41.8856 42.4629ZM53.2838 44.4429C52.2438 44.4429 51.4105 44.1895 50.7838 43.6829C50.1572 43.1762 49.8438 42.2762 49.8438 40.9829V36.6629H48.1438V34.5229H49.8438L50.1438 31.8629H52.4038V34.5229H55.0838V36.6629H52.4038V41.0029C52.4038 41.4829 52.5038 41.8162 52.7038 42.0029C52.9172 42.1762 53.2772 42.2629 53.7838 42.2629H55.0238V44.4429H53.2838ZM60.7018 44.6829C59.8485 44.6829 59.1485 44.5495 58.6018 44.2829C58.0551 44.0029 57.6485 43.6362 57.3818 43.1829C57.1151 42.7295 56.9818 42.2295 56.9818 41.6829C56.9818 40.7629 57.3418 40.0162 58.0618 39.4429C58.7818 38.8695 59.8618 38.5829 61.3018 38.5829H63.8218V38.3429C63.8218 37.6629 63.6285 37.1629 63.2418 36.8429C62.8551 36.5229 62.3751 36.3629 61.8018 36.3629C61.2818 36.3629 60.8285 36.4895 60.4418 36.7429C60.0551 36.9829 59.8151 37.3429 59.7218 37.8229H57.2218C57.2885 37.1029 57.5285 36.4762 57.9418 35.9429C58.3685 35.4095 58.9151 35.0029 59.5818 34.7229C60.2485 34.4295 60.9951 34.2829 61.8218 34.2829C63.2351 34.2829 64.3485 34.6362 65.1618 35.3429C65.9751 36.0495 66.3818 37.0495 66.3818 38.3429V44.4429H64.2018L63.9618 42.8429C63.6685 43.3762 63.2551 43.8162 62.7218 44.1629C62.2018 44.5095 61.5285 44.6829 60.7018 44.6829ZM61.2818 42.6829C62.0151 42.6829 62.5818 42.4429 62.9818 41.9629C63.3951 41.4829 63.6551 40.8895 63.7618 40.1829H61.5818C60.9018 40.1829 60.4151 40.3095 60.1218 40.5629C59.8285 40.8029 59.6818 41.1029 59.6818 41.4629C59.6818 41.8495 59.8285 42.1495 60.1218 42.3629C60.4151 42.5762 60.8018 42.6829 61.2818 42.6829ZM68.8248 44.4429V30.0429H71.3848V44.4429H68.8248ZM78.8262 44.4429V30.4429H87.9662V32.5029H81.3862V36.3429H87.3662V38.3429H81.3862V42.3829H87.9662V44.4429H78.8262ZM89.3887 44.4429L92.9887 39.4829L89.3887 34.5229H92.1287L94.6487 38.0429L97.1487 34.5229H99.9087L96.2887 39.4829L99.9087 44.4429H97.1487L94.6487 40.9229L92.1287 44.4429H89.3887ZM105.872 44.6829C104.859 44.6829 103.966 44.4629 103.192 44.0229C102.419 43.5829 101.806 42.9695 101.352 42.1829C100.912 41.3962 100.692 40.4962 100.692 39.4829C100.692 38.4695 100.912 37.5695 101.352 36.7829C101.806 35.9962 102.419 35.3829 103.192 34.9429C103.966 34.5029 104.859 34.2829 105.872 34.2829C107.139 34.2829 108.206 34.6162 109.072 35.2829C109.939 35.9362 110.492 36.8429 110.732 38.0029H108.032C107.899 37.5229 107.632 37.1495 107.232 36.8829C106.846 36.6029 106.386 36.4629 105.852 36.4629C105.146 36.4629 104.546 36.7295 104.052 37.2629C103.559 37.7962 103.312 38.5362 103.312 39.4829C103.312 40.4295 103.559 41.1695 104.052 41.7029C104.546 42.2362 105.146 42.5029 105.852 42.5029C106.386 42.5029 106.846 42.3695 107.232 42.1029C107.632 41.8362 107.899 41.4562 108.032 40.9629H110.732C110.492 42.0829 109.939 42.9829 109.072 43.6629C108.206 44.3429 107.139 44.6829 105.872 44.6829ZM113.004 44.4429V30.0429H115.564V36.0429C115.898 35.4962 116.344 35.0695 116.904 34.7629C117.478 34.4429 118.131 34.2829 118.864 34.2829C120.091 34.2829 121.038 34.6695 121.704 35.4429C122.384 36.2162 122.724 37.3495 122.724 38.8429V44.4429H120.184V39.0829C120.184 38.2295 120.011 37.5762 119.664 37.1229C119.331 36.6695 118.798 36.4429 118.064 36.4429C117.344 36.4429 116.744 36.6962 116.264 37.2029C115.798 37.7095 115.564 38.4162 115.564 39.3229V44.4429H113.004ZM128.592 44.6829C127.739 44.6829 127.039 44.5495 126.492 44.2829C125.946 44.0029 125.539 43.6362 125.272 43.1829C125.006 42.7295 124.872 42.2295 124.872 41.6829C124.872 40.7629 125.232 40.0162 125.952 39.4429C126.672 38.8695 127.752 38.5829 129.192 38.5829H131.712V38.3429C131.712 37.6629 131.519 37.1629 131.132 36.8429C130.746 36.5229 130.266 36.3629 129.692 36.3629C129.172 36.3629 128.719 36.4895 128.332 36.7429C127.946 36.9829 127.706 37.3429 127.612 37.8229H125.112C125.179 37.1029 125.419 36.4762 125.832 35.9429C126.259 35.4095 126.806 35.0029 127.472 34.7229C128.139 34.4295 128.886 34.2829 129.712 34.2829C131.126 34.2829 132.239 34.6362 133.052 35.3429C133.866 36.0495 134.272 37.0495 134.272 38.3429V44.4429H132.092L131.852 42.8429C131.559 43.3762 131.146 43.8162 130.612 44.1629C130.092 44.5095 129.419 44.6829 128.592 44.6829ZM129.172 42.6829C129.906 42.6829 130.472 42.4429 130.872 41.9629C131.286 41.4829 131.546 40.8895 131.652 40.1829H129.472C128.792 40.1829 128.306 40.3095 128.012 40.5629C127.719 40.8029 127.572 41.1029 127.572 41.4629C127.572 41.8495 127.719 42.1495 128.012 42.3629C128.306 42.5762 128.692 42.6829 129.172 42.6829ZM136.715 44.4429V34.5229H138.975L139.175 36.2029C139.482 35.6162 139.922 35.1495 140.495 34.8029C141.082 34.4562 141.769 34.2829 142.555 34.2829C143.782 34.2829 144.735 34.6695 145.415 35.4429C146.095 36.2162 146.435 37.3495 146.435 38.8429V44.4429H143.875V39.0829C143.875 38.2295 143.702 37.5762 143.355 37.1229C143.009 36.6695 142.469 36.4429 141.735 36.4429C141.015 36.4429 140.422 36.6962 139.955 37.2029C139.502 37.7095 139.275 38.4162 139.275 39.3229V44.4429H136.715ZM153.083 41.4829C152.603 41.4829 152.157 41.4295 151.743 41.3229L151.003 42.0629C151.23 42.1829 151.537 42.2829 151.923 42.3629C152.31 42.4429 152.937 42.5229 153.803 42.6029C155.123 42.7229 156.083 43.0362 156.683 43.5429C157.283 44.0495 157.583 44.7495 157.583 45.6429C157.583 46.2295 157.423 46.7829 157.103 47.3029C156.783 47.8362 156.29 48.2629 155.623 48.5829C154.957 48.9162 154.103 49.0829 153.063 49.0829C151.65 49.0829 150.51 48.8162 149.643 48.2829C148.777 47.7629 148.343 46.9762 148.343 45.9229C148.343 45.0295 148.777 44.2562 149.643 43.6029C149.377 43.4829 149.143 43.3562 148.943 43.2229C148.757 43.0895 148.59 42.9495 148.443 42.8029V42.3429L150.183 40.5029C149.41 39.8229 149.023 38.9495 149.023 37.8829C149.023 37.2162 149.183 36.6095 149.503 36.0629C149.837 35.5162 150.303 35.0829 150.903 34.7629C151.503 34.4429 152.23 34.2829 153.083 34.2829C153.643 34.2829 154.163 34.3629 154.643 34.5229H158.403V36.0829L156.703 36.2029C156.97 36.7095 157.103 37.2695 157.103 37.8829C157.103 38.5495 156.943 39.1562 156.623 39.7029C156.303 40.2495 155.837 40.6829 155.223 41.0029C154.623 41.3229 153.91 41.4829 153.083 41.4829ZM153.083 39.5229C153.603 39.5229 154.03 39.3829 154.363 39.1029C154.71 38.8229 154.883 38.4229 154.883 37.9029C154.883 37.3829 154.71 36.9829 154.363 36.7029C154.03 36.4229 153.603 36.2829 153.083 36.2829C152.537 36.2829 152.097 36.4229 151.763 36.7029C151.43 36.9829 151.263 37.3829 151.263 37.9029C151.263 38.4229 151.43 38.8229 151.763 39.1029C152.097 39.3829 152.537 39.5229 153.083 39.5229ZM150.683 45.6629C150.683 46.1562 150.91 46.5229 151.363 46.7629C151.83 47.0162 152.397 47.1429 153.063 47.1429C153.703 47.1429 154.223 47.0095 154.623 46.7429C155.023 46.4895 155.223 46.1429 155.223 45.7029C155.223 45.3429 155.09 45.0429 154.823 44.8029C154.57 44.5629 154.057 44.4162 153.283 44.3629C152.737 44.3229 152.23 44.2629 151.763 44.1829C151.377 44.3962 151.097 44.6295 150.923 44.8829C150.763 45.1362 150.683 45.3962 150.683 45.6629ZM164.699 44.6829C163.699 44.6829 162.813 44.4695 162.039 44.0429C161.266 43.6162 160.659 43.0162 160.219 42.2429C159.779 41.4695 159.559 40.5762 159.559 39.5629C159.559 38.5362 159.773 37.6229 160.199 36.8229C160.639 36.0229 161.239 35.4029 161.999 34.9629C162.773 34.5095 163.679 34.2829 164.719 34.2829C165.693 34.2829 166.553 34.4962 167.299 34.9229C168.046 35.3495 168.626 35.9362 169.039 36.6829C169.466 37.4162 169.679 38.2362 169.679 39.1429C169.679 39.2895 169.673 39.4429 169.659 39.6029C169.659 39.7629 169.653 39.9295 169.639 40.1029H162.099C162.153 40.8762 162.419 41.4829 162.899 41.9229C163.393 42.3629 163.986 42.5829 164.679 42.5829C165.199 42.5829 165.633 42.4695 165.979 42.2429C166.339 42.0029 166.606 41.6962 166.779 41.3229H169.379C169.193 41.9495 168.879 42.5229 168.439 43.0429C168.013 43.5495 167.479 43.9495 166.839 44.2429C166.213 44.5362 165.499 44.6829 164.699 44.6829ZM164.719 36.3629C164.093 36.3629 163.539 36.5429 163.059 36.9029C162.579 37.2495 162.273 37.7829 162.139 38.5029H167.079C167.039 37.8495 166.799 37.3295 166.359 36.9429C165.919 36.5562 165.373 36.3629 164.719 36.3629ZM27.166 70.4429V56.4429H32.346C33.466 56.4429 34.3927 56.6295 35.126 57.0029C35.8594 57.3762 36.406 57.8895 36.766 58.5429C37.126 59.1962 37.306 59.9295 37.306 60.7429C37.306 61.5162 37.1327 62.2295 36.786 62.8829C36.4394 63.5229 35.8994 64.0429 35.166 64.4429C34.4327 64.8295 33.4927 65.0229 32.346 65.0229H29.726V70.4429H27.166ZM29.726 62.9429H32.186C33.0794 62.9429 33.7194 62.7495 34.106 62.3629C34.506 61.9629 34.706 61.4229 34.706 60.7429C34.706 60.0495 34.506 59.5095 34.106 59.1229C33.7194 58.7229 33.0794 58.5229 32.186 58.5229H29.726V62.9429ZM43.5067 70.6829C42.5467 70.6829 41.68 70.4629 40.9067 70.0229C40.1467 69.5829 39.54 68.9762 39.0867 68.2029C38.6467 67.4162 38.4267 66.5095 38.4267 65.4829C38.4267 64.4562 38.6533 63.5562 39.1067 62.7829C39.56 61.9962 40.1667 61.3829 40.9267 60.9429C41.7 60.5029 42.5667 60.2829 43.5267 60.2829C44.4733 60.2829 45.3267 60.5029 46.0867 60.9429C46.86 61.3829 47.4667 61.9962 47.9067 62.7829C48.36 63.5562 48.5867 64.4562 48.5867 65.4829C48.5867 66.5095 48.36 67.4162 47.9067 68.2029C47.4667 68.9762 46.86 69.5829 46.0867 70.0229C45.3133 70.4629 44.4533 70.6829 43.5067 70.6829ZM43.5067 68.4629C44.1733 68.4629 44.7533 68.2162 45.2467 67.7229C45.74 67.2162 45.9867 66.4695 45.9867 65.4829C45.9867 64.4962 45.74 63.7562 45.2467 63.2629C44.7533 62.7562 44.18 62.5029 43.5267 62.5029C42.8467 62.5029 42.26 62.7562 41.7667 63.2629C41.2867 63.7562 41.0467 64.4962 41.0467 65.4829C41.0467 66.4695 41.2867 67.2162 41.7667 67.7229C42.26 68.2162 42.84 68.4629 43.5067 68.4629ZM55.6356 70.6829C54.6756 70.6829 53.8089 70.4629 53.0356 70.0229C52.2756 69.5829 51.6689 68.9762 51.2156 68.2029C50.7756 67.4162 50.5556 66.5095 50.5556 65.4829C50.5556 64.4562 50.7822 63.5562 51.2356 62.7829C51.6889 61.9962 52.2956 61.3829 53.0556 60.9429C53.8289 60.5029 54.6956 60.2829 55.6556 60.2829C56.6022 60.2829 57.4556 60.5029 58.2156 60.9429C58.9889 61.3829 59.5956 61.9962 60.0356 62.7829C60.4889 63.5562 60.7156 64.4562 60.7156 65.4829C60.7156 66.5095 60.4889 67.4162 60.0356 68.2029C59.5956 68.9762 58.9889 69.5829 58.2156 70.0229C57.4422 70.4629 56.5822 70.6829 55.6356 70.6829ZM55.6356 68.4629C56.3022 68.4629 56.8822 68.2162 57.3756 67.7229C57.8689 67.2162 58.1156 66.4695 58.1156 65.4829C58.1156 64.4962 57.8689 63.7562 57.3756 63.2629C56.8822 62.7562 56.3089 62.5029 55.6556 62.5029C54.9756 62.5029 54.3889 62.7562 53.8956 63.2629C53.4156 63.7562 53.1756 64.4962 53.1756 65.4829C53.1756 66.4695 53.4156 67.2162 53.8956 67.7229C54.3889 68.2162 54.9689 68.4629 55.6356 68.4629ZM63.0045 70.4429V56.0429H65.5645V70.4429H63.0045ZM79.5659 70.6829C78.1659 70.6829 76.9392 70.3762 75.8859 69.7629C74.8459 69.1495 74.0259 68.3029 73.4259 67.2229C72.8392 66.1295 72.5459 64.8695 72.5459 63.4429C72.5459 62.0162 72.8392 60.7629 73.4259 59.6829C74.0259 58.5895 74.8459 57.7362 75.8859 57.1229C76.9392 56.5095 78.1659 56.2029 79.5659 56.2029C80.9525 56.2029 82.1725 56.5095 83.2259 57.1229C84.2792 57.7362 85.0992 58.5895 85.6859 59.6829C86.2725 60.7629 86.5659 62.0162 86.5659 63.4429C86.5659 64.8695 86.2725 66.1295 85.6859 67.2229C85.0992 68.3029 84.2792 69.1495 83.2259 69.7629C82.1725 70.3762 80.9525 70.6829 79.5659 70.6829ZM79.5659 68.3829C80.8992 68.3829 81.9592 67.9429 82.7459 67.0629C83.5459 66.1829 83.9459 64.9762 83.9459 63.4429C83.9459 61.9095 83.5459 60.7029 82.7459 59.8229C81.9592 58.9429 80.8992 58.5029 79.5659 58.5029C78.2325 58.5029 77.1659 58.9429 76.3659 59.8229C75.5659 60.7029 75.1659 61.9095 75.1659 63.4429C75.1659 64.9762 75.5659 66.1829 76.3659 67.0629C77.1659 67.9429 78.2325 68.3829 79.5659 68.3829ZM88.7662 70.4429V60.5229H91.0462L91.2862 62.3829C91.6462 61.7429 92.1329 61.2362 92.7462 60.8629C93.3729 60.4762 94.1062 60.2829 94.9462 60.2829V62.9829H94.2262C93.6662 62.9829 93.1662 63.0695 92.7262 63.2429C92.2862 63.4162 91.9395 63.7162 91.6862 64.1429C91.4462 64.5695 91.3262 65.1629 91.3262 65.9229V70.4429H88.7662ZM101.08 70.6829C100.147 70.6829 99.3134 70.4562 98.5801 70.0029C97.8468 69.5495 97.2668 68.9295 96.8401 68.1429C96.4134 67.3562 96.2001 66.4629 96.2001 65.4629C96.2001 64.4629 96.4134 63.5762 96.8401 62.8029C97.2668 62.0162 97.8468 61.4029 98.5801 60.9629C99.3134 60.5095 100.147 60.2829 101.08 60.2829C101.827 60.2829 102.48 60.4229 103.04 60.7029C103.6 60.9829 104.053 61.3762 104.4 61.8829V56.0429H106.96V70.4429H104.68L104.4 69.0229C104.08 69.4629 103.653 69.8495 103.12 70.1829C102.6 70.5162 101.92 70.6829 101.08 70.6829ZM101.62 68.4429C102.447 68.4429 103.12 68.1695 103.64 67.6229C104.173 67.0629 104.44 66.3495 104.44 65.4829C104.44 64.6162 104.173 63.9095 103.64 63.3629C103.12 62.8029 102.447 62.5229 101.62 62.5229C100.807 62.5229 100.133 62.7962 99.6001 63.3429C99.0668 63.8895 98.8001 64.5962 98.8001 65.4629C98.8001 66.3295 99.0668 67.0429 99.6001 67.6029C100.133 68.1629 100.807 68.4429 101.62 68.4429ZM114.387 70.6829C113.387 70.6829 112.5 70.4695 111.727 70.0429C110.954 69.6162 110.347 69.0162 109.907 68.2429C109.467 67.4695 109.247 66.5762 109.247 65.5629C109.247 64.5362 109.46 63.6229 109.887 62.8229C110.327 62.0229 110.927 61.4029 111.687 60.9629C112.46 60.5095 113.367 60.2829 114.407 60.2829C115.38 60.2829 116.24 60.4962 116.987 60.9229C117.734 61.3495 118.314 61.9362 118.727 62.6829C119.154 63.4162 119.367 64.2362 119.367 65.1429C119.367 65.2895 119.36 65.4429 119.347 65.6029C119.347 65.7629 119.34 65.9295 119.327 66.1029H111.787C111.84 66.8762 112.107 67.4829 112.587 67.9229C113.08 68.3629 113.674 68.5829 114.367 68.5829C114.887 68.5829 115.32 68.4695 115.667 68.2429C116.027 68.0029 116.294 67.6962 116.467 67.3229H119.067C118.88 67.9495 118.567 68.5229 118.127 69.0429C117.7 69.5495 117.167 69.9495 116.527 70.2429C115.9 70.5362 115.187 70.6829 114.387 70.6829ZM114.407 62.3629C113.78 62.3629 113.227 62.5429 112.747 62.9029C112.267 63.2495 111.96 63.7829 111.827 64.5029H116.767C116.727 63.8495 116.487 63.3295 116.047 62.9429C115.607 62.5562 115.06 62.3629 114.407 62.3629ZM121.52 70.4429V60.5229H123.8L124.04 62.3829C124.4 61.7429 124.887 61.2362 125.5 60.8629C126.127 60.4762 126.86 60.2829 127.7 60.2829V62.9829H126.98C126.42 62.9829 125.92 63.0695 125.48 63.2429C125.04 63.4162 124.693 63.7162 124.44 64.1429C124.2 64.5695 124.08 65.1629 124.08 65.9229V70.4429H121.52ZM133.55 70.6829C132.67 70.6829 131.896 70.5429 131.23 70.2629C130.563 69.9695 130.03 69.5695 129.63 69.0629C129.23 68.5562 128.99 67.9695 128.91 67.3029H131.49C131.57 67.6895 131.783 68.0229 132.13 68.3029C132.49 68.5695 132.95 68.7029 133.51 68.7029C134.07 68.7029 134.476 68.5895 134.73 68.3629C134.996 68.1362 135.13 67.8762 135.13 67.5829C135.13 67.1562 134.943 66.8695 134.57 66.7229C134.196 66.5629 133.676 66.4095 133.01 66.2629C132.583 66.1695 132.15 66.0562 131.71 65.9229C131.27 65.7895 130.863 65.6229 130.49 65.4229C130.13 65.2095 129.836 64.9429 129.61 64.6229C129.383 64.2895 129.27 63.8829 129.27 63.4029C129.27 62.5229 129.616 61.7829 130.31 61.1829C131.016 60.5829 132.003 60.2829 133.27 60.2829C134.443 60.2829 135.376 60.5562 136.07 61.1029C136.776 61.6495 137.196 62.4029 137.33 63.3629H134.91C134.763 62.6295 134.21 62.2629 133.25 62.2629C132.77 62.2629 132.396 62.3562 132.13 62.5429C131.876 62.7295 131.75 62.9629 131.75 63.2429C131.75 63.5362 131.943 63.7695 132.33 63.9429C132.716 64.1162 133.23 64.2762 133.87 64.4229C134.563 64.5829 135.196 64.7629 135.77 64.9629C136.356 65.1495 136.823 65.4362 137.17 65.8229C137.516 66.1962 137.69 66.7362 137.69 67.4429C137.703 68.0562 137.543 68.6095 137.21 69.1029C136.876 69.5962 136.396 69.9829 135.77 70.2629C135.143 70.5429 134.403 70.6829 133.55 70.6829Z" fill="black"/>
<g clip-path="url(#clip0)">
<path d="M37.928 118.899C35.9774 118.899 34.2927 118.557 32.874 117.873C31.4807 117.189 30.3787 116.252 29.568 115.061C28.7827 113.845 28.3267 112.477 28.2 110.957H32.95C33.178 112.046 33.7354 112.958 34.622 113.693C35.5087 114.402 36.6107 114.757 37.928 114.757C39.3467 114.757 40.4994 114.238 41.386 113.199C42.298 112.16 42.754 110.868 42.754 109.323C42.754 107.727 42.298 106.46 41.386 105.523C40.4994 104.586 39.372 104.117 38.004 104.117C36.864 104.117 35.876 104.396 35.04 104.953C34.204 105.51 33.6087 106.207 33.254 107.043H28.58L30.86 91.8429H45.604V96.0989H34.508L33.292 102.255C33.8494 101.647 34.6094 101.153 35.572 100.773C36.5347 100.368 37.6114 100.165 38.802 100.165C40.702 100.165 42.2854 100.596 43.552 101.457C44.8187 102.293 45.7814 103.408 46.44 104.801C47.0987 106.169 47.428 107.664 47.428 109.285C47.428 111.134 47.0227 112.781 46.212 114.225C45.4267 115.669 44.312 116.809 42.868 117.645C41.4494 118.481 39.8027 118.899 37.928 118.899ZM62.8605 118.899C60.4032 118.899 58.3005 118.329 56.5525 117.189C54.8045 116.024 53.4492 114.415 52.4865 112.363C51.5492 110.286 51.0805 107.879 51.0805 105.143C51.0805 102.432 51.5492 100.038 52.4865 97.9609C53.4492 95.8835 54.8045 94.2749 56.5525 93.1349C58.3005 91.9695 60.4032 91.3869 62.8605 91.3869C65.3178 91.3869 67.4205 91.9695 69.1685 93.1349C70.9165 94.2749 72.2592 95.8835 73.1965 97.9609C74.1592 100.038 74.6405 102.432 74.6405 105.143C74.6405 107.879 74.1592 110.286 73.1965 112.363C72.2592 114.415 70.9165 116.024 69.1685 117.189C67.4205 118.329 65.3178 118.899 62.8605 118.899ZM62.8605 114.529C64.8618 114.529 66.4958 113.693 67.7625 112.021C69.0292 110.349 69.6625 108.056 69.6625 105.143C69.6625 102.23 69.0292 99.9369 67.7625 98.2649C66.4958 96.5929 64.8618 95.7569 62.8605 95.7569C60.8338 95.7569 59.1872 96.5929 57.9205 98.2649C56.6792 99.9369 56.0585 102.23 56.0585 105.143C56.0585 108.056 56.6792 110.349 57.9205 112.021C59.1872 113.693 60.8338 114.529 62.8605 114.529ZM91.093 118.443V113.503H77.983V109.627L90.447 91.8429H95.957V109.285H99.453V113.503H95.957V118.443H91.093ZM83.189 109.285H91.397V97.2009L83.189 109.285Z" fill="#FF3A29"/>
<path d="M167.806 91.4429L159.596 102.768L156.358 100.584L146.958 108.228L140.816 118.744L129.62 115.144L118.569 117.935L113.806 120.443" stroke="#FFB200" stroke-width="2" stroke-linecap="round"/>
</g>
<path d="M297.628 51.7587L283.785 58.6801C282.808 59.1684 281.649 59.4125 280.306 59.4125C278.963 59.4125 277.804 59.1684 276.827 58.6801L262.984 51.7587C262.032 51.2704 261.556 50.6906 261.556 50.0192C261.556 49.3478 262.032 48.768 262.984 48.2797L266.573 46.5219L269.137 47.8036L263.9 50.0375L280.306 57.0688L296.712 50.0375L291.475 47.8036L294.039 46.5219L297.628 48.2797C298.58 48.768 299.056 49.3478 299.056 50.0192C299.056 50.6906 298.58 51.2704 297.628 51.7587ZM297.628 42.3837L283.785 49.3051C282.808 49.7934 281.649 50.0375 280.306 50.0375C278.963 50.0375 277.804 49.7934 276.827 49.3051L262.984 42.3837C262.032 41.8954 261.556 41.3156 261.556 40.6442C261.556 39.9728 262.032 39.393 262.984 38.9047L276.827 31.9833C277.804 31.5195 278.963 31.2875 280.306 31.2875C281.649 31.2875 282.808 31.5195 283.785 31.9833L297.628 38.9047C298.58 39.393 299.056 39.9728 299.056 40.6442C299.056 41.3156 298.58 41.8954 297.628 42.3837ZM262.984 57.6913L266.573 55.8969L269.137 57.1786L263.9 59.4125L280.306 66.4438L296.712 59.4125L291.475 57.1786L294.039 55.8969L297.628 57.6913C298.58 58.1552 299.056 58.7289 299.056 59.4125C299.056 60.0961 298.58 60.6699 297.628 61.1337L283.785 68.0551C282.808 68.5434 281.649 68.7875 280.306 68.7875C278.963 68.7875 277.804 68.5434 276.827 68.0551L262.984 61.1337C262.032 60.6699 261.556 60.0961 261.556 59.4125C261.556 58.7289 262.032 58.1552 262.984 57.6913Z" fill="#00CE2D"/>
<path d="M297.628 51.5693L283.785 58.4907C282.808 58.979 281.649 59.2231 280.306 59.2231C278.963 59.2231 277.804 58.979 276.827 58.4907L262.984 51.5693C262.032 51.0811 261.556 50.5012 261.556 49.8298C261.556 49.1584 262.032 48.5908 262.984 48.127L266.573 46.3325L276.827 51.4595C277.804 51.9478 278.963 52.1919 280.306 52.1919C281.649 52.1919 282.808 51.9478 283.785 51.4595L294.039 46.3325L297.628 48.127C298.58 48.5908 299.056 49.1646 299.056 49.8481C299.056 50.5317 298.58 51.1055 297.628 51.5693ZM297.628 42.1943L283.785 49.1157C282.808 49.604 281.649 49.8481 280.306 49.8481C278.963 49.8481 277.804 49.604 276.827 49.1157L262.984 42.1943C262.032 41.7061 261.556 41.1262 261.556 40.4548C261.556 39.7834 262.032 39.2036 262.984 38.7153L276.827 31.7939C277.804 31.3301 278.963 31.0981 280.306 31.0981C281.649 31.0981 282.808 31.3301 283.785 31.7939L297.628 38.7153C298.58 39.2036 299.056 39.7834 299.056 40.4548C299.056 41.1262 298.58 41.7061 297.628 42.1943ZM280.306 33.4419L263.9 40.4731L280.306 47.5044L296.712 40.4731L280.306 33.4419ZM262.984 57.502L266.573 55.7075L269.137 56.9893L263.9 59.2231L280.306 66.2544L296.712 59.2231L291.475 56.9893L294.039 55.7075L297.628 57.502C298.58 57.9658 299.056 58.5396 299.056 59.2231C299.056 59.9067 298.58 60.4805 297.628 60.9443L283.785 67.8657C282.808 68.354 281.649 68.5981 280.306 68.5981C278.963 68.5981 277.804 68.354 276.827 67.8657L262.984 60.9443C262.032 60.4805 261.556 59.9067 261.556 59.2231C261.556 58.5396 262.032 57.9658 262.984 57.502Z" fill="#00CE2D"/>
<path d="M257.662 116.443V108.871H255.154V108.043H261.178V108.871H258.67V116.443H257.662ZM263.983 116.587C263.423 116.587 262.919 116.459 262.471 116.203C262.023 115.947 261.667 115.587 261.403 115.123C261.147 114.651 261.019 114.099 261.019 113.467C261.019 112.835 261.151 112.287 261.415 111.823C261.679 111.351 262.035 110.987 262.483 110.731C262.939 110.475 263.447 110.347 264.007 110.347C264.567 110.347 265.071 110.475 265.519 110.731C265.967 110.987 266.319 111.351 266.575 111.823C266.839 112.287 266.971 112.835 266.971 113.467C266.971 114.099 266.839 114.651 266.575 115.123C266.311 115.587 265.951 115.947 265.495 116.203C265.047 116.459 264.543 116.587 263.983 116.587ZM263.983 115.723C264.327 115.723 264.647 115.639 264.943 115.471C265.239 115.303 265.479 115.051 265.663 114.715C265.847 114.379 265.939 113.963 265.939 113.467C265.939 112.971 265.847 112.555 265.663 112.219C265.487 111.883 265.251 111.631 264.955 111.463C264.659 111.295 264.343 111.211 264.007 111.211C263.663 111.211 263.343 111.295 263.047 111.463C262.751 111.631 262.511 111.883 262.327 112.219C262.143 112.555 262.051 112.971 262.051 113.467C262.051 113.963 262.143 114.379 262.327 114.715C262.511 115.051 262.747 115.303 263.035 115.471C263.331 115.639 263.647 115.723 263.983 115.723ZM271.072 116.587C270.48 116.587 269.96 116.451 269.512 116.179C269.072 115.907 268.728 115.535 268.48 115.063C268.24 114.591 268.12 114.055 268.12 113.455C268.12 112.855 268.244 112.323 268.492 111.859C268.74 111.387 269.084 111.019 269.524 110.755C269.964 110.483 270.484 110.347 271.084 110.347C271.572 110.347 272.004 110.447 272.38 110.647C272.756 110.847 273.048 111.127 273.256 111.487V107.803H274.264V116.443H273.352L273.256 115.459C273.064 115.747 272.788 116.007 272.428 116.239C272.068 116.471 271.616 116.587 271.072 116.587ZM271.18 115.711C271.58 115.711 271.932 115.619 272.236 115.435C272.548 115.243 272.788 114.979 272.956 114.643C273.132 114.307 273.22 113.915 273.22 113.467C273.22 113.019 273.132 112.627 272.956 112.291C272.788 111.955 272.548 111.695 272.236 111.511C271.932 111.319 271.58 111.223 271.18 111.223C270.788 111.223 270.436 111.319 270.124 111.511C269.82 111.695 269.58 111.955 269.404 112.291C269.236 112.627 269.152 113.019 269.152 113.467C269.152 113.915 269.236 114.307 269.404 114.643C269.58 114.979 269.82 115.243 270.124 115.435C270.436 115.619 270.788 115.711 271.18 115.711ZM277.887 116.587C277.391 116.587 276.979 116.503 276.651 116.335C276.323 116.167 276.079 115.943 275.919 115.663C275.759 115.383 275.679 115.079 275.679 114.751C275.679 114.143 275.911 113.675 276.375 113.347C276.839 113.019 277.471 112.855 278.271 112.855H279.879V112.783C279.879 112.263 279.743 111.871 279.471 111.607C279.199 111.335 278.835 111.199 278.379 111.199C277.987 111.199 277.647 111.299 277.359 111.499C277.079 111.691 276.903 111.975 276.831 112.351H275.799C275.839 111.919 275.983 111.555 276.231 111.259C276.487 110.963 276.803 110.739 277.179 110.587C277.555 110.427 277.955 110.347 278.379 110.347C279.211 110.347 279.835 110.571 280.251 111.019C280.675 111.459 280.887 112.047 280.887 112.783V116.443H279.987L279.927 115.375C279.759 115.711 279.511 115.999 279.183 116.239C278.863 116.471 278.431 116.587 277.887 116.587ZM278.043 115.735C278.427 115.735 278.755 115.635 279.027 115.435C279.307 115.235 279.519 114.975 279.663 114.655C279.807 114.335 279.879 113.999 279.879 113.647V113.635H278.355C277.763 113.635 277.343 113.739 277.095 113.947C276.855 114.147 276.735 114.399 276.735 114.703C276.735 115.015 276.847 115.267 277.071 115.459C277.303 115.643 277.627 115.735 278.043 115.735ZM282.872 119.083L284.348 115.867H284L281.636 110.491H282.728L284.696 115.123L286.784 110.491H287.828L283.928 119.083H282.872Z" fill="#92929D"/>
<path fill-rule="evenodd" clip-rule="evenodd" d="M304.599 109.443C305.044 109.443 305.267 109.981 304.952 110.296L300.16 115.089C299.964 115.285 299.648 115.285 299.452 115.089L294.66 110.296C294.345 109.981 294.568 109.443 295.013 109.443H304.599Z" fill="#252525"/>
<defs>
<clipPath id="clip0">
<rect width="145" height="49" fill="white" transform="translate(25.806 81.4429)"/>
</clipPath>
</defs>
</svg>
