<svg width="327" height="161" viewBox="0 0 327 161" fill="none" xmlns="http://www.w3.org/2000/svg">
<rect x="0.80603" y="0.442871" width="326" height="160" rx="12" fill="#F5F5F5" fill-opacity="0.62"/>
<path d="M30.426 44.4429V32.5029H26.346V30.4429H37.086V32.5029H32.986V44.4429H30.426ZM41.8856 44.6829C40.9256 44.6829 40.0589 44.4629 39.2856 44.0229C38.5256 43.5829 37.9189 42.9762 37.4656 42.2029C37.0256 41.4162 36.8056 40.5095 36.8056 39.4829C36.8056 38.4562 37.0322 37.5562 37.4856 36.7829C37.9389 35.9962 38.5456 35.3829 39.3056 34.9429C40.0789 34.5029 40.9456 34.2829 41.9056 34.2829C42.8522 34.2829 43.7056 34.5029 44.4656 34.9429C45.2389 35.3829 45.8456 35.9962 46.2856 36.7829C46.7389 37.5562 46.9656 38.4562 46.9656 39.4829C46.9656 40.5095 46.7389 41.4162 46.2856 42.2029C45.8456 42.9762 45.2389 43.5829 44.4656 44.0229C43.6922 44.4629 42.8322 44.6829 41.8856 44.6829ZM41.8856 42.4629C42.5522 42.4629 43.1322 42.2162 43.6256 41.7229C44.1189 41.2162 44.3656 40.4695 44.3656 39.4829C44.3656 38.4962 44.1189 37.7562 43.6256 37.2629C43.1322 36.7562 42.5589 36.5029 41.9056 36.5029C41.2256 36.5029 40.6389 36.7562 40.1456 37.2629C39.6656 37.7562 39.4256 38.4962 39.4256 39.4829C39.4256 40.4695 39.6656 41.2162 40.1456 41.7229C40.6389 42.2162 41.2189 42.4629 41.8856 42.4629ZM53.2838 44.4429C52.2438 44.4429 51.4105 44.1895 50.7838 43.6829C50.1572 43.1762 49.8438 42.2762 49.8438 40.9829V36.6629H48.1438V34.5229H49.8438L50.1438 31.8629H52.4038V34.5229H55.0838V36.6629H52.4038V41.0029C52.4038 41.4829 52.5038 41.8162 52.7038 42.0029C52.9172 42.1762 53.2772 42.2629 53.7838 42.2629H55.0238V44.4429H53.2838ZM60.7018 44.6829C59.8485 44.6829 59.1485 44.5495 58.6018 44.2829C58.0551 44.0029 57.6485 43.6362 57.3818 43.1829C57.1151 42.7295 56.9818 42.2295 56.9818 41.6829C56.9818 40.7629 57.3418 40.0162 58.0618 39.4429C58.7818 38.8695 59.8618 38.5829 61.3018 38.5829H63.8218V38.3429C63.8218 37.6629 63.6285 37.1629 63.2418 36.8429C62.8551 36.5229 62.3751 36.3629 61.8018 36.3629C61.2818 36.3629 60.8285 36.4895 60.4418 36.7429C60.0551 36.9829 59.8151 37.3429 59.7218 37.8229H57.2218C57.2885 37.1029 57.5285 36.4762 57.9418 35.9429C58.3685 35.4095 58.9151 35.0029 59.5818 34.7229C60.2485 34.4295 60.9951 34.2829 61.8218 34.2829C63.2351 34.2829 64.3485 34.6362 65.1618 35.3429C65.9751 36.0495 66.3818 37.0495 66.3818 38.3429V44.4429H64.2018L63.9618 42.8429C63.6685 43.3762 63.2551 43.8162 62.7218 44.1629C62.2018 44.5095 61.5285 44.6829 60.7018 44.6829ZM61.2818 42.6829C62.0151 42.6829 62.5818 42.4429 62.9818 41.9629C63.3951 41.4829 63.6551 40.8895 63.7618 40.1829H61.5818C60.9018 40.1829 60.4151 40.3095 60.1218 40.5629C59.8285 40.8029 59.6818 41.1029 59.6818 41.4629C59.6818 41.8495 59.8285 42.1495 60.1218 42.3629C60.4151 42.5762 60.8018 42.6829 61.2818 42.6829ZM68.8248 44.4429V30.0429H71.3848V44.4429H68.8248ZM33.506 70.6829C32.0927 70.6829 30.8794 70.3829 29.866 69.7829C28.8527 69.1695 28.0727 68.3229 27.526 67.2429C26.9794 66.1495 26.706 64.8895 26.706 63.4629C26.706 62.0362 26.9794 60.7762 27.526 59.6829C28.0727 58.5895 28.8527 57.7362 29.866 57.1229C30.8794 56.5095 32.0927 56.2029 33.506 56.2029C35.186 56.2029 36.5594 56.6229 37.626 57.4629C38.706 58.2895 39.3794 59.4562 39.646 60.9629H36.826C36.6527 60.2029 36.2794 59.6095 35.706 59.1829C35.146 58.7429 34.3994 58.5229 33.466 58.5229C32.1727 58.5229 31.1594 58.9629 30.426 59.8429C29.6927 60.7229 29.326 61.9295 29.326 63.4629C29.326 64.9962 29.6927 66.2029 30.426 67.0829C31.1594 67.9495 32.1727 68.3829 33.466 68.3829C34.3994 68.3829 35.146 68.1829 35.706 67.7829C36.2794 67.3695 36.6527 66.8029 36.826 66.0829H39.646C39.3794 67.5229 38.706 68.6495 37.626 69.4629C36.5594 70.2762 35.186 70.6829 33.506 70.6829ZM41.8521 70.4429V60.5229H44.1321L44.3721 62.3829C44.7321 61.7429 45.2188 61.2362 45.8321 60.8629C46.4588 60.4762 47.1921 60.2829 48.0321 60.2829V62.9829H47.3121C46.7521 62.9829 46.2521 63.0695 45.8121 63.2429C45.3721 63.4162 45.0255 63.7162 44.7721 64.1429C44.5321 64.5695 44.4121 65.1629 44.4121 65.9229V70.4429H41.8521ZM54.426 70.6829C53.426 70.6829 52.5394 70.4695 51.766 70.0429C50.9927 69.6162 50.386 69.0162 49.946 68.2429C49.506 67.4695 49.286 66.5762 49.286 65.5629C49.286 64.5362 49.4994 63.6229 49.926 62.8229C50.366 62.0229 50.966 61.4029 51.726 60.9629C52.4994 60.5095 53.406 60.2829 54.446 60.2829C55.4194 60.2829 56.2794 60.4962 57.026 60.9229C57.7727 61.3495 58.3527 61.9362 58.766 62.6829C59.1927 63.4162 59.406 64.2362 59.406 65.1429C59.406 65.2895 59.3994 65.4429 59.386 65.6029C59.386 65.7629 59.3794 65.9295 59.366 66.1029H51.826C51.8794 66.8762 52.146 67.4829 52.626 67.9229C53.1194 68.3629 53.7127 68.5829 54.406 68.5829C54.926 68.5829 55.3594 68.4695 55.706 68.2429C56.066 68.0029 56.3327 67.6962 56.506 67.3229H59.106C58.9194 67.9495 58.606 68.5229 58.166 69.0429C57.7394 69.5495 57.206 69.9495 56.566 70.2429C55.9394 70.5362 55.226 70.6829 54.426 70.6829ZM54.446 62.3629C53.8194 62.3629 53.266 62.5429 52.786 62.9029C52.306 63.2495 51.9994 63.7829 51.866 64.5029H56.806C56.766 63.8495 56.526 63.3295 56.086 62.9429C55.646 62.5562 55.0994 62.3629 54.446 62.3629ZM64.9792 70.6829C64.1258 70.6829 63.4258 70.5495 62.8792 70.2829C62.3325 70.0029 61.9258 69.6362 61.6592 69.1829C61.3925 68.7295 61.2592 68.2295 61.2592 67.6829C61.2592 66.7629 61.6192 66.0162 62.3392 65.4429C63.0592 64.8695 64.1392 64.5829 65.5792 64.5829H68.0992V64.3429C68.0992 63.6629 67.9058 63.1629 67.5192 62.8429C67.1325 62.5229 66.6525 62.3629 66.0792 62.3629C65.5592 62.3629 65.1058 62.4895 64.7192 62.7429C64.3325 62.9829 64.0925 63.3429 63.9992 63.8229H61.4992C61.5658 63.1029 61.8058 62.4762 62.2192 61.9429C62.6458 61.4095 63.1925 61.0029 63.8592 60.7229C64.5258 60.4295 65.2725 60.2829 66.0992 60.2829C67.5125 60.2829 68.6258 60.6362 69.4392 61.3429C70.2525 62.0495 70.6592 63.0495 70.6592 64.3429V70.4429H68.4792L68.2392 68.8429C67.9458 69.3762 67.5325 69.8162 66.9992 70.1629C66.4792 70.5095 65.8058 70.6829 64.9792 70.6829ZM65.5592 68.6829C66.2925 68.6829 66.8592 68.4429 67.2592 67.9629C67.6725 67.4829 67.9325 66.8895 68.0392 66.1829H65.8592C65.1792 66.1829 64.6925 66.3095 64.3992 66.5629C64.1058 66.8029 63.9592 67.1029 63.9592 67.4629C63.9592 67.8495 64.1058 68.1495 64.3992 68.3629C64.6925 68.5762 65.0792 68.6829 65.5592 68.6829ZM77.3854 70.4429C76.3454 70.4429 75.5121 70.1895 74.8854 69.6829C74.2587 69.1762 73.9454 68.2762 73.9454 66.9829V62.6629H72.2454V60.5229H73.9454L74.2454 57.8629H76.5054V60.5229H79.1854V62.6629H76.5054V67.0029C76.5054 67.4829 76.6054 67.8162 76.8054 68.0029C77.0187 68.1762 77.3787 68.2629 77.8854 68.2629H79.1254V70.4429H77.3854ZM85.9495 70.6829C84.9495 70.6829 84.0628 70.4695 83.2895 70.0429C82.5161 69.6162 81.9095 69.0162 81.4695 68.2429C81.0295 67.4695 80.8095 66.5762 80.8095 65.5629C80.8095 64.5362 81.0228 63.6229 81.4495 62.8229C81.8895 62.0229 82.4895 61.4029 83.2495 60.9629C84.0228 60.5095 84.9295 60.2829 85.9695 60.2829C86.9428 60.2829 87.8028 60.4962 88.5495 60.9229C89.2961 61.3495 89.8761 61.9362 90.2895 62.6829C90.7161 63.4162 90.9295 64.2362 90.9295 65.1429C90.9295 65.2895 90.9228 65.4429 90.9095 65.6029C90.9095 65.7629 90.9028 65.9295 90.8895 66.1029H83.3495C83.4028 66.8762 83.6695 67.4829 84.1495 67.9229C84.6428 68.3629 85.2361 68.5829 85.9295 68.5829C86.4495 68.5829 86.8828 68.4695 87.2295 68.2429C87.5895 68.0029 87.8561 67.6962 88.0295 67.3229H90.6295C90.4428 67.9495 90.1295 68.5229 89.6895 69.0429C89.2628 69.5495 88.7295 69.9495 88.0895 70.2429C87.4628 70.5362 86.7495 70.6829 85.9495 70.6829ZM85.9695 62.3629C85.3428 62.3629 84.7895 62.5429 84.3095 62.9029C83.8295 63.2495 83.5228 63.7829 83.3895 64.5029H88.3295C88.2895 63.8495 88.0495 63.3295 87.6095 62.9429C87.1695 62.5562 86.6228 62.3629 85.9695 62.3629ZM97.6426 70.6829C96.7093 70.6829 95.8759 70.4562 95.1426 70.0029C94.4093 69.5495 93.8293 68.9295 93.4026 68.1429C92.9759 67.3562 92.7626 66.4629 92.7626 65.4629C92.7626 64.4629 92.9759 63.5762 93.4026 62.8029C93.8293 62.0162 94.4093 61.4029 95.1426 60.9629C95.8759 60.5095 96.7093 60.2829 97.6426 60.2829C98.3893 60.2829 99.0426 60.4229 99.6026 60.7029C100.163 60.9829 100.616 61.3762 100.963 61.8829V56.0429H103.523V70.4429H101.243L100.963 69.0229C100.643 69.4629 100.216 69.8495 99.6826 70.1829C99.1626 70.5162 98.4826 70.6829 97.6426 70.6829ZM98.1826 68.4429C99.0093 68.4429 99.6826 68.1695 100.203 67.6229C100.736 67.0629 101.003 66.3495 101.003 65.4829C101.003 64.6162 100.736 63.9095 100.203 63.3629C99.6826 62.8029 99.0093 62.5229 98.1826 62.5229C97.3693 62.5229 96.6959 62.7962 96.1626 63.3429C95.6293 63.8895 95.3626 64.5962 95.3626 65.4629C95.3626 66.3295 95.6293 67.0429 96.1626 67.6029C96.6959 68.1629 97.3693 68.4429 98.1826 68.4429ZM117.515 70.6829C116.115 70.6829 114.888 70.3762 113.835 69.7629C112.795 69.1495 111.975 68.3029 111.375 67.2229C110.788 66.1295 110.495 64.8695 110.495 63.4429C110.495 62.0162 110.788 60.7629 111.375 59.6829C111.975 58.5895 112.795 57.7362 113.835 57.1229C114.888 56.5095 116.115 56.2029 117.515 56.2029C118.902 56.2029 120.122 56.5095 121.175 57.1229C122.228 57.7362 123.048 58.5895 123.635 59.6829C124.222 60.7629 124.515 62.0162 124.515 63.4429C124.515 64.8695 124.222 66.1295 123.635 67.2229C123.048 68.3029 122.228 69.1495 121.175 69.7629C120.122 70.3762 118.902 70.6829 117.515 70.6829ZM117.515 68.3829C118.848 68.3829 119.908 67.9429 120.695 67.0629C121.495 66.1829 121.895 64.9762 121.895 63.4429C121.895 61.9095 121.495 60.7029 120.695 59.8229C119.908 58.9429 118.848 58.5029 117.515 58.5029C116.182 58.5029 115.115 58.9429 114.315 59.8229C113.515 60.7029 113.115 61.9095 113.115 63.4429C113.115 64.9762 113.515 66.1829 114.315 67.0629C115.115 67.9429 116.182 68.3829 117.515 68.3829ZM126.715 70.4429V60.5229H128.995L129.235 62.3829C129.595 61.7429 130.082 61.2362 130.695 60.8629C131.322 60.4762 132.055 60.2829 132.895 60.2829V62.9829H132.175C131.615 62.9829 131.115 63.0695 130.675 63.2429C130.235 63.4162 129.889 63.7162 129.635 64.1429C129.395 64.5695 129.275 65.1629 129.275 65.9229V70.4429H126.715ZM139.029 70.6829C138.096 70.6829 137.263 70.4562 136.529 70.0029C135.796 69.5495 135.216 68.9295 134.789 68.1429C134.363 67.3562 134.149 66.4629 134.149 65.4629C134.149 64.4629 134.363 63.5762 134.789 62.8029C135.216 62.0162 135.796 61.4029 136.529 60.9629C137.263 60.5095 138.096 60.2829 139.029 60.2829C139.776 60.2829 140.429 60.4229 140.989 60.7029C141.549 60.9829 142.003 61.3762 142.349 61.8829V56.0429H144.909V70.4429H142.629L142.349 69.0229C142.029 69.4629 141.603 69.8495 141.069 70.1829C140.549 70.5162 139.869 70.6829 139.029 70.6829ZM139.569 68.4429C140.396 68.4429 141.069 68.1695 141.589 67.6229C142.123 67.0629 142.389 66.3495 142.389 65.4829C142.389 64.6162 142.123 63.9095 141.589 63.3629C141.069 62.8029 140.396 62.5229 139.569 62.5229C138.756 62.5229 138.083 62.7962 137.549 63.3429C137.016 63.8895 136.749 64.5962 136.749 65.4629C136.749 66.3295 137.016 67.0429 137.549 67.6029C138.083 68.1629 138.756 68.4429 139.569 68.4429ZM152.336 70.6829C151.336 70.6829 150.45 70.4695 149.676 70.0429C148.903 69.6162 148.296 69.0162 147.856 68.2429C147.416 67.4695 147.196 66.5762 147.196 65.5629C147.196 64.5362 147.41 63.6229 147.836 62.8229C148.276 62.0229 148.876 61.4029 149.636 60.9629C150.41 60.5095 151.316 60.2829 152.356 60.2829C153.33 60.2829 154.19 60.4962 154.936 60.9229C155.683 61.3495 156.263 61.9362 156.676 62.6829C157.103 63.4162 157.316 64.2362 157.316 65.1429C157.316 65.2895 157.31 65.4429 157.296 65.6029C157.296 65.7629 157.29 65.9295 157.276 66.1029H149.736C149.79 66.8762 150.056 67.4829 150.536 67.9229C151.03 68.3629 151.623 68.5829 152.316 68.5829C152.836 68.5829 153.27 68.4695 153.616 68.2429C153.976 68.0029 154.243 67.6962 154.416 67.3229H157.016C156.83 67.9495 156.516 68.5229 156.076 69.0429C155.65 69.5495 155.116 69.9495 154.476 70.2429C153.85 70.5362 153.136 70.6829 152.336 70.6829ZM152.356 62.3629C151.73 62.3629 151.176 62.5429 150.696 62.9029C150.216 63.2495 149.91 63.7829 149.776 64.5029H154.716C154.676 63.8495 154.436 63.3295 153.996 62.9429C153.556 62.5562 153.01 62.3629 152.356 62.3629ZM159.469 70.4429V60.5229H161.749L161.989 62.3829C162.349 61.7429 162.836 61.2362 163.449 60.8629C164.076 60.4762 164.809 60.2829 165.649 60.2829V62.9829H164.929C164.369 62.9829 163.869 63.0695 163.429 63.2429C162.989 63.4162 162.643 63.7162 162.389 64.1429C162.149 64.5695 162.029 65.1629 162.029 65.9229V70.4429H159.469ZM171.499 70.6829C170.619 70.6829 169.846 70.5429 169.179 70.2629C168.512 69.9695 167.979 69.5695 167.579 69.0629C167.179 68.5562 166.939 67.9695 166.859 67.3029H169.439C169.519 67.6895 169.732 68.0229 170.079 68.3029C170.439 68.5695 170.899 68.7029 171.459 68.7029C172.019 68.7029 172.426 68.5895 172.679 68.3629C172.946 68.1362 173.079 67.8762 173.079 67.5829C173.079 67.1562 172.892 66.8695 172.519 66.7229C172.146 66.5629 171.626 66.4095 170.959 66.2629C170.532 66.1695 170.099 66.0562 169.659 65.9229C169.219 65.7895 168.812 65.6229 168.439 65.4229C168.079 65.2095 167.786 64.9429 167.559 64.6229C167.332 64.2895 167.219 63.8829 167.219 63.4029C167.219 62.5229 167.566 61.7829 168.259 61.1829C168.966 60.5829 169.952 60.2829 171.219 60.2829C172.392 60.2829 173.326 60.5562 174.019 61.1029C174.726 61.6495 175.146 62.4029 175.279 63.3629H172.859C172.712 62.6295 172.159 62.2629 171.199 62.2629C170.719 62.2629 170.346 62.3562 170.079 62.5429C169.826 62.7295 169.699 62.9629 169.699 63.2429C169.699 63.5362 169.892 63.7695 170.279 63.9429C170.666 64.1162 171.179 64.2762 171.819 64.4229C172.512 64.5829 173.146 64.7629 173.719 64.9629C174.306 65.1495 174.772 65.4362 175.119 65.8229C175.466 66.1962 175.639 66.7362 175.639 67.4429C175.652 68.0562 175.492 68.6095 175.159 69.1029C174.826 69.5962 174.346 69.9829 173.719 70.2629C173.092 70.5429 172.352 70.6829 171.499 70.6829Z" fill="black"/>
<g clip-path="url(#clip0)">
<path d="M37.928 118.899C35.9774 118.899 34.2927 118.557 32.874 117.873C31.4807 117.189 30.3787 116.252 29.568 115.061C28.7827 113.845 28.3267 112.477 28.2 110.957H32.95C33.178 112.046 33.7354 112.958 34.622 113.693C35.5087 114.402 36.6107 114.757 37.928 114.757C39.3467 114.757 40.4994 114.238 41.386 113.199C42.298 112.16 42.754 110.868 42.754 109.323C42.754 107.727 42.298 106.46 41.386 105.523C40.4994 104.586 39.372 104.117 38.004 104.117C36.864 104.117 35.876 104.396 35.04 104.953C34.204 105.51 33.6087 106.207 33.254 107.043H28.58L30.86 91.8429H45.604V96.0989H34.508L33.292 102.255C33.8494 101.647 34.6094 101.153 35.572 100.773C36.5347 100.368 37.6114 100.165 38.802 100.165C40.702 100.165 42.2854 100.596 43.552 101.457C44.8187 102.293 45.7814 103.408 46.44 104.801C47.0987 106.169 47.428 107.664 47.428 109.285C47.428 111.134 47.0227 112.781 46.212 114.225C45.4267 115.669 44.312 116.809 42.868 117.645C41.4494 118.481 39.8027 118.899 37.928 118.899ZM62.8605 118.899C60.4032 118.899 58.3005 118.329 56.5525 117.189C54.8045 116.024 53.4492 114.415 52.4865 112.363C51.5492 110.286 51.0805 107.879 51.0805 105.143C51.0805 102.432 51.5492 100.038 52.4865 97.9609C53.4492 95.8835 54.8045 94.2749 56.5525 93.1349C58.3005 91.9695 60.4032 91.3869 62.8605 91.3869C65.3178 91.3869 67.4205 91.9695 69.1685 93.1349C70.9165 94.2749 72.2592 95.8835 73.1965 97.9609C74.1592 100.038 74.6405 102.432 74.6405 105.143C74.6405 107.879 74.1592 110.286 73.1965 112.363C72.2592 114.415 70.9165 116.024 69.1685 117.189C67.4205 118.329 65.3178 118.899 62.8605 118.899ZM62.8605 114.529C64.8618 114.529 66.4958 113.693 67.7625 112.021C69.0292 110.349 69.6625 108.056 69.6625 105.143C69.6625 102.23 69.0292 99.9369 67.7625 98.2649C66.4958 96.5929 64.8618 95.7569 62.8605 95.7569C60.8338 95.7569 59.1872 96.5929 57.9205 98.2649C56.6792 99.9369 56.0585 102.23 56.0585 105.143C56.0585 108.056 56.6792 110.349 57.9205 112.021C59.1872 113.693 60.8338 114.529 62.8605 114.529ZM91.093 118.443V113.503H77.983V109.627L90.447 91.8429H95.957V109.285H99.453V113.503H95.957V118.443H91.093ZM83.189 109.285H91.397V97.2009L83.189 109.285Z" fill="#FF3A29"/>
<path d="M167.806 91.4429L159.596 102.768L156.358 100.584L146.958 108.228L140.816 118.744L129.62 115.144L118.569 117.935L113.806 120.443" stroke="#FFB200" stroke-width="2" stroke-linecap="round"/>
</g>
<path d="M296.011 50.5894L283.46 56.8647C282.575 57.3075 281.523 57.5288 280.306 57.5288C279.089 57.5288 278.037 57.3075 277.152 56.8647L264.601 50.5894C263.738 50.1466 263.306 49.6209 263.306 49.0122C263.306 48.4035 263.738 47.8778 264.601 47.4351L267.855 45.8413L270.179 47.0034L265.431 49.0288L280.306 55.4038L295.181 49.0288L290.433 47.0034L292.757 45.8413L296.011 47.4351C296.874 47.8778 297.306 48.4035 297.306 49.0122C297.306 49.6209 296.874 50.1466 296.011 50.5894ZM296.011 42.0894L283.46 48.3647C282.575 48.8075 281.523 49.0288 280.306 49.0288C279.089 49.0288 278.037 48.8075 277.152 48.3647L264.601 42.0894C263.738 41.6466 263.306 41.1209 263.306 40.5122C263.306 39.9035 263.738 39.3778 264.601 38.9351L277.152 32.6597C278.037 32.2391 279.089 32.0288 280.306 32.0288C281.523 32.0288 282.575 32.2391 283.46 32.6597L296.011 38.9351C296.874 39.3778 297.306 39.9035 297.306 40.5122C297.306 41.1209 296.874 41.6466 296.011 42.0894ZM264.601 55.9683L267.855 54.3413L270.179 55.5034L265.431 57.5288L280.306 63.9038L295.181 57.5288L290.433 55.5034L292.757 54.3413L296.011 55.9683C296.874 56.3888 297.306 56.909 297.306 57.5288C297.306 58.1486 296.874 58.6688 296.011 59.0894L283.46 65.3647C282.575 65.8075 281.523 66.0288 280.306 66.0288C279.089 66.0288 278.037 65.8075 277.152 65.3647L264.601 59.0894C263.738 58.6688 263.306 58.1486 263.306 57.5288C263.306 56.909 263.738 56.3888 264.601 55.9683Z" fill="#9B51E0"/>
<path d="M296.011 50.4175L283.46 56.6929C282.575 57.1356 281.523 57.3569 280.306 57.3569C279.089 57.3569 278.037 57.1356 277.152 56.6929L264.601 50.4175C263.738 49.9748 263.306 49.4491 263.306 48.8403C263.306 48.2316 263.738 47.717 264.601 47.2964L267.855 45.6694L277.152 50.3179C278.037 50.7606 279.089 50.9819 280.306 50.9819C281.523 50.9819 282.575 50.7606 283.46 50.3179L292.757 45.6694L296.011 47.2964C296.874 47.717 297.306 48.2371 297.306 48.8569C297.306 49.4767 296.874 49.9969 296.011 50.4175ZM296.011 41.9175L283.46 48.1929C282.575 48.6356 281.523 48.8569 280.306 48.8569C279.089 48.8569 278.037 48.6356 277.152 48.1929L264.601 41.9175C263.738 41.4748 263.306 40.9491 263.306 40.3403C263.306 39.7316 263.738 39.2059 264.601 38.7632L277.152 32.4878C278.037 32.0672 279.089 31.8569 280.306 31.8569C281.523 31.8569 282.575 32.0672 283.46 32.4878L296.011 38.7632C296.874 39.2059 297.306 39.7316 297.306 40.3403C297.306 40.9491 296.874 41.4748 296.011 41.9175ZM280.306 33.9819L265.431 40.3569L280.306 46.7319L295.181 40.3569L280.306 33.9819ZM264.601 55.7964L267.855 54.1694L270.179 55.3315L265.431 57.3569L280.306 63.7319L295.181 57.3569L290.433 55.3315L292.757 54.1694L296.011 55.7964C296.874 56.217 297.306 56.7371 297.306 57.3569C297.306 57.9767 296.874 58.4969 296.011 58.9175L283.46 65.1929C282.575 65.6356 281.523 65.8569 280.306 65.8569C279.089 65.8569 278.037 65.6356 277.152 65.1929L264.601 58.9175C263.738 58.4969 263.306 57.9767 263.306 57.3569C263.306 56.7371 263.738 56.217 264.601 55.7964Z" fill="#9B51E0"/>
<path d="M257.662 114.443V106.871H255.154V106.043H261.178V106.871H258.67V114.443H257.662ZM263.983 114.587C263.423 114.587 262.919 114.459 262.471 114.203C262.023 113.947 261.667 113.587 261.403 113.123C261.147 112.651 261.019 112.099 261.019 111.467C261.019 110.835 261.151 110.287 261.415 109.823C261.679 109.351 262.035 108.987 262.483 108.731C262.939 108.475 263.447 108.347 264.007 108.347C264.567 108.347 265.071 108.475 265.519 108.731C265.967 108.987 266.319 109.351 266.575 109.823C266.839 110.287 266.971 110.835 266.971 111.467C266.971 112.099 266.839 112.651 266.575 113.123C266.311 113.587 265.951 113.947 265.495 114.203C265.047 114.459 264.543 114.587 263.983 114.587ZM263.983 113.723C264.327 113.723 264.647 113.639 264.943 113.471C265.239 113.303 265.479 113.051 265.663 112.715C265.847 112.379 265.939 111.963 265.939 111.467C265.939 110.971 265.847 110.555 265.663 110.219C265.487 109.883 265.251 109.631 264.955 109.463C264.659 109.295 264.343 109.211 264.007 109.211C263.663 109.211 263.343 109.295 263.047 109.463C262.751 109.631 262.511 109.883 262.327 110.219C262.143 110.555 262.051 110.971 262.051 111.467C262.051 111.963 262.143 112.379 262.327 112.715C262.511 113.051 262.747 113.303 263.035 113.471C263.331 113.639 263.647 113.723 263.983 113.723ZM271.072 114.587C270.48 114.587 269.96 114.451 269.512 114.179C269.072 113.907 268.728 113.535 268.48 113.063C268.24 112.591 268.12 112.055 268.12 111.455C268.12 110.855 268.244 110.323 268.492 109.859C268.74 109.387 269.084 109.019 269.524 108.755C269.964 108.483 270.484 108.347 271.084 108.347C271.572 108.347 272.004 108.447 272.38 108.647C272.756 108.847 273.048 109.127 273.256 109.487V105.803H274.264V114.443H273.352L273.256 113.459C273.064 113.747 272.788 114.007 272.428 114.239C272.068 114.471 271.616 114.587 271.072 114.587ZM271.18 113.711C271.58 113.711 271.932 113.619 272.236 113.435C272.548 113.243 272.788 112.979 272.956 112.643C273.132 112.307 273.22 111.915 273.22 111.467C273.22 111.019 273.132 110.627 272.956 110.291C272.788 109.955 272.548 109.695 272.236 109.511C271.932 109.319 271.58 109.223 271.18 109.223C270.788 109.223 270.436 109.319 270.124 109.511C269.82 109.695 269.58 109.955 269.404 110.291C269.236 110.627 269.152 111.019 269.152 111.467C269.152 111.915 269.236 112.307 269.404 112.643C269.58 112.979 269.82 113.243 270.124 113.435C270.436 113.619 270.788 113.711 271.18 113.711ZM277.887 114.587C277.391 114.587 276.979 114.503 276.651 114.335C276.323 114.167 276.079 113.943 275.919 113.663C275.759 113.383 275.679 113.079 275.679 112.751C275.679 112.143 275.911 111.675 276.375 111.347C276.839 111.019 277.471 110.855 278.271 110.855H279.879V110.783C279.879 110.263 279.743 109.871 279.471 109.607C279.199 109.335 278.835 109.199 278.379 109.199C277.987 109.199 277.647 109.299 277.359 109.499C277.079 109.691 276.903 109.975 276.831 110.351H275.799C275.839 109.919 275.983 109.555 276.231 109.259C276.487 108.963 276.803 108.739 277.179 108.587C277.555 108.427 277.955 108.347 278.379 108.347C279.211 108.347 279.835 108.571 280.251 109.019C280.675 109.459 280.887 110.047 280.887 110.783V114.443H279.987L279.927 113.375C279.759 113.711 279.511 113.999 279.183 114.239C278.863 114.471 278.431 114.587 277.887 114.587ZM278.043 113.735C278.427 113.735 278.755 113.635 279.027 113.435C279.307 113.235 279.519 112.975 279.663 112.655C279.807 112.335 279.879 111.999 279.879 111.647V111.635H278.355C277.763 111.635 277.343 111.739 277.095 111.947C276.855 112.147 276.735 112.399 276.735 112.703C276.735 113.015 276.847 113.267 277.071 113.459C277.303 113.643 277.627 113.735 278.043 113.735ZM282.872 117.083L284.348 113.867H284L281.636 108.491H282.728L284.696 113.123L286.784 108.491H287.828L283.928 117.083H282.872Z" fill="#92929D"/>
<path fill-rule="evenodd" clip-rule="evenodd" d="M304.599 107.443C305.044 107.443 305.267 107.981 304.952 108.296L300.16 113.089C299.964 113.285 299.648 113.285 299.452 113.089L294.66 108.296C294.345 107.981 294.568 107.443 295.013 107.443H304.599Z" fill="#252525"/>
<defs>
<clipPath id="clip0">
<rect width="161" height="49" fill="white" transform="translate(25.806 81.4429)"/>
</clipPath>
</defs>
</svg>
