<svg width="25" height="25" viewBox="0 0 25 25" fill="none" xmlns="http://www.w3.org/2000/svg">
<path d="M24.0836 13.5875L15.2242 18.0172C14.5992 18.3297 13.8571 18.4859 12.9977 18.4859C12.1383 18.4859 11.3961 18.3297 10.7711 18.0172L1.91174 13.5875C1.30237 13.275 0.997681 12.9039 0.997681 12.4742C0.997681 12.0445 1.30237 11.6812 1.91174 11.3843L4.20862 10.2359L10.7711 13.5172C11.3961 13.8297 12.1383 13.9859 12.9977 13.9859C13.8571 13.9859 14.5992 13.8297 15.2242 13.5172L21.7867 10.2359L24.0836 11.3843C24.693 11.6812 24.9977 12.0484 24.9977 12.4859C24.9977 12.9234 24.693 13.2906 24.0836 13.5875ZM24.0836 7.58746L15.2242 12.0172C14.5992 12.3297 13.8571 12.4859 12.9977 12.4859C12.1383 12.4859 11.3961 12.3297 10.7711 12.0172L1.91174 7.58746C1.30237 7.27496 0.997681 6.90387 0.997681 6.47418C0.997681 6.04449 1.30237 5.6734 1.91174 5.3609L10.7711 0.931213C11.3961 0.634338 12.1383 0.485901 12.9977 0.485901C13.8571 0.485901 14.5992 0.634338 15.2242 0.931213L24.0836 5.3609C24.693 5.6734 24.9977 6.04449 24.9977 6.47418C24.9977 6.90387 24.693 7.27496 24.0836 7.58746ZM12.9977 1.9859L2.49768 6.4859L12.9977 10.9859L23.4977 6.4859L12.9977 1.9859ZM1.91174 17.3843L4.20862 16.2359L5.84924 17.0562L2.49768 18.4859L12.9977 22.9859L23.4977 18.4859L20.1461 17.0562L21.7867 16.2359L24.0836 17.3843C24.693 17.6812 24.9977 18.0484 24.9977 18.4859C24.9977 18.9234 24.693 19.2906 24.0836 19.5875L15.2242 24.0172C14.5992 24.3297 13.8571 24.4859 12.9977 24.4859C12.1383 24.4859 11.3961 24.3297 10.7711 24.0172L1.91174 19.5875C1.30237 19.2906 0.997681 18.9234 0.997681 18.4859C0.997681 18.0484 1.30237 17.6812 1.91174 17.3843Z" fill="#252525"/>
</svg>
