<svg width="25" height="13" viewBox="0 0 25 13" fill="none" xmlns="http://www.w3.org/2000/svg">
<path d="M0.997559 0.56311H24.3133V9.45282C24.3133 10.2894 24.0319 11.0918 23.5308 11.6833C23.0298 12.2749 22.3503 12.6072 21.6417 12.6072H3.66916C2.96061 12.6072 2.28107 12.2749 1.78005 11.6833C1.27903 11.0918 0.997559 10.2894 0.997559 9.45282V0.56311ZM17.0271 6.1837C16.7953 6.1837 16.5729 6.29247 16.4089 6.48607C16.2449 6.67968 16.1528 6.94226 16.1528 7.21606C16.1528 7.48985 16.2449 7.75244 16.4089 7.94604C16.5729 8.13965 16.7953 8.24841 17.0271 8.24841H19.9416C20.1735 8.24841 20.3959 8.13965 20.5599 7.94604C20.7238 7.75244 20.816 7.48985 20.816 7.21606C20.816 6.94226 20.7238 6.67968 20.5599 6.48607C20.3959 6.29247 20.1735 6.1837 19.9416 6.1837H17.0271Z" fill="#252525"/>
</svg>
